<?xml version="1.0" encoding="UTF-8" standalone="no"?>
<svg
   xmlns:dc="http://purl.org/dc/elements/1.1/"
   xmlns:cc="http://creativecommons.org/ns#"
   xmlns:rdf="http://www.w3.org/1999/02/22-rdf-syntax-ns#"
   xmlns:svg="http://www.w3.org/2000/svg"
   xmlns="http://www.w3.org/2000/svg"
   viewBox="0 0 666.66669 666.66669"
   height="666.66669"
   width="666.66669"
   xml:space="preserve"
   id="svg2"
   version="1.1"><metadata
     id="metadata8"><rdf:RDF><cc:Work
         rdf:about=""><dc:format>image/svg+xml</dc:format><dc:type
           rdf:resource="http://purl.org/dc/dcmitype/StillImage" /></cc:Work></rdf:RDF></metadata><defs
     id="defs6" /><g
     transform="matrix(1.3333333,0,0,-1.3333333,0,666.66667)"
     id="g10"><g
       transform="scale(0.1)"
       id="g12"><path
         id="path14"
         style="fill:#f1e3d1;fill-opacity:1;fill-rule:nonzero;stroke:none"
         d="M 5000,0 H 0 V 5000 H 5000 V 0" /><path
         id="path16"
         style="fill:#e2d4c1;fill-opacity:1;fill-rule:nonzero;stroke:none"
         d="m 2458.78,4461.9 c 0,0 -841.73,334.93 -1246.85,-167.83 C 806.813,3791.3 1792.61,3134.69 774.922,2633.11 56.25,2278.91 423.852,1320.71 1184.69,1443.73 c 865.76,139.98 277.23,629.41 2188.69,338.14 946.77,-144.27 1646.39,1867.7 -914.6,2680.03" /><path
         id="path18"
         style="fill:#ccbda9;fill-opacity:1;fill-rule:nonzero;stroke:none"
         d="m 4693.88,424.332 c 0,-43.801 -973.4,-79.301 -2174.14,-79.301 -1200.76,0 -2174.154,35.5 -2174.154,79.301 0,43.789 973.394,79.277 2174.154,79.277 1200.74,0 2174.14,-35.488 2174.14,-79.277" /><path
         id="path20"
         style="fill:#e2d4c1;fill-opacity:1;fill-rule:nonzero;stroke:none"
         d="m 4143.11,3708.1 c 0,0 -100.34,220.69 -236.14,198.66 -135.79,-22.04 -15.91,-293.22 102.81,-339.69 118.73,-46.47 174.82,68.48 133.33,141.03" /><path
         id="path22"
         style="fill:#e2d4c1;fill-opacity:1;fill-rule:nonzero;stroke:none"
         d="m 4199.43,3288.54 c 60.04,15.92 88.53,84.13 60.71,139.67 -21.9,43.72 -58.98,85.87 -118.66,73.08 -115.48,-24.74 -54.21,-142.26 -13.72,-193.28 17.18,-21.63 53.06,-24.42 71.67,-19.47" /><path
         id="path24"
         style="fill:#e2d4c1;fill-opacity:1;fill-rule:nonzero;stroke:none"
         d="m 2094.35,1569.13 c 0,0 241.08,25.49 263.07,161.3 21.97,135.8 -273.19,107.7 -354.78,9.74 -81.59,-97.97 9.77,-187.49 91.71,-171.04" /><path
         id="path26"
         style="fill:#e2d4c1;fill-opacity:1;fill-rule:nonzero;stroke:none"
         d="m 1708.44,1533.94 c 19.3,-59.04 89.01,-83.62 142.88,-52.71 42.41,24.35 82.4,63.74 66.25,122.61 -31.23,113.9 -145.1,46.08 -193.74,2.76 -20.63,-18.38 -21.38,-54.35 -15.39,-72.66" /><path
         id="path28"
         style="fill:#ac9a88;fill-opacity:1;fill-rule:nonzero;stroke:none"
         d="m 3900.71,446 c 0,0 -145.83,88.789 -102.98,134.172 42.85,45.367 155.74,-108.102 155.74,-108.102 0,0 -17.71,192.172 60.47,192.172 75.54,0 -7.71,-218.242 -7.71,-218.242 h -105.52" /><path
         id="path30"
         style="fill:#ccbda9;fill-opacity:1;fill-rule:nonzero;stroke:none"
         d="m 2755.6,484.691 c 0,0 99.06,88.801 56.22,134.168 -42.85,45.371 -108.98,-108.089 -108.98,-108.089 0,0 17.72,192.171 -60.46,192.171 -75.55,0 7.7,-218.25 7.7,-218.25 h 105.52" /><path
         id="path32"
         style="fill:#ccbda9;fill-opacity:1;fill-rule:nonzero;stroke:none"
         d="m 783.793,976.25 c 7.301,14.242 24.348,42.17 46.184,43.48 29.363,1.75 31.39,-38.23 9.117,-53.898 -18.934,-13.32 -46.891,-31.391 -56.168,-11.863 -3.348,7.062 -2.696,15.34 0.867,22.281 z M 887.691,811.891 c 0,0 61.329,74.371 79.454,46.308 18.121,-28.047 -103.715,-120.98 -79.454,-46.308 z m -350.793,52.531 c 3.145,1.476 6.848,1.07 10.305,0.769 11.453,-1.011 40.238,-5.449 52.465,-24.851 14.797,-23.469 -114.23,-0.039 -62.77,24.082 z M 653.551,733.551 c 42.191,-10.813 -36.449,-105.192 -64.496,-68.02 -6.434,8.508 -6.598,20.188 -1.328,29.469 9.929,17.5 32.214,47.18 65.824,38.551 z m -224.43,27.32 c 63.445,26.641 120.785,19.777 88.891,-31.473 -28.875,-46.378 -116.117,-12.027 -157.344,-33.367 13.809,-42.492 30.723,-86.652 51.266,-132.48 1.957,-4.36 3.925,-8.641 5.898,-12.871 16.453,-3.86 35.961,-3.961 58.051,3.859 72.07,25.512 153.32,43.07 165.988,-5.617 12.555,-48.301 -48.691,-67.082 -158.547,-112.383 3.02,-4.199 6.047,-8.238 9.082,-12.207 h 417.821 c -12.899,21.566 -27.868,44.977 -43.301,65.707 -43.406,58.27 -298.488,675.711 -346.422,836.411 0,0 325.555,-721.481 397.734,-841.11 6.063,-10.059 11.672,-19.36 16.93,-28.07 7.344,-12.2 13.926,-23.141 19.816,-32.938 h 10.879 c -5.367,28.598 1.602,46.289 2.504,48.418 8.676,12.891 23.156,25.121 46.673,34.5 88.41,35.25 154.49,27.492 187.89,118.148 13.43,48.954 14.5,101.563 6.22,154.864 -1.66,-0.973 -3.38,-1.942 -5.18,-2.871 -107.16,-55.7 -161.6,-91.391 -190.71,-50.352 -29.115,41.051 36.65,91.91 102.56,130.633 32.37,19.008 44.98,46.027 49.45,68.609 -18.28,41.828 -40.74,82.279 -65.75,119.809 -47.4,-8.85 -77.55,-109.551 -134.985,-101.301 -59.75,8.602 -28.082,56.891 33.16,88.291 42.495,21.77 50.075,60.07 50.745,81.49 -31.48,37.72 -64.924,70.32 -97.92,95.49 -0.934,-3.16 -1.747,-6.42 -2.383,-9.85 -15.633,-83.31 -109.946,-144.75 -146.715,-105.73 -36.774,39.03 33.683,101.88 55.348,136.44 7.308,11.67 12.132,23.04 15.089,33.91 -54.933,37.2 -105.375,69.47 -151.363,96.07 -6.363,-51.75 14.246,-111.97 -12.23,-140.63 -39.082,-42.29 -86.774,-0.06 -61.735,79.63 12.703,40.41 4.254,71.17 -7.16,91.68 -6.156,11.06 -15.793,19.82 -27.437,24.77 -14.176,6.02 -27.754,11.2 -40.723,15.46 -62.426,20.5 -140.664,-9.9 -172.949,-67.12 -10.133,-17.96 -20.817,-39.08 -31.137,-63.24 0,0 -4.566,-70.94 72.539,-103.1 77.109,-32.16 78.711,-95.83 21.18,-98.51 -43.348,-2.01 -79.082,65.73 -130.649,89.67 -12.543,-52.04 -20.961,-111.89 -21.39,-179.26 12.797,-8.08 28.633,-14.41 48.285,-17.168 40.39,-5.691 133.844,7.758 140.023,-45.5 6.184,-53.262 -101.554,-85.863 -175.359,-44.184 -2.512,1.411 -5.016,2.661 -7.512,3.813 4.746,-43.039 12.778,-88.52 24.844,-136.41 18.102,-12.68 50,-26.742 90.035,-9.93" /><path
         id="path34"
         style="fill:#ac9a88;fill-opacity:1;fill-rule:nonzero;stroke:none"
         d="m 910.227,424.332 h 44.757 c -5.89,9.797 -12.472,20.738 -19.816,32.938 -5.258,8.71 -10.867,18.011 -16.93,28.07 -72.179,119.629 -397.734,841.11 -397.734,841.11 47.934,-160.7 303.016,-778.141 346.422,-836.411 15.433,-20.73 30.402,-44.141 43.301,-65.707" /><path
         id="path36"
         style="fill:#ac9a88;fill-opacity:1;fill-rule:nonzero;stroke:none"
         d="m 635.098,1034.42 c -87.051,34.16 -160.008,27.84 -160.008,27.84 106.18,-15.31 179.226,-77.319 179.226,-77.319 l -19.218,49.479" /><path
         id="path38"
         style="fill:#ac9a88;fill-opacity:1;fill-rule:nonzero;stroke:none"
         d="m 641.316,1040.6 c 25.039,90.09 73.965,144.59 73.965,144.59 -51.613,-94.05 -45.98,-189.71 -45.98,-189.71 l -27.985,45.12" /><path
         id="path40"
         style="fill:#ac9a88;fill-opacity:1;fill-rule:nonzero;stroke:none"
         d="M 744.727,815.27 C 799,891.43 863.574,925.961 863.574,925.961 782.973,855.16 755.645,763.32 755.645,763.32 l -10.918,51.95" /><path
         id="path42"
         style="fill:#ac9a88;fill-opacity:1;fill-rule:nonzero;stroke:none"
         d="m 845.566,622.211 c 42.286,83.398 100.977,127.187 100.977,127.187 -69.117,-82.039 -82.41,-176.929 -82.41,-176.929 l -18.567,49.742" /><path
         id="path44"
         style="fill:#ac9a88;fill-opacity:1;fill-rule:nonzero;stroke:none"
         d="m 731.539,801.25 c -93.394,4.781 -160.57,-24.379 -160.57,-24.379 105.547,19.18 194.5,-16.441 194.5,-16.441 l -33.93,40.82" /><path
         id="path46"
         style="fill:#ac9a88;fill-opacity:1;fill-rule:nonzero;stroke:none"
         d="m 820.203,602.301 c -91.629,18.668 -162.41,-0.121 -162.41,-0.121 107.23,3.199 189.863,-45.309 189.863,-45.309 l -27.453,45.43" /><path
         id="path48"
         style="fill:#ccbda9;fill-opacity:1;fill-rule:nonzero;stroke:none"
         d="m 3373.61,953.969 c -9.27,-19.528 -37.23,-1.457 -56.17,11.863 -22.27,15.668 -20.24,55.648 9.12,53.898 21.84,-1.31 38.88,-29.238 46.18,-43.48 3.57,-6.941 4.22,-15.219 0.87,-22.281 z m -184.22,-95.77 c 18.13,28.063 79.46,-46.308 79.46,-46.308 24.26,-74.672 -97.58,18.261 -79.46,46.308 z m 367.48,-17.859 c 12.23,19.402 41.01,23.84 52.47,24.851 3.45,0.301 7.15,0.707 10.3,-0.769 51.46,-24.121 -77.56,-47.551 -62.77,-24.082 z M 3568.82,695 c 5.26,-9.281 5.1,-20.961 -1.33,-29.469 -28.06,-37.172 -106.69,57.207 -64.5,68.02 33.6,8.629 55.9,-21.051 65.83,-38.551 z m 248.63,75.801 c 12.07,47.89 20.1,93.371 24.84,136.41 -2.5,-1.152 -5,-2.402 -7.51,-3.813 -73.8,-41.679 -181.54,-9.078 -175.36,44.184 6.19,53.258 99.64,39.809 140.02,45.5 19.66,2.758 35.5,9.088 48.29,17.168 -0.43,67.37 -8.84,127.22 -21.38,179.26 -51.57,-23.94 -87.31,-91.68 -130.66,-89.67 -57.53,2.68 -55.92,66.35 21.18,98.51 77.11,32.16 72.54,103.1 72.54,103.1 -10.32,24.16 -21,45.28 -31.13,63.24 -32.29,57.22 -110.53,87.62 -172.95,67.12 -12.98,-4.26 -26.55,-9.44 -40.72,-15.46 -11.65,-4.95 -21.29,-13.71 -27.44,-24.77 -11.42,-20.51 -19.87,-51.27 -7.17,-91.68 25.05,-79.69 -22.65,-121.92 -61.73,-79.63 -26.47,28.66 -5.86,88.88 -12.23,140.63 -45.98,-26.6 -96.42,-58.87 -151.36,-96.07 2.96,-10.87 7.78,-22.24 15.1,-33.91 21.66,-34.56 92.1,-97.41 55.34,-136.44 -36.77,-39.02 -131.09,22.42 -146.71,105.73 -0.65,3.43 -1.46,6.69 -2.39,9.85 -33,-25.17 -66.44,-57.77 -97.92,-95.49 0.67,-21.42 8.26,-59.72 50.75,-81.49 61.23,-31.4 92.9,-79.689 33.15,-88.291 -57.43,-8.25 -87.59,92.451 -134.98,101.301 -25.01,-37.53 -47.47,-77.981 -65.75,-119.809 4.46,-22.582 17.07,-49.601 49.44,-68.609 65.92,-38.723 131.68,-89.582 102.57,-130.633 -29.11,-41.039 -83.55,-5.348 -190.71,50.352 -1.8,0.929 -3.52,1.898 -5.18,2.871 -8.28,-53.301 -7.2,-105.91 6.21,-154.864 33.41,-90.656 99.49,-82.898 187.89,-118.148 23.53,-9.379 38,-21.609 46.67,-34.5 0.91,-2.129 7.87,-19.82 2.51,-48.418 h 10.88 c 5.9,9.797 12.48,20.738 19.83,32.938 5.25,8.71 10.86,18.011 16.92,28.07 72.18,119.629 397.73,841.11 397.73,841.11 -47.92,-160.7 -303.01,-778.141 -346.41,-836.411 -15.44,-20.73 -30.41,-44.141 -43.3,-65.707 h 417.81 c 3.04,3.969 6.07,8.008 9.08,12.207 -109.85,45.301 -171.1,64.082 -158.54,112.383 12.66,48.687 93.91,31.129 165.98,5.617 22.09,-7.82 41.6,-7.719 58.06,-3.859 1.97,4.23 3.94,8.511 5.89,12.871 20.55,45.828 37.46,89.988 51.27,132.48 -41.22,21.34 -128.47,-13.011 -157.34,33.367 -31.9,51.25 25.44,58.114 88.89,31.473 40.03,-16.812 71.94,-2.75 90.03,9.93" /><path
         id="path50"
         style="fill:#ac9a88;fill-opacity:1;fill-rule:nonzero;stroke:none"
         d="m 3246.32,424.332 h -44.77 c 5.9,9.797 12.48,20.738 19.83,32.938 5.25,8.71 10.86,18.011 16.92,28.07 72.18,119.629 397.73,841.11 397.73,841.11 -47.92,-160.7 -303.01,-778.141 -346.41,-836.411 -15.44,-20.73 -30.41,-44.141 -43.3,-65.707" /><path
         id="path52"
         style="fill:#ac9a88;fill-opacity:1;fill-rule:nonzero;stroke:none"
         d="m 3521.45,1034.42 c 87.04,34.16 160,27.84 160,27.84 -106.19,-15.31 -179.22,-77.319 -179.22,-77.319 l 19.22,49.479" /><path
         id="path54"
         style="fill:#ac9a88;fill-opacity:1;fill-rule:nonzero;stroke:none"
         d="m 3515.22,1040.6 c -25.03,90.09 -73.96,144.59 -73.96,144.59 51.61,-94.05 45.98,-189.71 45.98,-189.71 l 27.98,45.12" /><path
         id="path56"
         style="fill:#ac9a88;fill-opacity:1;fill-rule:nonzero;stroke:none"
         d="m 3411.82,815.27 c -54.28,76.16 -118.86,110.691 -118.86,110.691 80.6,-70.801 107.93,-162.641 107.93,-162.641 l 10.93,51.95" /><path
         id="path58"
         style="fill:#ac9a88;fill-opacity:1;fill-rule:nonzero;stroke:none"
         d="m 3310.97,622.211 c -42.28,83.398 -100.98,127.187 -100.98,127.187 69.12,-82.039 82.42,-176.929 82.42,-176.929 l 18.56,49.742" /><path
         id="path60"
         style="fill:#ac9a88;fill-opacity:1;fill-rule:nonzero;stroke:none"
         d="m 3425,801.25 c 93.4,4.781 160.57,-24.379 160.57,-24.379 -105.54,19.18 -194.5,-16.441 -194.5,-16.441 l 33.93,40.82" /><path
         id="path62"
         style="fill:#ac9a88;fill-opacity:1;fill-rule:nonzero;stroke:none"
         d="m 3336.34,602.301 c 91.63,18.668 162.4,-0.121 162.4,-0.121 -107.23,3.199 -189.85,-45.309 -189.85,-45.309 l 27.45,45.43" /><path
         id="path64"
         style="fill:#ccbda9;fill-opacity:1;fill-rule:nonzero;stroke:none"
         d="m 2293.01,641.352 c 34.32,-41.442 17.51,-37.383 12.51,-128.153 -1.3,-23.48 2.09,-47.629 10.02,-69.578 h 254.23 c 2.68,13.719 -1.73,29.078 -18.46,45.57 -65.63,64.758 -82.73,93.297 -61.4,156.418 21.34,63.11 54.36,109.09 -14.93,141.172 -69.28,32.078 -33.28,116.188 -19.55,167.051 13.73,50.868 -37.94,48.388 -82.97,97.778 -45.04,49.42 19.74,80.19 -21.34,152.73 -41.08,72.53 -165.1,107.25 -167.38,242.81 0,0 -53.67,-95.92 -31.56,-187.78 22.11,-91.86 81.48,-134.98 51.92,-194.9 -29.57,-59.91 -27.57,-128.56 21.77,-167.88 49.33,-39.309 43.58,-81.18 28.17,-143.699 -15.41,-62.52 4.66,-70.121 38.97,-111.539" /><path
         id="path66"
         style="fill:#ac9a88;fill-opacity:1;fill-rule:nonzero;stroke:none"
         d="M 2456.1,443.621 2259.8,1169.8 c -0.92,3.42 -4.46,5.46 -7.88,4.54 -0.04,-0.01 -0.08,-0.02 -0.12,-0.03 -3.36,-0.98 -5.34,-4.48 -4.42,-7.87 l 195.39,-722.819 h 13.33" /><path
         id="path68"
         style="fill:#ccbda9;fill-opacity:1;fill-rule:nonzero;stroke:none"
         d="m 4597.02,641.352 c -34.32,-41.442 -17.51,-37.383 -12.51,-128.153 1.3,-23.48 -2.09,-47.629 -10.02,-69.578 h -254.23 c -2.67,13.719 1.74,29.078 18.46,45.57 65.63,64.758 82.73,93.297 61.4,156.418 -21.34,63.11 -54.35,109.09 14.93,141.172 69.29,32.078 33.28,116.188 19.55,167.051 -13.73,50.868 37.94,48.388 82.98,97.778 45.04,49.42 -19.75,80.19 21.33,152.73 41.08,72.53 165.1,107.25 167.38,242.81 0,0 53.67,-95.92 31.56,-187.78 -22.11,-91.86 -81.47,-134.98 -51.91,-194.9 29.56,-59.91 27.57,-128.56 -21.78,-167.88 -49.34,-39.309 -43.58,-81.18 -28.17,-143.699 15.41,-62.52 -4.65,-70.121 -38.97,-111.539" /><path
         id="path70"
         style="fill:#ac9a88;fill-opacity:1;fill-rule:nonzero;stroke:none"
         d="m 4433.93,443.621 196.3,726.179 c 0.92,3.42 4.46,5.46 7.88,4.54 0.03,-0.01 0.08,-0.02 0.12,-0.03 3.36,-0.98 5.34,-4.48 4.43,-7.87 L 4447.27,443.621 h -13.34" /><path
         id="path72"
         style="fill:#ac9a88;fill-opacity:1;fill-rule:nonzero;stroke:none"
         d="m 4303.99,3879.17 c -52.67,0 -95.53,-42.86 -95.53,-95.53 0,-52.68 42.86,-95.53 95.53,-95.53 52.68,0 95.54,42.85 95.54,95.53 0,52.67 -42.86,95.53 -95.54,95.53 z m 0,-203.07 c -59.29,0 -107.53,48.24 -107.53,107.54 0,59.29 48.24,107.53 107.53,107.53 59.3,0 107.54,-48.24 107.54,-107.53 0,-59.3 -48.24,-107.54 -107.54,-107.54" /><path
         id="path74"
         style="fill:#ac9a88;fill-opacity:1;fill-rule:nonzero;stroke:none"
         d="m 4303.99,3777.64 c -1.45,0 -2.88,0.53 -3.98,1.51 -1.28,1.14 -2.01,2.77 -2.01,4.49 v 72.18 c 0,3.31 2.68,5.99 5.99,5.99 3.32,0 6.01,-2.68 6.01,-5.99 v -65.42 l 54.91,6.56 c 3.3,0.39 6.28,-1.96 6.67,-5.25 0.39,-3.29 -1.96,-6.27 -5.24,-6.67 l -61.63,-7.36 c -0.24,-0.03 -0.48,-0.04 -0.72,-0.04" /><path
         id="path76"
         style="fill:#ac9a88;fill-opacity:1;fill-rule:nonzero;stroke:none"
         d="m 567.676,3558.4 c -17.145,0 -31.094,-13.95 -31.094,-31.09 0,-17.14 13.949,-31.09 31.094,-31.09 17.144,0 31.094,13.95 31.094,31.09 0,17.14 -13.95,31.09 -31.094,31.09 z m 0,-74.18 c -23.758,0 -43.09,19.33 -43.09,43.09 0,23.76 19.332,43.09 43.09,43.09 23.762,0 43.09,-19.33 43.09,-43.09 0,-23.76 -19.328,-43.09 -43.09,-43.09" /><path
         id="path78"
         style="fill:#ac9a88;fill-opacity:1;fill-rule:nonzero;stroke:none"
         d="m 3224.46,1805.6 c -17.15,0 -31.09,-13.95 -31.09,-31.1 0,-17.14 13.94,-31.08 31.09,-31.08 17.15,0 31.1,13.94 31.1,31.08 0,17.15 -13.95,31.1 -31.1,31.1 z m 0,-74.18 c -23.76,0 -43.09,19.32 -43.09,43.08 0,23.77 19.33,43.1 43.09,43.1 23.76,0 43.1,-19.33 43.1,-43.1 0,-23.76 -19.34,-43.08 -43.1,-43.08" /><path
         id="path80"
         style="fill:#ac9a88;fill-opacity:1;fill-rule:nonzero;stroke:none"
         d="m 4493.02,3281.13 39.12,-38.13 c 1.4,-1.38 2.06,-3.36 1.72,-5.31 l -9.23,-53.84 48.35,25.42 c 1.75,0.92 3.84,0.92 5.58,0 l 48.35,-25.42 -9.22,53.84 c -0.35,1.95 0.31,3.93 1.71,5.31 l 39.13,38.13 -54.07,7.86 c -1.95,0.28 -3.64,1.51 -4.51,3.28 l -24.18,48.99 -24.18,-48.99 c -0.87,-1.77 -2.56,-3 -4.51,-3.28 z m 141.86,-114.25 c -0.95,0 -1.91,0.23 -2.79,0.69 l -56.32,29.61 -56.32,-29.61 c -2.03,-1.06 -4.47,-0.89 -6.33,0.46 -1.84,1.34 -2.76,3.61 -2.38,5.86 l 10.76,62.72 -45.56,44.42 c -1.64,1.59 -2.23,3.97 -1.53,6.15 0.71,2.17 2.59,3.75 4.85,4.08 l 62.97,9.15 28.16,57.06 c 1.02,2.05 3.1,3.35 5.38,3.35 2.29,0 4.37,-1.3 5.38,-3.35 l 28.17,-57.06 62.96,-9.15 c 2.26,-0.33 4.15,-1.91 4.85,-4.08 0.7,-2.18 0.12,-4.56 -1.52,-6.15 l -45.57,-44.42 10.76,-62.72 c 0.38,-2.25 -0.54,-4.52 -2.39,-5.86 -1.05,-0.76 -2.28,-1.15 -3.53,-1.15" /><path
         id="path82"
         style="fill:#ac9a88;fill-opacity:1;fill-rule:nonzero;stroke:none"
         d="m 440.688,3165.05 h 65.207 v 60.18 c 0,3.32 2.683,6.01 6,6.01 h 60.207 v 65.2 h -60.207 c -3.317,0 -6,2.69 -6,6 v 60.21 h -65.207 v -60.21 c 0,-3.31 -2.684,-6 -6,-6 H 374.48 v -65.2 h 60.208 c 3.316,0 6,-2.69 6,-6.01 z m 71.207,-12 h -77.207 c -3.317,0 -6,2.69 -6,6 v 60.18 h -60.204 c -3.312,0 -6,2.69 -6,6 v 77.21 c 0,3.32 2.688,6 6,6 h 60.204 v 60.2 c 0,3.32 2.683,6 6,6 h 77.207 c 3.316,0 6,-2.68 6,-6 v -60.2 h 60.203 c 3.312,0 6,-2.68 6,-6 v -77.21 c 0,-3.31 -2.688,-6 -6,-6 h -60.203 v -60.18 c 0,-3.31 -2.684,-6 -6,-6" /><path
         id="path84"
         style="fill:#ac9a88;fill-opacity:1;fill-rule:nonzero;stroke:none"
         d="M 641.316,3022.25 H 282.004 c -3.316,0 -6.004,2.69 -6.004,6 0,3.31 2.688,6 6.004,6 h 359.312 c 3.313,0 5.997,-2.69 5.997,-6 0,-3.31 -2.684,-6 -5.997,-6" /><path
         id="path86"
         style="fill:#ac9a88;fill-opacity:1;fill-rule:nonzero;stroke:none"
         d="m 4629.61,3532.49 h -359.32 c -3.31,0 -5.99,2.68 -5.99,6 0,3.31 2.68,6 5.99,6 h 359.32 c 3.32,0 6,-2.69 6,-6 0,-3.32 -2.68,-6 -6,-6" /><path
         id="path88"
         style="fill:#ac9a88;fill-opacity:1;fill-rule:nonzero;stroke:none"
         d="m 3617.47,1925.61 h -1371 c -3.31,0 -6,2.68 -6,5.99 0,3.31 2.69,6 6,6 h 1371 c 3.31,0 6,-2.69 6,-6 0,-3.31 -2.69,-5.99 -6,-5.99" /><path
         id="path90"
         style="fill:#ac9a88;fill-opacity:1;fill-rule:nonzero;stroke:none"
         d="m 790.078,4266.64 c -3.285,0 -5.969,2.65 -5.996,5.95 -0.027,3.31 2.633,6.02 5.945,6.05 l 1340.183,11.93 c 0.02,0 0.04,0 0.06,0 3.28,0 5.97,-2.66 5.99,-5.95 0.03,-3.32 -2.63,-6.03 -5.94,-6.06 L 790.137,4266.64 c -0.02,0 -0.039,0 -0.059,0" /><path
         id="path92"
         style="fill:#f46935;fill-opacity:1;fill-rule:nonzero;stroke:none"
         d="m 769,3821.63 h 3179.33 v 262.36 c 0,28.9 -23.42,52.32 -52.31,52.32 H 821.324 c -28.898,0 -52.324,-23.42 -52.324,-52.32 v -262.36" /><path
         id="path94"
         style="fill:#ccbda9;fill-opacity:1;fill-rule:nonzero;stroke:none"
         d="M 769,3821.63 672.512,2116.08 c -2.508,-44.21 32.679,-81.45 76.968,-81.45 H 987.043 L 769,3821.63" /><path
         id="path96"
         style="fill:#ffffff;fill-opacity:1;fill-rule:nonzero;stroke:none"
         d="M 833.414,2032.17 H 3883.92 c 35.57,0 64.41,28.84 64.41,64.41 V 3821.63 H 769 V 2096.58 c 0,-35.57 28.844,-64.41 64.414,-64.41" /><path
         id="path98"
         style="fill:#f46935;fill-opacity:1;fill-rule:nonzero;stroke:none"
         d="m 2183.99,2566.76 c 33.5,21.2 62.09,44.18 85.82,66.06 -46.8,56.9 -68.37,102.99 -69.67,105.84 -3.36,7.3 -0.16,15.93 7.14,19.29 7.29,3.37 15.94,0.17 19.3,-7.12 0.3,-0.65 20.6,-43.88 64.34,-97.61 42.62,43.19 64.29,77.8 64.64,78.36 4.21,6.83 13.17,8.98 20.02,4.77 6.84,-4.21 8.99,-13.18 4.78,-20.03 -1.52,-2.46 -24.69,-39.61 -70.35,-85.45 18.92,-21.11 41.23,-43.09 67.15,-64.23 6.22,-5.09 7.16,-14.26 2.07,-20.49 -2.88,-3.52 -7.07,-5.35 -11.29,-5.35 -3.23,0 -6.49,1.07 -9.19,3.28 -26.99,22.01 -50.17,44.74 -69.84,66.56 -24.69,-22.63 -54.42,-46.36 -89.35,-68.48 -2.42,-1.53 -5.11,-2.25 -7.77,-2.25 -4.83,0 -9.55,2.39 -12.32,6.77 -4.3,6.79 -2.27,15.79 4.52,20.08" /><path
         id="path100"
         style="fill:#f46935;fill-opacity:1;fill-rule:nonzero;stroke:none"
         d="m 2183.99,3465.97 c 33.5,21.19 62.09,44.17 85.82,66.05 -46.8,56.91 -68.37,102.99 -69.67,105.84 -3.36,7.3 -0.16,15.93 7.14,19.29 7.29,3.37 15.94,0.17 19.3,-7.13 0.3,-0.65 20.6,-43.87 64.34,-97.6 42.62,43.19 64.29,77.79 64.64,78.36 4.21,6.84 13.17,8.98 20.02,4.77 6.84,-4.21 8.99,-13.17 4.78,-20.03 -1.52,-2.46 -24.69,-39.61 -70.35,-85.45 18.92,-21.11 41.23,-43.09 67.15,-64.24 6.22,-5.08 7.16,-14.25 2.07,-20.48 -2.88,-3.52 -7.07,-5.35 -11.29,-5.35 -3.23,0 -6.49,1.07 -9.19,3.28 -26.99,22.02 -50.17,44.74 -69.84,66.56 -24.69,-22.63 -54.42,-46.37 -89.35,-68.47 -2.42,-1.54 -5.11,-2.26 -7.77,-2.26 -4.83,0 -9.55,2.39 -12.32,6.77 -4.3,6.79 -2.27,15.79 4.52,20.09" /><path
         id="path102"
         style="fill:#f46935;fill-opacity:1;fill-rule:nonzero;stroke:none"
         d="m 1398.26,3472.08 c 33.5,21.21 62.09,44.18 85.82,66.06 -46.8,56.9 -68.37,102.99 -69.68,105.83 -3.35,7.3 -0.16,15.94 7.14,19.3 7.3,3.37 15.95,0.17 19.31,-7.13 0.3,-0.64 20.61,-43.87 64.35,-97.6 42.6,43.19 64.28,77.79 64.62,78.36 4.21,6.84 13.17,8.97 20.02,4.77 6.85,-4.21 8.99,-13.17 4.78,-20.02 -1.51,-2.48 -24.68,-39.62 -70.34,-85.45 18.91,-21.12 41.23,-43.1 67.15,-64.25 6.22,-5.08 7.15,-14.25 2.07,-20.48 -2.88,-3.52 -7.06,-5.35 -11.29,-5.35 -3.24,0 -6.49,1.07 -9.19,3.28 -26.98,22.02 -50.17,44.75 -69.85,66.56 -24.68,-22.63 -54.41,-46.37 -89.34,-68.47 -2.42,-1.53 -5.11,-2.27 -7.78,-2.27 -4.82,0 -9.54,2.4 -12.3,6.78 -4.31,6.79 -2.29,15.79 4.51,20.08" /><path
         id="path104"
         style="fill:#e3481e;fill-opacity:1;fill-rule:nonzero;stroke:none"
         d="m 3744.73,3879.99 c 43.97,0 79.76,35.79 79.76,79.77 0,43.98 -35.79,79.77 -79.76,79.77 -44,0 -79.78,-35.79 -79.78,-79.77 0,-43.98 35.78,-79.77 79.78,-79.77" /><path
         id="path106"
         style="fill:#a0301f;fill-opacity:1;fill-rule:nonzero;stroke:none"
         d="m 3682.49,3959.76 c 0,-34.37 27.86,-62.24 62.24,-62.24 34.36,0 62.22,27.87 62.22,62.24 0,34.37 -27.86,62.23 -62.22,62.23 -34.38,0 -62.24,-27.86 -62.24,-62.23" /><path
         id="path108"
         style="fill:#ffffff;fill-opacity:1;fill-rule:nonzero;stroke:none"
         d="m 3745.48,3967.98 c 0.31,0 0.63,0 0.95,0 26.2,0.17 47.11,22.01 47.11,48.21 v 161.39 c 0,26.29 -21.3,47.6 -47.59,47.6 v 0 c -26.28,0 -47.6,-21.31 -47.6,-47.6 v -161.39 c 0,-26.2 20.93,-48.04 47.13,-48.21" /><path
         id="path110"
         style="fill:#e3481e;fill-opacity:1;fill-rule:nonzero;stroke:none"
         d="m 3397.42,3879.99 c 43.99,0 79.78,35.79 79.78,79.77 0,43.98 -35.79,79.77 -79.78,79.77 -43.98,0 -79.76,-35.79 -79.76,-79.77 0,-43.98 35.78,-79.77 79.76,-79.77" /><path
         id="path112"
         style="fill:#a0301f;fill-opacity:1;fill-rule:nonzero;stroke:none"
         d="m 3335.2,3959.76 c 0,-34.37 27.86,-62.24 62.22,-62.24 34.38,0 62.24,27.87 62.24,62.24 0,34.37 -27.86,62.23 -62.24,62.23 -34.36,0 -62.22,-27.86 -62.22,-62.23" /><path
         id="path114"
         style="fill:#ffffff;fill-opacity:1;fill-rule:nonzero;stroke:none"
         d="m 3403.21,3967.98 c 0.32,0 0.64,0 0.95,0 26.2,0.17 47.13,22.01 47.13,48.21 v 161.39 c 0,26.29 -21.32,47.6 -47.6,47.6 v 0 c -26.29,0 -47.6,-21.31 -47.6,-47.6 v -161.39 c 0,-26.2 20.92,-48.04 47.12,-48.21" /><path
         id="path116"
         style="fill:#e3481e;fill-opacity:1;fill-rule:nonzero;stroke:none"
         d="m 3050.13,3879.99 c 43.98,0 79.76,35.79 79.76,79.77 0,43.98 -35.78,79.77 -79.76,79.77 -43.99,0 -79.77,-35.79 -79.77,-79.77 0,-43.98 35.78,-79.77 79.77,-79.77" /><path
         id="path118"
         style="fill:#a0301f;fill-opacity:1;fill-rule:nonzero;stroke:none"
         d="m 2987.9,3959.76 c 0,-34.37 27.86,-62.24 62.23,-62.24 34.37,0 62.23,27.87 62.23,62.24 0,34.37 -27.86,62.23 -62.23,62.23 -34.37,0 -62.23,-27.86 -62.23,-62.23" /><path
         id="path120"
         style="fill:#ffffff;fill-opacity:1;fill-rule:nonzero;stroke:none"
         d="m 3049.65,3967.98 c 0.32,0 0.63,0 0.96,0 26.2,0.17 47.11,22.01 47.11,48.21 v 161.39 c 0,26.29 -21.3,47.6 -47.59,47.6 v 0 c -26.29,0 -47.6,-21.31 -47.6,-47.6 v -161.39 c 0,-26.2 20.92,-48.04 47.12,-48.21" /><path
         id="path122"
         style="fill:#e3481e;fill-opacity:1;fill-rule:nonzero;stroke:none"
         d="m 2702.83,3879.99 c 43.99,0 79.77,35.79 79.77,79.77 0,43.98 -35.78,79.77 -79.77,79.77 -43.98,0 -79.76,-35.79 -79.76,-79.77 0,-43.98 35.78,-79.77 79.76,-79.77" /><path
         id="path124"
         style="fill:#a0301f;fill-opacity:1;fill-rule:nonzero;stroke:none"
         d="m 2640.6,3959.76 c 0,-34.37 27.86,-62.24 62.23,-62.24 34.37,0 62.24,27.87 62.24,62.24 0,34.37 -27.87,62.23 -62.24,62.23 -34.37,0 -62.23,-27.86 -62.23,-62.23" /><path
         id="path126"
         style="fill:#ffffff;fill-opacity:1;fill-rule:nonzero;stroke:none"
         d="m 2702.35,3967.98 c 0.33,0 0.64,0 0.96,0 26.2,0.17 47.12,22.01 47.12,48.21 v 161.39 c 0,26.29 -21.31,47.6 -47.6,47.6 v 0 c -26.29,0 -47.6,-21.31 -47.6,-47.6 v -161.39 c 0,-26.2 20.92,-48.04 47.12,-48.21" /><path
         id="path128"
         style="fill:#e3481e;fill-opacity:1;fill-rule:nonzero;stroke:none"
         d="m 2355.54,3879.99 c 43.98,0 79.76,35.79 79.76,79.77 0,43.98 -35.78,79.77 -79.76,79.77 -43.99,0 -79.77,-35.79 -79.77,-79.77 0,-43.98 35.78,-79.77 79.77,-79.77" /><path
         id="path130"
         style="fill:#a0301f;fill-opacity:1;fill-rule:nonzero;stroke:none"
         d="m 2293.3,3959.76 c 0,-34.37 27.87,-62.24 62.24,-62.24 34.37,0 62.23,27.87 62.23,62.24 0,34.37 -27.86,62.23 -62.23,62.23 -34.37,0 -62.24,-27.86 -62.24,-62.23" /><path
         id="path132"
         style="fill:#ffffff;fill-opacity:1;fill-rule:nonzero;stroke:none"
         d="m 2355.06,3967.98 c 0.32,0 0.63,0 0.95,0 26.2,0.17 47.12,22.01 47.12,48.21 v 161.39 c 0,26.29 -21.31,47.6 -47.59,47.6 v 0 c -26.29,0 -47.6,-21.31 -47.6,-47.6 v -161.39 c 0,-26.2 20.92,-48.04 47.12,-48.21" /><path
         id="path134"
         style="fill:#e3481e;fill-opacity:1;fill-rule:nonzero;stroke:none"
         d="m 2008.24,3879.99 c 43.98,0 79.77,35.79 79.77,79.77 0,43.98 -35.79,79.77 -79.77,79.77 -43.99,0 -79.77,-35.79 -79.77,-79.77 0,-43.98 35.78,-79.77 79.77,-79.77" /><path
         id="path136"
         style="fill:#a0301f;fill-opacity:1;fill-rule:nonzero;stroke:none"
         d="m 1946.01,3959.76 c 0,-34.37 27.86,-62.24 62.23,-62.24 34.37,0 62.23,27.87 62.23,62.24 0,34.37 -27.86,62.23 -62.23,62.23 -34.37,0 -62.23,-27.86 -62.23,-62.23" /><path
         id="path138"
         style="fill:#ffffff;fill-opacity:1;fill-rule:nonzero;stroke:none"
         d="m 2014.02,3967.98 c 0.32,0 0.64,0 0.96,0 26.2,0.17 47.12,22.01 47.12,48.21 v 161.39 c 0,26.29 -21.31,47.6 -47.6,47.6 v 0 c -26.29,0 -47.6,-21.31 -47.6,-47.6 v -161.39 c 0,-26.2 20.93,-48.04 47.12,-48.21" /><path
         id="path140"
         style="fill:#e3481e;fill-opacity:1;fill-rule:nonzero;stroke:none"
         d="m 1667.21,3879.99 c 43.98,0 79.76,35.79 79.76,79.77 0,43.98 -35.78,79.77 -79.76,79.77 -43.99,0 -79.77,-35.79 -79.77,-79.77 0,-43.98 35.78,-79.77 79.77,-79.77" /><path
         id="path142"
         style="fill:#a0301f;fill-opacity:1;fill-rule:nonzero;stroke:none"
         d="m 1604.97,3959.76 c 0,-34.37 27.87,-62.24 62.24,-62.24 34.37,0 62.23,27.87 62.23,62.24 0,34.37 -27.86,62.23 -62.23,62.23 -34.37,0 -62.24,-27.86 -62.24,-62.23" /><path
         id="path144"
         style="fill:#ffffff;fill-opacity:1;fill-rule:nonzero;stroke:none"
         d="m 1666.73,3967.98 c 0.32,0 0.63,0 0.95,0 26.2,0.17 47.12,22.01 47.12,48.21 v 161.39 c 0,26.29 -21.31,47.6 -47.59,47.6 v 0 c -26.29,0 -47.61,-21.31 -47.61,-47.6 v -161.39 c 0,-26.2 20.93,-48.04 47.13,-48.21" /><path
         id="path146"
         style="fill:#e3481e;fill-opacity:1;fill-rule:nonzero;stroke:none"
         d="m 1319.91,3879.99 c 43.98,0 79.76,35.79 79.76,79.77 0,43.98 -35.78,79.77 -79.76,79.77 -43.99,0 -79.77,-35.79 -79.77,-79.77 0,-43.98 35.78,-79.77 79.77,-79.77" /><path
         id="path148"
         style="fill:#a0301f;fill-opacity:1;fill-rule:nonzero;stroke:none"
         d="m 1257.68,3959.76 c 0,-34.37 27.86,-62.24 62.23,-62.24 34.37,0 62.23,27.87 62.23,62.24 0,34.37 -27.86,62.23 -62.23,62.23 -34.37,0 -62.23,-27.86 -62.23,-62.23" /><path
         id="path150"
         style="fill:#ffffff;fill-opacity:1;fill-rule:nonzero;stroke:none"
         d="m 1319.43,3967.98 c 0.32,0 0.64,0 0.96,0 26.19,0.17 47.11,22.01 47.11,48.21 v 161.39 c 0,26.29 -21.3,47.6 -47.59,47.6 v 0 c -26.29,0 -47.6,-21.31 -47.6,-47.6 v -161.39 c 0,-26.2 20.92,-48.04 47.12,-48.21" /><path
         id="path152"
         style="fill:#e3481e;fill-opacity:1;fill-rule:nonzero;stroke:none"
         d="m 972.613,3879.99 c 43.987,0 79.767,35.79 79.767,79.77 0,43.98 -35.78,79.77 -79.767,79.77 -43.984,0 -79.769,-35.79 -79.769,-79.77 0,-43.98 35.785,-79.77 79.769,-79.77" /><path
         id="path154"
         style="fill:#a0301f;fill-opacity:1;fill-rule:nonzero;stroke:none"
         d="m 910.383,3959.76 c 0,-34.37 27.859,-62.24 62.23,-62.24 34.367,0 62.227,27.87 62.227,62.24 0,34.37 -27.86,62.23 -62.227,62.23 -34.371,0 -62.23,-27.86 -62.23,-62.23" /><path
         id="path156"
         style="fill:#ffffff;fill-opacity:1;fill-rule:nonzero;stroke:none"
         d="m 972.133,3967.98 c 0.316,0 0.637,0 0.953,0 26.199,0.17 47.124,22.01 47.124,48.21 v 161.39 c 0,26.29 -21.308,47.6 -47.597,47.6 v 0 c -26.289,0 -47.597,-21.31 -47.597,-47.6 v -161.39 c 0,-26.2 20.918,-48.04 47.117,-48.21" /><path
         id="path158"
         style="fill:#4466ba;fill-opacity:1;fill-rule:nonzero;stroke:none"
         d="m 1370.59,2783.2 h 389.34 v 296.32 H 1370.59 V 2783.2" /><path
         id="path160"
         style="fill:#394ea9;fill-opacity:1;fill-rule:nonzero;stroke:none"
         d="m 1636.41,2944.01 h 104.14 v 104.15 h -104.14 v -104.15" /><path
         id="path162"
         style="fill:#f46935;fill-opacity:1;fill-rule:nonzero;stroke:none"
         d="m 1767.29,2783.2 h 389.35 v 296.32 H 1767.29 V 2783.2" /><path
         id="path164"
         style="fill:#e3481e;fill-opacity:1;fill-rule:nonzero;stroke:none"
         d="m 2033.11,2944.01 h 104.15 v 104.15 h -104.15 v -104.15" /><path
         id="path166"
         style="fill:#f9a61b;fill-opacity:1;fill-rule:nonzero;stroke:none"
         d="m 2158.86,2783.2 h 389.35 v 296.32 H 2158.86 V 2783.2" /><path
         id="path168"
         style="fill:#ec7916;fill-opacity:1;fill-rule:nonzero;stroke:none"
         d="m 2424.68,2944.01 h 104.15 v 104.15 h -104.15 v -104.15" /><path
         id="path170"
         style="fill:#f9a61b;fill-opacity:1;fill-rule:nonzero;stroke:none"
         d="m 973.879,2178.91 h 389.351 v 296.31 H 973.879 v -296.31" /><path
         id="path172"
         style="fill:#ec7916;fill-opacity:1;fill-rule:nonzero;stroke:none"
         d="m 1243.82,2353.62 h 104.15 v 104.15 h -104.15 v -104.15" /><path
         id="path174"
         style="fill:#f46935;fill-opacity:1;fill-rule:nonzero;stroke:none"
         d="m 3354.1,2176.6 h 389.36 v 296.31 H 3354.1 V 2176.6" /><path
         id="path176"
         style="fill:#ec7916;fill-opacity:1;fill-rule:nonzero;stroke:none"
         d="m 3618.11,2339.32 h 104.15 v 104.15 h -104.15 v -104.15" /><path
         id="path178"
         style="fill:#ceb78b;fill-opacity:1;fill-rule:nonzero;stroke:none"
         d="m 3354.61,3384.45 h 388.34 v 289.17 h -388.34 z m 391.34,-5.99 h -394.34 c -1.66,0 -3,1.34 -3,3 v 295.16 c 0,1.66 1.34,3 3,3 h 394.34 c 1.66,0 3,-1.34 3,-3 v -295.16 c 0,-1.66 -1.34,-3 -3,-3" /><path
         id="path180"
         style="fill:#ceb78b;fill-opacity:1;fill-rule:nonzero;stroke:none"
         d="m 2957.9,3384.45 h 388.35 v 289.17 H 2957.9 Z m 391.35,-5.99 H 2954.9 c -1.65,0 -3,1.34 -3,3 v 295.16 c 0,1.66 1.35,3 3,3 h 394.35 c 1.66,0 3,-1.34 3,-3 v -295.16 c 0,-1.66 -1.34,-3 -3,-3" /><path
         id="path182"
         style="fill:#ceb78b;fill-opacity:1;fill-rule:nonzero;stroke:none"
         d="m 2561.2,3384.45 h 388.34 v 289.17 H 2561.2 Z m 391.34,-5.99 H 2558.2 c -1.66,0 -3,1.34 -3,3 v 295.16 c 0,1.66 1.34,3 3,3 h 394.34 c 1.66,0 3.01,-1.34 3.01,-3 v -295.16 c 0,-1.66 -1.35,-3 -3.01,-3" /><path
         id="path184"
         style="fill:#ceb78b;fill-opacity:1;fill-rule:nonzero;stroke:none"
         d="m 2164.5,3384.45 h 388.34 v 289.17 H 2164.5 Z m 391.34,-5.99 h -394.35 c -1.65,0 -2.99,1.34 -2.99,3 v 295.16 c 0,1.66 1.34,3 2.99,3 h 394.35 c 1.65,0 3,-1.34 3,-3 v -295.16 c 0,-1.66 -1.35,-3 -3,-3" /><path
         id="path186"
         style="fill:#ceb78b;fill-opacity:1;fill-rule:nonzero;stroke:none"
         d="m 1767.79,3384.45 h 388.34 v 289.17 h -388.34 z m 391.35,-5.99 h -394.35 c -1.66,0 -3,1.34 -3,3 v 295.16 c 0,1.66 1.34,3 3,3 h 394.35 c 1.65,0 2.99,-1.34 2.99,-3 v -295.16 c 0,-1.66 -1.34,-3 -2.99,-3" /><path
         id="path188"
         style="fill:#ceb78b;fill-opacity:1;fill-rule:nonzero;stroke:none"
         d="m 1371.08,3384.45 h 388.35 v 289.17 h -388.35 z m 391.35,-5.99 h -394.34 c -1.66,0 -3,1.34 -3,3 v 295.16 c 0,1.66 1.34,3 3,3 h 394.34 c 1.66,0 3,-1.34 3,-3 v -295.16 c 0,-1.66 -1.34,-3 -3,-3" /><path
         id="path190"
         style="fill:#ceb78b;fill-opacity:1;fill-rule:nonzero;stroke:none"
         d="m 974.379,3384.45 h 388.341 v 289.17 H 974.379 Z m 391.341,-5.99 H 971.383 c -1.656,0 -3.004,1.34 -3.004,3 v 295.16 c 0,1.66 1.348,3 3.004,3 h 394.337 c 1.66,0 3.01,-1.34 3.01,-3 v -295.16 c 0,-1.66 -1.35,-3 -3.01,-3" /><path
         id="path192"
         style="fill:#ceb78b;fill-opacity:1;fill-rule:nonzero;stroke:none"
         d="m 3354.61,3083.38 h 388.34 v 289.17 h -388.34 z m 391.34,-6 h -394.34 c -1.66,0 -3,1.35 -3,3.01 v 295.16 c 0,1.66 1.34,3 3,3 h 394.34 c 1.66,0 3,-1.34 3,-3 v -295.16 c 0,-1.66 -1.34,-3.01 -3,-3.01" /><path
         id="path194"
         style="fill:#ceb78b;fill-opacity:1;fill-rule:nonzero;stroke:none"
         d="m 2957.9,3083.38 h 388.35 v 289.17 H 2957.9 Z m 391.35,-6 H 2954.9 c -1.65,0 -3,1.35 -3,3.01 v 295.16 c 0,1.66 1.35,3 3,3 h 394.35 c 1.66,0 3,-1.34 3,-3 v -295.16 c 0,-1.66 -1.34,-3.01 -3,-3.01" /><path
         id="path196"
         style="fill:#ceb78b;fill-opacity:1;fill-rule:nonzero;stroke:none"
         d="m 2561.2,3083.38 h 388.34 v 289.17 H 2561.2 Z m 391.34,-6 H 2558.2 c -1.66,0 -3,1.35 -3,3.01 v 295.16 c 0,1.66 1.34,3 3,3 h 394.34 c 1.66,0 3.01,-1.34 3.01,-3 v -295.16 c 0,-1.66 -1.35,-3.01 -3.01,-3.01" /><path
         id="path198"
         style="fill:#ceb78b;fill-opacity:1;fill-rule:nonzero;stroke:none"
         d="m 2164.5,3083.38 h 388.34 v 289.17 H 2164.5 Z m 391.34,-6 h -394.35 c -1.65,0 -2.99,1.35 -2.99,3.01 v 295.16 c 0,1.66 1.34,3 2.99,3 h 394.35 c 1.65,0 3,-1.34 3,-3 v -295.16 c 0,-1.66 -1.35,-3.01 -3,-3.01" /><path
         id="path200"
         style="fill:#ceb78b;fill-opacity:1;fill-rule:nonzero;stroke:none"
         d="m 1767.79,3083.38 h 388.34 v 289.17 h -388.34 z m 391.35,-6 h -394.35 c -1.66,0 -3,1.35 -3,3.01 v 295.16 c 0,1.66 1.34,3 3,3 h 394.35 c 1.65,0 2.99,-1.34 2.99,-3 v -295.16 c 0,-1.66 -1.34,-3.01 -2.99,-3.01" /><path
         id="path202"
         style="fill:#ceb78b;fill-opacity:1;fill-rule:nonzero;stroke:none"
         d="m 1371.08,3083.38 h 388.35 v 289.17 h -388.35 z m 391.35,-6 h -394.34 c -1.66,0 -3,1.35 -3,3.01 v 295.16 c 0,1.66 1.34,3 3,3 h 394.34 c 1.66,0 3,-1.34 3,-3 v -295.16 c 0,-1.66 -1.34,-3.01 -3,-3.01" /><path
         id="path204"
         style="fill:#ceb78b;fill-opacity:1;fill-rule:nonzero;stroke:none"
         d="m 974.379,3083.38 h 388.341 v 289.17 H 974.379 Z m 391.341,-6 H 971.383 c -1.656,0 -3.004,1.35 -3.004,3.01 v 295.16 c 0,1.66 1.348,3 3.004,3 h 394.337 c 1.66,0 3.01,-1.34 3.01,-3 v -295.16 c 0,-1.66 -1.35,-3.01 -3.01,-3.01" /><path
         id="path206"
         style="fill:#ceb78b;fill-opacity:1;fill-rule:nonzero;stroke:none"
         d="m 3354.61,2782.31 h 388.34 v 289.17 h -388.34 z m 391.34,-6 h -394.34 c -1.66,0 -3,1.35 -3,3.01 v 295.16 c 0,1.66 1.34,3 3,3 h 394.34 c 1.66,0 3,-1.34 3,-3 v -295.16 c 0,-1.66 -1.34,-3.01 -3,-3.01" /><path
         id="path208"
         style="fill:#ceb78b;fill-opacity:1;fill-rule:nonzero;stroke:none"
         d="m 2957.9,2782.31 h 388.35 v 289.17 H 2957.9 Z m 391.35,-6 H 2954.9 c -1.65,0 -3,1.35 -3,3.01 v 295.16 c 0,1.66 1.35,3 3,3 h 394.35 c 1.66,0 3,-1.34 3,-3 v -295.16 c 0,-1.66 -1.34,-3.01 -3,-3.01" /><path
         id="path210"
         style="fill:#ceb78b;fill-opacity:1;fill-rule:nonzero;stroke:none"
         d="m 2561.2,2782.31 h 388.34 v 289.17 H 2561.2 Z m 391.34,-6 H 2558.2 c -1.66,0 -3,1.35 -3,3.01 v 295.16 c 0,1.66 1.34,3 3,3 h 394.34 c 1.66,0 3.01,-1.34 3.01,-3 v -295.16 c 0,-1.66 -1.35,-3.01 -3.01,-3.01" /><path
         id="path212"
         style="fill:#ceb78b;fill-opacity:1;fill-rule:nonzero;stroke:none"
         d="m 2164.5,2782.31 h 388.34 v 289.17 H 2164.5 Z m 391.34,-6 h -394.35 c -1.65,0 -2.99,1.35 -2.99,3.01 v 295.16 c 0,1.66 1.34,3 2.99,3 h 394.35 c 1.65,0 3,-1.34 3,-3 v -295.16 c 0,-1.66 -1.35,-3.01 -3,-3.01" /><path
         id="path214"
         style="fill:#ceb78b;fill-opacity:1;fill-rule:nonzero;stroke:none"
         d="m 1767.79,2782.31 h 388.34 v 289.17 h -388.34 z m 391.35,-6 h -394.35 c -1.66,0 -3,1.35 -3,3.01 v 295.16 c 0,1.66 1.34,3 3,3 h 394.35 c 1.65,0 2.99,-1.34 2.99,-3 v -295.16 c 0,-1.66 -1.34,-3.01 -2.99,-3.01" /><path
         id="path216"
         style="fill:#ceb78b;fill-opacity:1;fill-rule:nonzero;stroke:none"
         d="m 1371.08,2782.31 h 388.35 v 289.17 h -388.35 z m 391.35,-6 h -394.34 c -1.66,0 -3,1.35 -3,3.01 v 295.16 c 0,1.66 1.34,3 3,3 h 394.34 c 1.66,0 3,-1.34 3,-3 v -295.16 c 0,-1.66 -1.34,-3.01 -3,-3.01" /><path
         id="path218"
         style="fill:#ceb78b;fill-opacity:1;fill-rule:nonzero;stroke:none"
         d="m 974.379,2782.31 h 388.341 v 289.17 H 974.379 Z m 391.341,-6 H 971.383 c -1.656,0 -3.004,1.35 -3.004,3.01 v 295.16 c 0,1.66 1.348,3 3.004,3 h 394.337 c 1.66,0 3.01,-1.34 3.01,-3 v -295.16 c 0,-1.66 -1.35,-3.01 -3.01,-3.01" /><path
         id="path220"
         style="fill:#ceb78b;fill-opacity:1;fill-rule:nonzero;stroke:none"
         d="m 3354.61,2481.24 h 388.34 v 289.17 h -388.34 z m 391.34,-6 h -394.34 c -1.66,0 -3,1.35 -3,3 v 295.17 c 0,1.66 1.34,3 3,3 h 394.34 c 1.66,0 3,-1.34 3,-3 v -295.17 c 0,-1.65 -1.34,-3 -3,-3" /><path
         id="path222"
         style="fill:#ceb78b;fill-opacity:1;fill-rule:nonzero;stroke:none"
         d="m 2957.9,2481.24 h 388.35 v 289.17 H 2957.9 Z m 391.35,-6 H 2954.9 c -1.65,0 -3,1.35 -3,3 v 295.17 c 0,1.66 1.35,3 3,3 h 394.35 c 1.66,0 3,-1.34 3,-3 v -295.17 c 0,-1.65 -1.34,-3 -3,-3" /><path
         id="path224"
         style="fill:#ceb78b;fill-opacity:1;fill-rule:nonzero;stroke:none"
         d="m 2561.2,2481.24 h 388.34 v 289.17 H 2561.2 Z m 391.34,-6 H 2558.2 c -1.66,0 -3,1.35 -3,3 v 295.17 c 0,1.66 1.34,3 3,3 h 394.34 c 1.66,0 3.01,-1.34 3.01,-3 v -295.17 c 0,-1.65 -1.35,-3 -3.01,-3" /><path
         id="path226"
         style="fill:#ceb78b;fill-opacity:1;fill-rule:nonzero;stroke:none"
         d="m 2164.5,2481.24 h 388.34 v 289.17 H 2164.5 Z m 391.34,-6 h -394.35 c -1.65,0 -2.99,1.35 -2.99,3 v 295.17 c 0,1.66 1.34,3 2.99,3 h 394.35 c 1.65,0 3,-1.34 3,-3 v -295.17 c 0,-1.65 -1.35,-3 -3,-3" /><path
         id="path228"
         style="fill:#ceb78b;fill-opacity:1;fill-rule:nonzero;stroke:none"
         d="m 1767.79,2481.24 h 388.34 v 289.17 h -388.34 z m 391.35,-6 h -394.35 c -1.66,0 -3,1.35 -3,3 v 295.17 c 0,1.66 1.34,3 3,3 h 394.35 c 1.65,0 2.99,-1.34 2.99,-3 v -295.17 c 0,-1.65 -1.34,-3 -2.99,-3" /><path
         id="path230"
         style="fill:#ceb78b;fill-opacity:1;fill-rule:nonzero;stroke:none"
         d="m 1371.08,2481.24 h 388.35 v 289.17 h -388.35 z m 391.35,-6 h -394.34 c -1.66,0 -3,1.35 -3,3 v 295.17 c 0,1.66 1.34,3 3,3 h 394.34 c 1.66,0 3,-1.34 3,-3 v -295.17 c 0,-1.65 -1.34,-3 -3,-3" /><path
         id="path232"
         style="fill:#ceb78b;fill-opacity:1;fill-rule:nonzero;stroke:none"
         d="m 974.379,2481.24 h 388.341 v 289.17 H 974.379 Z m 391.341,-6 H 971.383 c -1.656,0 -3.004,1.35 -3.004,3 v 295.17 c 0,1.66 1.348,3 3.004,3 h 394.337 c 1.66,0 3.01,-1.34 3.01,-3 v -295.17 c 0,-1.65 -1.35,-3 -3.01,-3" /><path
         id="path234"
         style="fill:#ceb78b;fill-opacity:1;fill-rule:nonzero;stroke:none"
         d="m 3354.61,2180.18 h 388.34 v 289.16 h -388.34 z m 391.34,-6.01 h -394.34 c -1.66,0 -3,1.35 -3,3.01 v 295.16 c 0,1.65 1.34,3 3,3 h 394.34 c 1.66,0 3,-1.35 3,-3 v -295.16 c 0,-1.66 -1.34,-3.01 -3,-3.01" /><path
         id="path236"
         style="fill:#4466ba;fill-opacity:1;fill-rule:nonzero;stroke:none"
         d="m 971.383,3381.46 h 394.337 v 295.16 H 971.383 v -295.16" /><path
         id="path238"
         style="fill:#394ea9;fill-opacity:1;fill-rule:nonzero;stroke:none"
         d="m 1246.19,3553.15 h 104.14 v 104.15 h -104.14 v -104.15" /><path
         id="path240"
         style="fill:#ceb78b;fill-opacity:1;fill-rule:nonzero;stroke:none"
         d="m 2957.9,2180.18 h 388.35 v 289.16 H 2957.9 Z m 391.35,-6.01 H 2954.9 c -1.65,0 -3,1.35 -3,3.01 v 295.16 c 0,1.65 1.35,3 3,3 h 394.35 c 1.66,0 3,-1.35 3,-3 v -295.16 c 0,-1.66 -1.34,-3.01 -3,-3.01" /><path
         id="path242"
         style="fill:#ceb78b;fill-opacity:1;fill-rule:nonzero;stroke:none"
         d="m 2561.2,2180.18 h 388.34 v 289.16 H 2561.2 Z m 391.34,-6.01 H 2558.2 c -1.66,0 -3,1.35 -3,3.01 v 295.16 c 0,1.65 1.34,3 3,3 h 394.34 c 1.66,0 3.01,-1.35 3.01,-3 v -295.16 c 0,-1.66 -1.35,-3.01 -3.01,-3.01" /><path
         id="path244"
         style="fill:#ceb78b;fill-opacity:1;fill-rule:nonzero;stroke:none"
         d="m 2164.5,2180.18 h 388.34 v 289.16 H 2164.5 Z m 391.34,-6.01 h -394.35 c -1.65,0 -2.99,1.35 -2.99,3.01 v 295.16 c 0,1.65 1.34,3 2.99,3 h 394.35 c 1.65,0 3,-1.35 3,-3 v -295.16 c 0,-1.66 -1.35,-3.01 -3,-3.01" /><path
         id="path246"
         style="fill:#ceb78b;fill-opacity:1;fill-rule:nonzero;stroke:none"
         d="m 1767.79,2180.18 h 388.34 v 289.16 h -388.34 z m 391.35,-6.01 h -394.35 c -1.66,0 -3,1.35 -3,3.01 v 295.16 c 0,1.65 1.34,3 3,3 h 394.35 c 1.65,0 2.99,-1.35 2.99,-3 v -295.16 c 0,-1.66 -1.34,-3.01 -2.99,-3.01" /><path
         id="path248"
         style="fill:#ceb78b;fill-opacity:1;fill-rule:nonzero;stroke:none"
         d="m 1371.08,2180.18 h 388.35 v 289.16 h -388.35 z m 391.35,-6.01 h -394.34 c -1.66,0 -3,1.35 -3,3.01 v 295.16 c 0,1.65 1.34,3 3,3 h 394.34 c 1.66,0 3,-1.35 3,-3 v -295.16 c 0,-1.66 -1.34,-3.01 -3,-3.01" /><path
         id="path250"
         style="fill:#ceb78b;fill-opacity:1;fill-rule:nonzero;stroke:none"
         d="m 974.379,2180.18 h 388.341 v 289.16 H 974.379 Z m 391.341,-6.01 H 971.383 c -1.656,0 -3.004,1.35 -3.004,3.01 v 295.16 c 0,1.65 1.348,3 3.004,3 h 394.337 c 1.66,0 3.01,-1.35 3.01,-3 v -295.16 c 0,-1.66 -1.35,-3.01 -3.01,-3.01" /><path
         id="path252"
         style="fill:#ccbda9;fill-opacity:1;fill-rule:nonzero;stroke:none"
         d="m 2636.4,3619.6 h 269.55 c 7.36,0 13.33,5.97 13.33,13.33 v 3.2 c 0,7.37 -5.97,13.33 -13.33,13.33 H 2636.4 c -7.37,0 -13.33,-5.96 -13.33,-13.33 v -3.2 c 0,-7.36 5.96,-13.33 13.33,-13.33" /><path
         id="path254"
         style="fill:#ccbda9;fill-opacity:1;fill-rule:nonzero;stroke:none"
         d="m 2762.05,3559.88 h 143.9 c 7.36,0 13.33,5.96 13.33,13.33 v 3.2 c 0,7.36 -5.97,13.33 -13.33,13.33 h -143.9 c -7.36,0 -13.33,-5.97 -13.33,-13.33 v -3.2 c 0,-7.37 5.97,-13.33 13.33,-13.33" /><path
         id="path256"
         style="fill:#ccbda9;fill-opacity:1;fill-rule:nonzero;stroke:none"
         d="m 1832.13,3309.22 h 269.55 c 7.36,0 13.33,5.97 13.33,13.33 v 3.2 c 0,7.37 -5.97,13.34 -13.33,13.34 h -269.55 c -7.36,0 -13.34,-5.97 -13.34,-13.34 v -3.2 c 0,-7.36 5.98,-13.33 13.34,-13.33" /><path
         id="path258"
         style="fill:#ccbda9;fill-opacity:1;fill-rule:nonzero;stroke:none"
         d="m 1957.78,3249.5 h 143.9 c 7.36,0 13.33,5.96 13.33,13.33 v 3.2 c 0,7.36 -5.97,13.33 -13.33,13.33 h -143.9 c -7.37,0 -13.33,-5.97 -13.33,-13.33 v -3.2 c 0,-7.37 5.96,-13.33 13.33,-13.33" /><path
         id="path260"
         style="fill:#ccbda9;fill-opacity:1;fill-rule:nonzero;stroke:none"
         d="m 2647.82,2413.6 h 269.55 c 7.37,0 13.33,5.97 13.33,13.33 v 3.21 c 0,7.36 -5.96,13.33 -13.33,13.33 h -269.55 c -7.36,0 -13.33,-5.97 -13.33,-13.33 v -3.21 c 0,-7.36 5.97,-13.33 13.33,-13.33" /><path
         id="path262"
         style="fill:#ccbda9;fill-opacity:1;fill-rule:nonzero;stroke:none"
         d="m 2773.48,2353.88 h 143.89 c 7.37,0 13.33,5.96 13.33,13.33 v 3.2 c 0,7.36 -5.96,13.33 -13.33,13.33 h -143.89 c -7.37,0 -13.33,-5.97 -13.33,-13.33 v -3.2 c 0,-7.37 5.96,-13.33 13.33,-13.33" /><path
         id="path264"
         style="fill:#ccbda9;fill-opacity:1;fill-rule:nonzero;stroke:none"
         d="m 1452.66,2413.6 h 269.55 c 7.37,0 13.33,5.97 13.33,13.33 v 3.21 c 0,7.36 -5.96,13.33 -13.33,13.33 h -269.55 c -7.36,0 -13.33,-5.97 -13.33,-13.33 v -3.21 c 0,-7.36 5.97,-13.33 13.33,-13.33" /><path
         id="path266"
         style="fill:#ccbda9;fill-opacity:1;fill-rule:nonzero;stroke:none"
         d="m 1578.31,2353.88 h 143.9 c 7.37,0 13.33,5.96 13.33,13.33 v 3.2 c 0,7.36 -5.96,13.33 -13.33,13.33 h -143.9 c -7.36,0 -13.33,-5.97 -13.33,-13.33 v -3.2 c 0,-7.37 5.97,-13.33 13.33,-13.33" /><path
         id="path268"
         style="fill:#ccbda9;fill-opacity:1;fill-rule:nonzero;stroke:none"
         d="m 3420.5,2714.87 h 269.56 c 7.36,0 13.33,5.97 13.33,13.33 v 3.21 c 0,7.36 -5.97,13.33 -13.33,13.33 H 3420.5 c -7.36,0 -13.33,-5.97 -13.33,-13.33 v -3.21 c 0,-7.36 5.97,-13.33 13.33,-13.33" /><path
         id="path270"
         style="fill:#ccbda9;fill-opacity:1;fill-rule:nonzero;stroke:none"
         d="m 3546.15,2655.15 h 143.91 c 7.36,0 13.33,5.97 13.33,13.33 v 3.2 c 0,7.36 -5.97,13.33 -13.33,13.33 h -143.91 c -7.36,0 -13.33,-5.97 -13.33,-13.33 v -3.2 c 0,-7.36 5.97,-13.33 13.33,-13.33" /><path
         id="path272"
         style="fill:#ccbda9;fill-opacity:1;fill-rule:nonzero;stroke:none"
         d="m 3034.78,3309.22 h 269.55 c 7.36,0 13.33,5.97 13.33,13.33 v 3.2 c 0,7.37 -5.97,13.34 -13.33,13.34 h -269.55 c -7.37,0 -13.33,-5.97 -13.33,-13.34 v -3.2 c 0,-7.36 5.96,-13.33 13.33,-13.33" /><path
         id="path274"
         style="fill:#ccbda9;fill-opacity:1;fill-rule:nonzero;stroke:none"
         d="m 3160.43,3249.5 h 143.9 c 7.36,0 13.33,5.96 13.33,13.33 v 3.2 c 0,7.36 -5.97,13.33 -13.33,13.33 h -143.9 c -7.36,0 -13.34,-5.97 -13.34,-13.33 v -3.2 c 0,-7.37 5.98,-13.33 13.34,-13.33" /><path
         id="path276"
         style="fill:#ccbda9;fill-opacity:1;fill-rule:nonzero;stroke:none"
         d="m 1056.98,3013.32 h 269.55 c 7.37,0 13.33,5.97 13.33,13.33 v 3.2 c 0,7.36 -5.96,13.33 -13.33,13.33 h -269.55 c -7.36,0 -13.33,-5.97 -13.33,-13.33 v -3.2 c 0,-7.36 5.97,-13.33 13.33,-13.33" /><path
         id="path278"
         style="fill:#ccbda9;fill-opacity:1;fill-rule:nonzero;stroke:none"
         d="m 1182.63,2953.59 h 143.9 c 7.37,0 13.33,5.97 13.33,13.33 v 3.2 c 0,7.37 -5.96,13.34 -13.33,13.34 h -143.9 c -7.36,0 -13.33,-5.97 -13.33,-13.34 v -3.2 c 0,-7.36 5.97,-13.33 13.33,-13.33" /><path
         id="path280"
         style="fill:#f9a61b;fill-opacity:1;fill-rule:nonzero;stroke:none"
         d="m 3349.25,3676.62 h 400.26 v 50.99 h -400.26 v -50.99" /><path
         id="path282"
         style="fill:#f46935;fill-opacity:1;fill-rule:nonzero;stroke:none"
         d="m 2952.57,3676.62 h 400.26 v 50.99 h -400.26 v -50.99" /><path
         id="path284"
         style="fill:#4466ba;fill-opacity:1;fill-rule:nonzero;stroke:none"
         d="m 2555.89,3676.62 h 400.26 v 50.99 h -400.26 v -50.99" /><path
         id="path286"
         style="fill:#f46935;fill-opacity:1;fill-rule:nonzero;stroke:none"
         d="m 2159.21,3676.62 h 400.26 v 50.99 h -400.26 v -50.99" /><path
         id="path288"
         style="fill:#f9a61b;fill-opacity:1;fill-rule:nonzero;stroke:none"
         d="m 1762.53,3676.62 h 400.26 v 50.99 h -400.26 v -50.99" /><path
         id="path290"
         style="fill:#4466ba;fill-opacity:1;fill-rule:nonzero;stroke:none"
         d="m 1365.85,3676.62 h 400.26 v 50.99 h -400.26 v -50.99" /><path
         id="path292"
         style="fill:#f9a61b;fill-opacity:1;fill-rule:nonzero;stroke:none"
         d="m 969.172,3676.62 h 400.258 v 50.99 H 969.172 v -50.99" /><path
         id="path294"
         style="fill:#f89c69;fill-opacity:1;fill-rule:nonzero;stroke:none"
         d="m 3404.41,3153.07 -0.76,-8.49 -0.77,-7.77 -1.63,-15.25 c -1.1,-10.1 -2.43,-20.1 -3.77,-30.09 -2.67,-19.98 -5.81,-39.85 -9.26,-59.72 -3.42,-19.88 -7.28,-39.73 -11.58,-59.59 -4.32,-19.87 -8.9,-39.78 -14.2,-59.7 -5.28,-19.92 -11.06,-39.89 -17.55,-59.96 -6.45,-20.08 -13.73,-40.21 -22.12,-60.5 -8.38,-20.28 -17.82,-40.74 -29.2,-61.43 -11.42,-20.72 -24.84,-41.67 -42.57,-62.68 -8.9,-10.48 -18.95,-20.97 -30.81,-31.06 -11.8,-10.08 -25.53,-19.81 -41.49,-27.97 -15.88,-8.17 -34.13,-14.61 -53.21,-17.83 -4.77,-0.8 -9.56,-1.4 -14.37,-1.81 l -7.32,-0.48 -13.81,-0.88 c -9.19,-0.54 -18.45,-1.25 -27.7,-1.94 -9.23,-0.66 -18.5,-1.39 -27.79,-2.19 -18.56,-1.38 -37.2,-2.94 -55.85,-4.58 l -56.06,-4.99 -56.22,-5.21 -56.32,-5.28 -56.08,-5.04 -0.9,-0.08 c -37.96,-3.41 -71.5,24.6 -74.91,62.56 -3.04,33.86 18.95,64.2 50.69,72.77 9.69,2.63 18.89,5.2 28.33,7.63 9.39,2.41 18.76,4.86 28.15,7.17 18.79,4.61 37.59,9.15 56.46,13.38 l 28.32,6.34 28.41,6.01 c 18.96,3.9 37.95,7.85 57.05,11.35 19.1,3.55 38.22,7.07 57.48,10.33 9.61,1.62 19.25,3.16 28.94,4.64 9.68,1.5 19.34,3.03 29.1,4.4 l 14.61,2.11 3.66,0.52 1.83,0.27 0.91,0.13 0.46,0.06 c 0.08,0.02 0.01,0.02 0.03,0.03 -0.07,0.09 -0.15,0.2 -0.23,0.24 -0.35,0.28 -0.5,0.46 0.4,1.28 1.69,1.48 7.37,6.56 13.52,15.31 6.22,8.66 12.82,20.35 19.07,33.37 6.23,13.08 12.05,27.61 17.35,42.87 10.55,30.62 19.6,63.88 27.02,98.05 3.71,17.09 7.26,34.41 10.4,51.91 3.13,17.51 6,35.17 8.71,52.89 2.65,17.74 5.02,35.58 7.24,53.38 l 3.09,26.64 1.42,13.17 1.15,12.19 0.21,2.23 c 5.31,55.89 54.92,96.91 110.81,91.6 55.9,-5.29 96.97,-54.42 91.66,-110.31" /><path
         id="path296"
         style="fill:#171118;fill-opacity:1;fill-rule:nonzero;stroke:none"
         d="m 2732.7,2694.93 c 0,0 34.18,-85.15 20.37,-136.38 0,0 26.96,-7.2 41.18,3.7 0,0 6.09,76.89 -26.84,141.9 0,0 -26.65,3.86 -34.71,-9.22" /><path
         id="path298"
         style="fill:#4a3f4b;fill-opacity:1;fill-rule:nonzero;stroke:none"
         d="m 2754.22,2610.08 c 0,0 20.79,-2.37 38.18,5.08 0.73,2.43 0.35,6.65 -0.86,10.26 0,0 -25.99,-5.64 -37.89,-5.32 0,0 -3.38,-5.99 0.57,-10.02" /><path
         id="path300"
         style="fill:#4a3f4b;fill-opacity:1;fill-rule:nonzero;stroke:none"
         d="m 2740.76,2671.87 c 0,0 18.25,8.83 37.15,7.81 1.53,-2.03 3.07,-5.58 3.16,-9.39 0,0 -26.34,-3.63 -37.4,-8.02 0,0 -5.23,4.47 -2.91,9.6" /><path
         id="path302"
         style="fill:#f4714c;fill-opacity:1;fill-rule:nonzero;stroke:none"
         d="m 3132.51,2712.32 c -2.48,0 -4.8,1.55 -5.66,4.02 -7.04,20.17 -34.74,44.66 -35.02,44.91 -2.49,2.18 -2.74,5.97 -0.55,8.46 2.19,2.49 5.98,2.74 8.47,0.55 1.23,-1.08 30.35,-26.8 38.42,-49.96 1.1,-3.13 -0.55,-6.55 -3.68,-7.64 -0.65,-0.23 -1.33,-0.34 -1.98,-0.34" /><path
         id="path304"
         style="fill:#f4714c;fill-opacity:1;fill-rule:nonzero;stroke:none"
         d="m 3148.77,2742.08 c -0.52,0 -1.06,0.08 -1.58,0.22 -0.22,0.06 -21.49,5.8 -38.4,5.8 -3.31,0 -6,2.69 -6,6 0,3.31 2.69,6 6,6 18.54,0 40.62,-5.97 41.56,-6.22 3.19,-0.88 5.08,-4.17 4.2,-7.37 -0.72,-2.67 -3.14,-4.43 -5.78,-4.43" /><path
         id="path306"
         style="fill:#f89c69;fill-opacity:1;fill-rule:nonzero;stroke:none"
         d="m 2712.23,2697.01 c 0,0 56.81,-58.3 33.27,-114.45 -19.04,-45.33 -82.7,-54.32 -106.49,-56.12 -5.69,-0.42 -9.08,-0.44 -9.08,-0.44 0,0 -1.82,-3.08 -5.03,-7.3 -7.53,-9.93 -22.73,-26.24 -40.2,-24.12 -24.9,3.02 -10.2,48.05 -10.2,48.05 0,0 -30.25,-6.33 -38.88,7.21 -8.46,13.32 7.43,40.03 7.43,40.03 0,0 -37.17,-13.95 -45.73,6.21 -12.86,30.33 32.7,39.54 35.71,40.72 -3.3,-0.27 -142.67,-12.14 -135.12,11.63 6.6,20.75 123.22,37.91 154.94,42.2 5.02,0.69 7.91,1.04 7.91,1.04 0,0 -0.03,1.67 0.12,4.49 0.61,13.4 4.86,52.78 32.45,59.51 33.35,8.14 118.9,-58.66 118.9,-58.66" /><path
         id="path308"
         style="fill:#f4714c;fill-opacity:1;fill-rule:nonzero;stroke:none"
         d="m 2611.86,2581.57 c 10.83,4.6 22.59,6.88 30.9,4.39 5.35,-1.62 8.97,-5.06 10.44,-9.97 1.01,-3.38 0.87,-7.76 -0.04,-12.61 -2.24,-12.12 -9.15,-27.13 -14.15,-36.93 -5.7,-0.44 -9.08,-0.44 -9.08,-0.44 0,0 -1.81,-3.1 -5.04,-7.33 -0.04,0.87 0.19,1.75 0.66,2.55 8.68,15.18 21.45,42.75 18.66,52.09 -0.38,1.21 -1.2,2.74 -4.17,3.66 -9.13,2.73 -28.72,-3.79 -40.27,-13.4 -1.85,-1.56 -4.53,-1.47 -6.24,0.19 -1.77,1.66 -1.96,4.36 -0.49,6.25 7.05,9.22 24.41,36.08 20.35,49.66 -0.59,1.98 -1.5,2.26 -1.98,2.38 -2.15,0.65 -5.53,-0.18 -9.46,-1.86 -7.98,-3.45 -18.21,-10.52 -24.91,-16.18 -0.79,-0.65 -1.68,-1.02 -2.61,-1.08 -1.49,-0.14 -2.98,0.41 -4.01,1.63 -1.67,1.98 -1.43,4.94 0.57,6.64 2.98,2.53 13.74,11.29 24.74,16.48 4.02,1.89 8.07,3.31 11.79,3.75 2.36,0.31 4.59,0.22 6.6,-0.37 2.83,-0.86 6.57,-3.06 8.28,-8.69 3.57,-12.02 -3.46,-28.43 -10.54,-40.81" /><path
         id="path310"
         style="fill:#f4714c;fill-opacity:1;fill-rule:nonzero;stroke:none"
         d="m 2573.59,2654.07 c 0.51,-1.86 2.07,-3.24 4,-3.43 6.09,-0.58 11.36,-2.05 14.47,-4.38 2.44,-1.87 2.7,-3.58 2.62,-4.87 -0.13,-2.08 -1.2,-4.72 -2.97,-7.67 -4.38,-7.35 -12.95,-16.72 -21.3,-24.76 0.93,0.07 1.83,0.43 2.61,1.08 6.7,5.66 16.93,12.73 24.92,16.18 0.62,0.92 1.21,1.87 1.76,2.78 1.74,2.95 3.07,5.82 3.8,8.46 0.3,1.18 0.49,2.28 0.55,3.36 0.31,5.13 -1.9,9.6 -6.36,12.93 -4.71,3.52 -11.64,5.53 -19.24,6.28 -3.24,0.32 -5.75,-2.68 -4.9,-5.81 0.02,-0.05 0.03,-0.1 0.04,-0.15" /><path
         id="path312"
         style="fill:#f4714c;fill-opacity:1;fill-rule:nonzero;stroke:none"
         d="m 2627.39,2720.39 c 0.11,-1.19 1.62,-19.46 -1.65,-37.09 -1.81,-9.77 -5.1,-19.36 -10.92,-25.73 -4.78,-5.25 -10.78,-7.94 -17.8,-7.97 -24.93,-0.11 -38.38,25.65 -44.17,41.03 5.02,0.69 7.91,1.04 7.91,1.04 0,0 -0.03,1.67 0.12,4.49 4.57,-12.93 15.89,-37.27 36.09,-37.17 4.35,0.01 7.91,1.62 10.91,4.91 11.24,12.29 11.14,44.35 10.16,55.67 -0.24,2.57 1.67,4.87 4.26,5.08 2.58,0.24 4.85,-1.69 5.09,-4.26" /><path
         id="path314"
         style="fill:#f4714c;fill-opacity:1;fill-rule:nonzero;stroke:none"
         d="m 2715.25,2618.04 c -0.3,-1.59 -1.4,-2.99 -3.03,-3.57 -2.44,-0.88 -5.14,0.4 -6.01,2.84 -4.71,13.16 -12.79,22.12 -24.05,26.64 -28.84,11.58 -69.47,-8.44 -69.88,-8.64 -2.33,-1.16 -5.14,-0.22 -6.3,2.1 -1.17,2.32 -0.23,5.14 2.1,6.3 1.81,0.91 44.86,22.1 77.58,8.96 13.86,-5.57 23.74,-16.4 29.4,-32.2 0.28,-0.81 0.34,-1.65 0.19,-2.43" /><path
         id="path316"
         style="fill:#4466ba;fill-opacity:1;fill-rule:nonzero;stroke:none"
         d="m 3201.12,3210.97 c 0,0 -50.79,-223.08 -58.44,-291.6 0,0 154.18,-80.83 189.6,-128.37 0,0 60.62,131.42 60.7,156.04 0.07,24.61 -130.24,290.91 -191.86,263.93" /><path
         id="path318"
         style="fill:#f89c69;fill-opacity:1;fill-rule:nonzero;stroke:none"
         d="m 3364.55,744.129 -13.34,-158.43 117.49,-1.797 26.71,152.219 -130.86,8.008" /><path
         id="path320"
         style="fill:#f9a61b;fill-opacity:1;fill-rule:nonzero;stroke:none"
         d="m 3076.3,399.289 429.26,2.121 c 3.16,5.82 4.86,14.051 5.52,23.86 2.51,36.332 -9.35,94.222 -15.2,130.73 -0.71,4.262 -1.32,8.25 -1.8,11.852 -0.82,6.097 -1.34,11.179 -1.36,14.91 -0.14,29.82 -26.51,24.578 -26.51,24.578 -43.22,-42.809 -92.72,20.82 -121.35,-0.27 0,0 -12.31,-8.929 -46.25,-39.761 -33.9,-30.829 -91.78,-51.34 -141.02,-72.239 -63.57,-26.941 -81.5,-53.621 -84.93,-71.961 -2.72,-14.527 3.64,-23.82 3.64,-23.82" /><path
         id="path322"
         style="fill:#ec7916;fill-opacity:1;fill-rule:nonzero;stroke:none"
         d="m 3076.3,399.289 429.26,2.121 c 3.16,5.82 4.86,14.051 5.52,23.86 l -438.42,-2.161 c -2.72,-14.527 3.64,-23.82 3.64,-23.82" /><path
         id="path324"
         style="fill:#ec7916;fill-opacity:1;fill-rule:nonzero;stroke:none"
         d="m 3461.77,401.191 12.74,0.059 c -12.79,14.48 -24.81,36.73 -23.41,68.621 1.86,42.418 27.17,71.149 44.78,86.129 -0.71,4.262 -1.32,8.25 -1.8,11.852 -18.99,-14.672 -50.95,-46.711 -53.2,-97.52 -1.33,-30.461 8.77,-53.121 20.89,-69.141" /><path
         id="path326"
         style="fill:#ffffff;fill-opacity:1;fill-rule:nonzero;stroke:none"
         d="m 3306.02,542.031 c 3.17,0.008 6.05,2.18 6.83,5.399 0.92,3.8 -1.4,7.629 -5.2,8.55 l -26.85,6.52 c -3.8,0.93 -7.63,-1.41 -8.54,-5.211 -0.93,-3.777 1.4,-7.609 5.2,-8.539 l 26.85,-6.52 c 0.57,-0.14 1.14,-0.21 1.71,-0.199" /><path
         id="path328"
         style="fill:#ffffff;fill-opacity:1;fill-rule:nonzero;stroke:none"
         d="m 3335.55,565.309 c 3.17,0.023 6.05,2.191 6.82,5.41 0.93,3.801 -1.39,7.633 -5.19,8.551 l -26.85,6.519 c -3.8,0.93 -7.63,-1.41 -8.54,-5.199 -0.93,-3.789 1.4,-7.621 5.2,-8.551 l 26.85,-6.519 c 0.56,-0.141 1.14,-0.211 1.71,-0.211" /><path
         id="path330"
         style="fill:#ffffff;fill-opacity:1;fill-rule:nonzero;stroke:none"
         d="m 3279.28,526.309 c 3.17,0.011 6.05,2.183 6.83,5.41 0.92,3.793 -1.4,7.621 -5.2,8.531 l -26.85,6.531 c -3.8,0.93 -7.62,-1.402 -8.54,-5.199 -0.93,-3.801 1.4,-7.621 5.2,-8.543 l 26.85,-6.527 c 0.57,-0.141 1.14,-0.211 1.71,-0.203" /><path
         id="path332"
         style="fill:#ffffff;fill-opacity:1;fill-rule:nonzero;stroke:none"
         d="m 3252.54,511.191 c 3.17,0.02 6.04,2.188 6.83,5.411 0.92,3.789 -1.41,7.617 -5.2,8.539 l -26.86,6.519 c -3.78,0.942 -7.61,-1.41 -8.53,-5.199 -0.93,-3.789 1.41,-7.621 5.19,-8.539 l 26.85,-6.52 c 0.58,-0.152 1.15,-0.211 1.72,-0.211" /><path
         id="path334"
         style="fill:#ffffff;fill-opacity:1;fill-rule:nonzero;stroke:none"
         d="m 3223.37,497.191 c 3.17,0.02 6.04,2.18 6.83,5.411 0.92,3.789 -1.4,7.609 -5.2,8.539 l -26.85,6.531 c -3.79,0.91 -7.62,-1.422 -8.54,-5.211 -0.93,-3.801 1.41,-7.629 5.2,-8.539 l 26.85,-6.531 c 0.58,-0.129 1.14,-0.2 1.71,-0.2" /><path
         id="path336"
         style="fill:#ffffff;fill-opacity:1;fill-rule:nonzero;stroke:none"
         d="m 3191.72,485.211 c 3.17,0.019 6.05,2.18 6.83,5.41 0.92,3.789 -1.4,7.621 -5.2,8.539 l -26.85,6.52 c -3.8,0.941 -7.62,-1.391 -8.54,-5.188 -0.93,-3.801 1.4,-7.633 5.2,-8.551 l 26.85,-6.519 c 0.57,-0.152 1.14,-0.211 1.71,-0.211" /><path
         id="path338"
         style="fill:#171118;fill-opacity:1;fill-rule:nonzero;stroke:none"
         d="m 3349.8,1674.97 c -1.92,-15.31 -3.63,-29.23 -4.87,-41.39 -0.3,-3.11 -0.61,-6.32 -0.97,-9.81 -12.84,-152.4 -1.35,-678.411 2.59,-842.829 0.2,-5.5 0.26,-10.589 0.39,-15.211 0.58,-21.921 -1.77,-54.91 -1.77,-54.91 l 157.01,-13.371 c 0,0 5.15,32.539 9.33,53.621 1.1,5.102 2.16,10.692 3.4,16.711 17.5,87.59 54.99,275.489 86.92,440.229 43.39,223.66 34.12,356.65 34.12,356.65 0,0 -8.86,53.31 24.64,182.93 27.71,107.43 146.62,437.16 180.06,550.58 6.76,22.89 -16.16,47.86 -16.16,47.86 0,0 -218.2,150.42 -291.69,83.33 -5.7,-5.24 -25.18,-55.17 -28.74,-62.56 -8.96,-18.62 -19.67,-48.93 -31.11,-86.99 -47.73,-157.94 -103.02,-451.86 -123.15,-604.84" /><path
         id="path340"
         style="fill:#4a3f4b;fill-opacity:1;fill-rule:nonzero;stroke:none"
         d="m 3493.37,758.148 c 0.02,-0.007 0.04,-0.007 0.06,-0.007 2.77,-0.411 5.36,1.519 5.76,4.3 0.6,4.129 60.61,415.139 82.12,538.489 18.13,104.03 24.43,308.18 24.79,320.41 49.15,195.96 178.74,695.56 180.04,700.58 0.72,2.73 -0.92,5.5 -3.64,6.2 -2.71,0.71 -5.49,-0.92 -6.19,-3.64 -1.31,-5.04 -131.14,-505.57 -180.21,-701.21 -0.08,-0.36 -0.13,-0.72 -0.14,-1.09 -0.06,-2.12 -6.18,-213.5 -24.67,-319.5 -21.51,-123.5 -81.55,-534.629 -82.16,-538.77 -0.4,-2.762 1.49,-5.328 4.24,-5.762" /><path
         id="path342"
         style="fill:#f89c69;fill-opacity:1;fill-rule:nonzero;stroke:none"
         d="m 3991.18,720.27 5.76,-134.571 136.91,-2.578 -9.87,126.5 -132.8,10.649" /><path
         id="path344"
         style="fill:#f9a61b;fill-opacity:1;fill-rule:nonzero;stroke:none"
         d="m 4164.84,431.27 c 0,-1.059 -0.02,-2.098 -0.05,-3.11 -0.09,-4.719 -0.3,-8.969 -0.5,-12.601 -0.48,-8.008 -1.06,-12.93 -1.06,-12.93 h -265.75 c 0,0 -1.32,10.269 -0.3,25.531 1.74,27.149 10.76,70.039 47.46,98.379 50.23,38.852 30.84,30.75 41.14,48.449 1.16,1.973 10.21,32.063 11.17,34.133 8.64,18.391 16.59,27.07 64.2,27.07 63.16,0 68.71,-30.632 75.45,-46.781 2.78,-6.691 6.6,-20.762 10.51,-37.512 1.59,-6.707 3.18,-13.878 4.75,-21.187 3.89,-18.313 7.53,-37.43 10,-52.691 2.63,-16.34 3.19,-33.168 2.98,-46.75" /><path
         id="path346"
         style="fill:#ec7916;fill-opacity:1;fill-rule:nonzero;stroke:none"
         d="m 4164.84,431.27 c 0,-1.059 -0.02,-2.098 -0.05,-3.11 -0.09,-4.719 -0.3,-8.969 -0.5,-12.601 -12.96,9.089 -22.2,21.089 -27.61,35.793 -16.45,44.777 8.84,98.527 9.9,100.808 l 0.53,-0.262 c 1.59,-6.707 3.18,-13.878 4.75,-21.187 -5.98,-18.289 -12.88,-49.02 -3.31,-75.051 3.49,-9.469 8.94,-17.621 16.29,-24.39" /><path
         id="path348"
         style="fill:#ec7916;fill-opacity:1;fill-rule:nonzero;stroke:none"
         d="m 4164.79,428.16 c -0.35,-15.129 -1.56,-25.531 -1.56,-25.531 h -265.75 c 0,0 -1.32,10.269 -0.3,25.531 h 267.61" /><path
         id="path350"
         style="fill:#ffffff;fill-opacity:1;fill-rule:nonzero;stroke:none"
         d="m 4069.92,553.352 c -0.62,0 -1.27,0.089 -1.9,0.238 -33.8,8.762 -61.34,1.351 -61.61,1.269 -4.04,-1.109 -8.21,1.25 -9.33,5.293 -1.11,4.028 1.25,8.207 5.28,9.317 1.28,0.351 31.77,8.562 69.46,-1.199 4.05,-1.04 6.48,-5.18 5.44,-9.239 -0.89,-3.41 -3.97,-5.679 -7.34,-5.679" /><path
         id="path352"
         style="fill:#ffffff;fill-opacity:1;fill-rule:nonzero;stroke:none"
         d="m 4074.29,583.969 c -0.63,0 -1.27,0.082 -1.91,0.25 -33.8,8.75 -61.34,1.351 -61.61,1.273 -4.03,-1.121 -8.21,1.25 -9.32,5.278 -1.12,4.031 1.25,8.199 5.28,9.332 1.28,0.347 31.77,8.539 69.45,-1.211 4.05,-1.051 6.49,-5.192 5.44,-9.231 -0.89,-3.422 -3.96,-5.691 -7.33,-5.691" /><path
         id="path354"
         style="fill:#ffffff;fill-opacity:1;fill-rule:nonzero;stroke:none"
         d="m 4058.55,529.352 c -0.62,0 -1.26,0.07 -1.9,0.238 -33.58,8.699 -61.35,1.34 -61.62,1.269 -4.03,-1.097 -8.2,1.27 -9.31,5.301 -1.1,4.031 1.25,8.199 5.29,9.309 1.27,0.351 31.76,8.551 69.44,-1.199 4.05,-1.059 6.49,-5.188 5.44,-9.239 -0.88,-3.422 -3.96,-5.679 -7.34,-5.679" /><path
         id="path356"
         style="fill:#ffffff;fill-opacity:1;fill-rule:nonzero;stroke:none"
         d="m 4045.2,502.051 c -0.63,0 -1.26,0.078 -1.9,0.238 -33.58,8.703 -61.35,1.34 -61.63,1.262 -4.03,-1.102 -8.19,1.281 -9.31,5.308 -1.1,4.032 1.26,8.192 5.29,9.313 1.28,0.359 31.76,8.547 69.45,-1.211 4.05,-1.039 6.48,-5.18 5.43,-9.242 -0.88,-3.399 -3.96,-5.668 -7.33,-5.668" /><path
         id="path358"
         style="fill:#171118;fill-opacity:1;fill-rule:nonzero;stroke:none"
         d="m 3796.14,2239.23 c 8.13,-1.82 16.3,-3.55 24.49,-5.21 104.86,-21.21 214.92,-29.79 291.94,-13.5 38.02,8.03 62.32,49.25 77.8,95.27 4.22,12.57 7.78,25.5 10.79,38.22 12.99,54.95 15.47,105.82 15.47,105.82 l -608.6,132.38 c 0,0 -18.85,-30.74 -39.77,-70.81 -15.15,-29.02 -31.38,-62.9 -42.35,-93.57 -0.02,-0.02 -0.02,-0.06 -0.05,-0.08 -6.54,-18.34 -11.2,-35.51 -12.6,-49.77 -4.5,-45.58 130.3,-104.79 282.88,-138.75" /><path
         id="path360"
         style="fill:#171118;fill-opacity:1;fill-rule:nonzero;stroke:none"
         d="m 3838.24,1617.39 c 0.48,-15.42 0.95,-29.42 1.61,-41.64 0.19,-3.11 0.38,-6.34 0.57,-9.83 10.98,-152.56 104,-670.389 133.44,-832.221 1.03,-5.39 1.89,-10.41 2.74,-14.949 3.98,-21.578 6.24,-33.789 6.24,-33.789 l 157.19,11.168 c 0,0 0.57,12.211 1.42,33.691 0.29,5.211 0.47,10.879 0.76,17.039 3.69,89.231 11.54,280.681 17.51,448.371 8.13,227.69 -21.67,357.62 -21.67,357.62 0,0 -17.03,51.3 -4.08,184.54 10.7,110.44 48.65,461.82 64.08,579.07 3.11,23.66 4.91,37.57 4.91,37.57 0,0 -246.61,69.37 -308.79,-8.33 -4.82,-6.05 -8.61,-13.05 -10.98,-20.91 -5.95,-19.78 -11.82,-51.39 -17.21,-90.76 -22.63,-163.43 -31.62,-462.38 -27.74,-616.64" /><path
         id="path362"
         style="fill:#4a3f4b;fill-opacity:1;fill-rule:nonzero;stroke:none"
         d="m 3973.89,733.68 c 0.97,-5.371 1.89,-10.348 2.72,-14.891 l 164.86,11.051 c 0.22,5.148 0.45,10.832 0.72,17.019 l -168.3,-13.179" /><path
         id="path364"
         style="fill:#4a3f4b;fill-opacity:1;fill-rule:nonzero;stroke:none"
         d="m 4122.43,733.988 c 0.02,0 0.04,0 0.06,0 2.8,0.032 5.05,2.344 5.02,5.141 -0.04,4.18 -4.58,419.511 -2.49,544.711 1.76,105.58 -23.72,308.24 -25.26,320.38 18.13,201.22 68.56,714.87 69.07,720.05 0.27,2.79 -1.77,5.27 -4.56,5.55 -2.79,0.27 -5.29,-1.76 -5.56,-4.57 -0.51,-5.17 -51.03,-519.8 -69.13,-720.68 -0.03,-0.36 -0.02,-0.73 0.03,-1.09 0.26,-2.11 27.03,-211.88 25.24,-319.47 -2.09,-125.33 2.45,-540.811 2.5,-544.99 0.03,-2.79 2.3,-5.032 5.08,-5.032" /><path
         id="path366"
         style="fill:#f9a61b;fill-opacity:1;fill-rule:nonzero;stroke:none"
         d="m 4108.07,2245.34 c -0.42,0 -0.84,0 -1.26,0.01 -91.67,1.66 -94.07,175.26 -94.12,182.65 -0.02,2.76 2.19,5.02 4.96,5.04 0.01,0 0.03,0 0.04,0 2.74,0 4.98,-2.22 5,-4.96 0.01,-1.71 2.31,-171.24 84.29,-172.73 15.05,-0.4 27.83,5.17 38.22,16.63 45.66,50.35 29.36,195.31 29.18,196.78 -0.31,2.74 1.65,5.22 4.4,5.55 2.7,0.28 5.22,-1.65 5.55,-4.4 0.71,-6.13 16.96,-150.96 -31.71,-204.65 -11.99,-13.22 -26.98,-19.92 -44.55,-19.92" /><path
         id="path368"
         style="fill:#4a3f4b;fill-opacity:1;fill-rule:nonzero;stroke:none"
         d="m 3346.58,780.91 c 0.13,-5.461 0.27,-10.519 0.38,-15.14 l 164.58,-14.68 c 1.01,5.051 2.13,10.629 3.34,16.699 l -168.3,13.121" /><path
         id="path370"
         style="fill:#4a3f4b;fill-opacity:1;fill-rule:nonzero;stroke:none"
         d="m 3844.05,2238.27 c 1.82,0.2 3.47,1.39 4.18,3.2 1.02,2.62 -0.28,5.57 -2.9,6.59 -0.81,0.32 -57.49,23.26 -75.24,85.06 -0.78,2.71 -3.6,4.27 -6.29,3.49 -2.71,-0.77 -4.26,-3.59 -3.49,-6.29 19.23,-66.91 78.81,-90.76 81.34,-91.74 0.79,-0.31 1.61,-0.41 2.4,-0.31" /><path
         id="path372"
         style="fill:#4466ba;fill-opacity:1;fill-rule:nonzero;stroke:none"
         d="m 4221.98,2456.13 c -2.2,-71.49 -713.55,-108.72 -727.7,10.99 -25,211.68 -40.83,235.67 -100.16,344.11 -6.51,11.9 -13.57,24.81 -21.18,39.1 -2.19,4.06 -4.4,8.22 -6.66,12.5 -5.49,10.39 -10.93,20.51 -16.33,30.4 -7.36,13.45 -14.64,26.43 -21.8,39.03 -9.48,16.78 -18.78,32.8 -27.71,48.16 -7.87,13.5 -15.45,26.45 -22.73,38.93 -42.8,73.55 -73.91,130.07 -77.91,177.13 -5.23,61.68 149.06,186.26 149.06,186.26 l 163.58,112.03 c 0,0 186.61,21.96 267.5,-4.95 109.37,-36.41 202.35,-353.05 264.91,-495.14 62.54,-142.1 179.32,-467.07 177.13,-538.55" /><path
         id="path374"
         style="fill:#394ea9;fill-opacity:1;fill-rule:nonzero;stroke:none"
         d="m 3783.44,2446.97 c -178.33,0 -286.43,31.05 -288.19,31.57 -2.65,0.78 -4.16,3.56 -3.38,6.21 0.79,2.64 3.6,4.12 6.22,3.37 2.89,-0.84 293.37,-84.11 710.64,25.05 2.7,0.69 5.4,-0.9 6.1,-3.57 0.71,-2.67 -0.89,-5.41 -3.56,-6.1 -165.72,-43.35 -311.68,-56.53 -427.83,-56.53" /><path
         id="path376"
         style="fill:#394ea9;fill-opacity:1;fill-rule:nonzero;stroke:none"
         d="m 3850.42,3165.75 c -207.08,-106.28 -464.93,-167.08 -549.98,-185.33 -7.87,13.5 -15.45,26.45 -22.73,38.93 64.09,13.22 337.35,73.71 553.17,184.48 10.54,5.39 23.42,1.23 28.81,-9.27 5.4,-10.51 1.24,-23.42 -9.27,-28.81" /><path
         id="path378"
         style="fill:#394ea9;fill-opacity:1;fill-rule:nonzero;stroke:none"
         d="m 3886.17,3075.57 c -196.9,-101.05 -439.72,-161.02 -536.22,-182.34 -7.36,13.45 -14.64,26.43 -21.8,39.03 83.89,18.02 336.37,77.63 538.48,181.36 10.51,5.4 23.39,1.26 28.79,-9.25 5.39,-10.52 1.26,-23.41 -9.25,-28.8" /><path
         id="path380"
         style="fill:#394ea9;fill-opacity:1;fill-rule:nonzero;stroke:none"
         d="m 3922.16,2991.73 c -191.56,-98.31 -426.57,-157.71 -528.04,-180.5 -6.51,11.9 -13.57,24.81 -21.18,39.1 91.63,20.08 334.22,79.17 529.68,179.48 10.5,5.4 23.39,1.23 28.79,-9.27 5.39,-10.51 1.26,-23.41 -9.25,-28.81" /><path
         id="path382"
         style="fill:#394ea9;fill-opacity:1;fill-rule:nonzero;stroke:none"
         d="m 3352.48,2883.84 c -1.59,0 -3.15,0.8 -4.05,2.26 -4.83,7.82 -118.2,192.59 -122.95,291.32 -0.13,2.62 1.89,4.85 4.52,4.98 2.56,0.12 4.85,-1.9 4.98,-4.52 4.64,-96.29 120.37,-284.89 121.54,-286.79 1.38,-2.23 0.69,-5.16 -1.55,-6.54 -0.77,-0.48 -1.64,-0.71 -2.49,-0.71" /><path
         id="path384"
         style="fill:#394ea9;fill-opacity:1;fill-rule:nonzero;stroke:none"
         d="m 4145.15,2490.16 c 3.16,0.6 5.28,3.62 4.74,6.82 -22.95,136.13 -71.35,269.08 -147.96,406.46 -86.68,155.43 -148.94,403.66 -149.57,406.14 -0.79,3.19 -3.98,5.15 -7.19,4.34 -3.19,-0.8 -5.13,-4.02 -4.34,-7.2 0.62,-2.51 63.27,-252.24 150.72,-409.07 75.94,-136.17 123.91,-267.87 146.62,-402.65 0.55,-3.23 3.62,-5.41 6.85,-4.87 0.04,0.01 0.08,0.02 0.13,0.03" /><path
         id="path386"
         style="fill:#394ea9;fill-opacity:1;fill-rule:nonzero;stroke:none"
         d="m 3864.74,2686.46 c -59.74,-11.35 -129.68,-7.14 -206.9,12.84 -90.22,23.35 -159.65,60.37 -160.33,60.74 -2.98,1.6 -4.09,5.3 -2.49,8.28 1.59,2.97 5.29,4.08 8.27,2.49 0.68,-0.37 69,-36.78 157.87,-59.74 81.41,-21.04 197.28,-34.79 286.92,19.19 2.89,1.74 6.65,0.8 8.38,-2.09 1.74,-2.89 0.82,-6.65 -2.08,-8.38 -26.39,-15.9 -56.44,-27.02 -89.64,-33.33" /><path
         id="path388"
         style="fill:#394ea9;fill-opacity:1;fill-rule:nonzero;stroke:none"
         d="m 3872.17,2581.67 c -63.65,-12.1 -120.06,-4.89 -158.9,4.51 -51.17,12.37 -82.94,30.64 -84.27,31.41 -2.92,1.69 -3.9,5.43 -2.21,8.35 1.7,2.92 5.44,3.91 8.36,2.22 1.25,-0.72 126.54,-71.79 275.28,-24.19 3.19,1.02 6.66,-0.74 7.68,-3.96 1.03,-3.21 -0.74,-6.65 -3.95,-7.68 -14.26,-4.56 -28.3,-8.06 -41.99,-10.66" /><path
         id="path390"
         style="fill:#394ea9;fill-opacity:1;fill-rule:nonzero;stroke:none"
         d="m 3473.96,3326.77 c -53.37,-10.14 -102.71,16.32 -104.98,17.56 -2.95,1.62 -4.05,5.33 -2.43,8.29 1.61,2.97 5.33,4.05 8.29,2.44 0.8,-0.44 56.91,-30.32 110.49,-12.77 30.65,10.03 54.9,33.66 72.1,70.23 1.44,3.06 5.08,4.37 8.13,2.93 3.05,-1.44 4.37,-5.08 2.93,-8.13 -18.71,-39.78 -45.43,-65.57 -79.45,-76.68 -5.03,-1.64 -10.08,-2.92 -15.08,-3.87" /><path
         id="path392"
         style="fill:#171118;fill-opacity:1;fill-rule:nonzero;stroke:none"
         d="m 3190.21,3601.65 c 0,0 -39.74,17.83 -50.98,52.9 -11.25,35.07 10.61,51.83 10.61,51.83 0,0 -89.81,9.27 -88.11,48.54 1.7,39.26 64.85,20.34 64.85,20.34 0,0 -62.46,45.4 -21.66,65.76 40.8,20.35 93.36,-1.73 93.36,-1.73 0,0 13.08,38.13 77.43,37.12 64.35,-1 78.77,-16.59 78.77,-16.59 0,0 41.44,39.95 69.51,22.38 28.08,-17.58 -17.22,-46.8 -17.22,-46.8 0,0 81.3,8.58 72.65,-18.26 -8.64,-26.84 -46.77,-26.08 -46.77,-26.08 0,0 69.74,-47.32 63.89,-142.72 -5.85,-95.39 -30.68,-99.54 -30.68,-99.54 0,0 -162.39,130.35 -275.65,52.85" /><path
         id="path394"
         style="fill:#f4714c;fill-opacity:1;fill-rule:nonzero;stroke:none"
         d="m 3249.74,3599.91 c 0,0 -34.01,37.23 -64.93,10.86 -30.91,-26.38 22.44,-145.15 88.31,-110.19 l -23.38,99.33" /><path
         id="path396"
         style="fill:#f89c69;fill-opacity:1;fill-rule:nonzero;stroke:none"
         d="m 3518.61,3495.99 c 0,0 17.51,-34.07 -37.25,-85.9 -38.93,-36.86 -65.03,-34.54 -91.8,-33.14 -10.89,0.56 -17.61,1.83 -17.61,1.83 -14.99,54.37 -40,81.69 -46.38,87.99 -0.98,0.96 -1.52,1.43 -1.52,1.43 l 124.39,171 70.17,-143.21" /><path
         id="path398"
         style="fill:#171118;fill-opacity:1;fill-rule:nonzero;stroke:none"
         d="m 3458.95,3560.9 c 0,0 17.43,-131.96 -69.39,-183.95 -10.89,0.56 -17.61,1.83 -17.61,1.83 -14.99,54.37 -40,81.69 -46.38,87.99 l 133.38,94.13" /><path
         id="path400"
         style="fill:#f89c69;fill-opacity:1;fill-rule:nonzero;stroke:none"
         d="m 3423.99,3469.06 c -62.56,-48.85 -133.1,-47.16 -170.04,9.02 -8.92,13.53 -20.26,33.92 -31.55,55.45 -0.12,0.22 -0.22,0.43 -0.34,0.65 -2.39,4.57 -4.79,9.22 -7.19,13.84 -1.73,3.36 -3.43,6.72 -5.12,10.06 -19.62,38.65 -36.31,74.23 -36.31,74.23 -38.79,101.04 38.03,185.08 132.65,187.34 94.61,2.23 124.71,-129.43 153.47,-186.58 28.79,-57.15 18.1,-122.13 -35.57,-164.01" /><path
         id="path402"
         style="fill:#171118;fill-opacity:1;fill-rule:nonzero;stroke:none"
         d="m 3310.15,3650.61 c 3.2,-6.63 2.36,-13.66 -1.87,-15.7 -4.24,-2.05 -10.26,1.66 -13.47,8.29 -3.19,6.62 -2.36,13.66 1.88,15.7 4.24,2.05 10.26,-1.67 13.46,-8.29" /><path
         id="path404"
         style="fill:#171118;fill-opacity:1;fill-rule:nonzero;stroke:none"
         d="m 3238.3,3611.39 c 3.19,-6.62 2.36,-13.66 -1.87,-15.7 -4.23,-2.05 -10.27,1.67 -13.46,8.29 -3.2,6.63 -2.36,13.66 1.86,15.7 4.24,2.05 10.27,-1.67 13.47,-8.29" /><path
         id="path406"
         style="fill:#ffffff;fill-opacity:1;fill-rule:nonzero;stroke:none"
         d="m 3350.17,3590.8 c 0,0 10.63,-42.93 -15.42,-66.65 -29.66,-27 -62.65,10.58 -62.65,10.58 l 78.07,56.07" /><path
         id="path408"
         style="fill:#f4714c;fill-opacity:1;fill-rule:nonzero;stroke:none"
         d="m 3333.82,3503.04 c -1.75,-0.5 -2.9,-0.68 -3.1,-0.71 -2.25,-0.34 -4.36,1.21 -4.7,3.47 -0.35,2.26 1.19,4.37 3.46,4.71 0.66,0.11 15.34,2.62 20.12,16.99 0.71,2.17 3.06,3.34 5.22,2.62 2.18,-0.72 3.35,-3.06 2.63,-5.23 -4.95,-14.89 -17.7,-20.17 -23.63,-21.85" /><path
         id="path410"
         style="fill:#171118;fill-opacity:1;fill-rule:nonzero;stroke:none"
         d="m 3185.95,3606.18 c 0,0 -6.96,34.98 -20.25,71 -4.4,11.94 7.09,27.32 17.13,35.13 4.08,3.18 8.62,5.68 13.22,6.29 15.09,2.01 24.93,-11.58 39.32,3.18 14.41,14.76 22.2,51.47 55.41,54.77 33.22,3.31 33.16,-17.75 53.4,-31.08 20.25,-13.33 25.24,-55.42 51.39,-73.17 26.13,-17.75 21.12,69.64 21.12,69.64 0,0 -60.72,113.58 -147.49,94.51 -86.77,-19.07 -153.2,-118.91 -83.25,-230.27" /><path
         id="path412"
         style="fill:#f4714c;fill-opacity:1;fill-rule:nonzero;stroke:none"
         d="m 3405.5,3644.14 c 3.11,-7.28 -9.01,-19.45 -27.07,-27.19 -18.07,-7.74 -35.24,-8.11 -38.35,-0.84 -3.12,7.28 8.99,19.45 27.06,27.19 18.06,7.74 35.23,8.12 38.36,0.84" /><path
         id="path414"
         style="fill:#f4714c;fill-opacity:1;fill-rule:nonzero;stroke:none"
         d="m 3230.75,3536.61 c -2.8,-1.21 -5.61,-2.24 -8.35,-3.08 -0.12,0.22 -0.22,0.43 -0.34,0.65 -2.39,4.57 -4.79,9.22 -7.19,13.84 -1.73,3.36 -3.43,6.72 -5.12,10.06 2.98,1.73 6.25,3.39 9.72,4.88 18.07,7.74 35.23,8.11 38.34,0.84 3.13,-7.27 -8.99,-19.45 -27.06,-27.19" /><path
         id="path416"
         style="fill:#171118;fill-opacity:1;fill-rule:nonzero;stroke:none"
         d="m 3295.31,3560.92 c -0.54,-0.24 -1.16,-0.33 -1.79,-0.25 -21.22,2.61 -27.14,6.72 -28.12,7.52 -0.91,0.75 -1.39,1.9 -1.26,3.07 l 4.87,45.79 c 0.02,0.13 0.04,0.27 0.07,0.4 1.88,8.22 -3.37,20.5 -9.89,34.53 -0.81,1.75 -0.05,3.83 1.7,4.64 1.78,0.79 3.83,0.05 4.64,-1.69 7.03,-15.11 12.65,-28.47 10.42,-38.82 l -4.61,-43.29 c 2.66,-1.19 9.27,-3.52 23.02,-5.22 1.92,-0.23 3.28,-1.98 3.04,-3.89 -0.15,-1.28 -0.98,-2.31 -2.09,-2.79" /><path
         id="path418"
         style="fill:#f89c69;fill-opacity:1;fill-rule:nonzero;stroke:none"
         d="m 3405.76,3704.28 c 0,0 3.52,42.17 44.13,43.26 40.63,1.09 80.49,-122.86 8.15,-140.97 l -52.28,97.71" /><path
         id="path420"
         style="fill:#171118;fill-opacity:1;fill-rule:nonzero;stroke:none"
         d="m 3450.23,3653.7 c -0.22,-0.1 -0.46,-0.17 -0.72,-0.22 -1.89,-0.36 -3.72,0.88 -4.08,2.77 -0.31,1.62 -7.24,39.79 20.46,60.05 1.55,1.14 3.74,0.81 4.88,-0.75 1.14,-1.56 0.8,-3.74 -0.75,-4.88 -24.18,-17.69 -17.79,-52.75 -17.73,-53.1 0.32,-1.65 -0.57,-3.24 -2.06,-3.87" /><path
         id="path422"
         style="fill:#171118;fill-opacity:1;fill-rule:nonzero;stroke:none"
         d="m 3472.88,3678.33 c -0.81,-0.35 -1.74,-0.4 -2.63,-0.05 -0.08,0.03 -9.32,3.56 -19.68,6.49 -1.86,0.53 -2.94,2.46 -2.42,4.32 0.53,1.85 2.46,2.93 4.32,2.4 10.67,-3.02 19.89,-6.54 20.28,-6.69 1.81,-0.69 2.71,-2.71 2.02,-4.51 -0.36,-0.92 -1.05,-1.61 -1.89,-1.96" /><path
         id="path424"
         style="fill:#171118;fill-opacity:1;fill-rule:nonzero;stroke:none"
         d="m 3278.39,3716.33 c 0,0 24.19,15.34 43.66,4.71 17.92,-9.79 4.03,-22 -4.41,-19.85 -10.87,2.76 -20.27,2.05 -32.76,-2.14 -12.49,-4.18 -15.91,11.99 -6.49,17.28" /><path
         id="path426"
         style="fill:#171118;fill-opacity:1;fill-rule:nonzero;stroke:none"
         d="m 3211.61,3683.13 c 0,0 -26.58,-10.63 -29.36,-32.64 -2.55,-20.26 15.46,-16.15 18.67,-8.04 4.13,10.43 10.19,17.63 20.91,25.31 10.7,7.68 -0.4,19.91 -10.22,15.37" /><path
         id="path428"
         style="fill:#ffffff;fill-opacity:1;fill-rule:nonzero;stroke:none"
         d="m 3448.07,3222.88 c -20.17,0 -37.49,7.06 -51.57,21.01 -44.62,44.27 -41.38,142.69 -41.23,146.86 0.12,2.75 2.41,4.99 5.19,4.8 2.76,-0.1 4.91,-2.43 4.81,-5.18 -0.04,-0.98 -3.22,-98.23 38.29,-139.39 12.94,-12.83 29.22,-18.92 48.15,-18.02 92.19,4.26 92.67,258.65 92.66,261.22 -0.01,2.76 2.23,5.01 4.99,5.01 h 0.01 c 2.76,0 4.99,-2.23 5,-4.99 0.03,-10.87 -0.53,-266.53 -102.19,-271.23 -1.39,-0.06 -2.76,-0.09 -4.11,-0.09" /><path
         id="path430"
         style="fill:#f89c69;fill-opacity:1;fill-rule:nonzero;stroke:none"
         d="m 4019.38,3322.76 174.49,-153.29 87.47,-76.91 c 14.68,-13.02 29.09,-25.78 44.33,-39.63 l 5.77,-5.23 2.92,-2.67 3.78,-3.55 7.7,-7.31 3.69,-3.78 0.91,-0.97 0.71,-0.78 1.35,-1.51 2.6,-2.98 2.12,-2.56 c 1.49,-1.8 2.56,-3.22 3.77,-4.76 1.24,-1.58 2.19,-2.9 3.24,-4.31 1.07,-1.43 2.01,-2.74 2.93,-4.04 l 2.72,-3.86 c 3.53,-5.07 6.6,-9.75 9.64,-14.42 11.88,-18.46 22.12,-35.8 32.25,-53.2 10.05,-17.37 19.76,-34.6 29.33,-51.81 9.56,-17.22 18.97,-34.41 28.29,-51.6 l 27.82,-51.51 c 18.41,-34.33 36.53,-68.73 54.61,-103.12 18.1,-34.38 36.05,-68.79 53.88,-103.42 20.52,-39.85 4.85,-88.78 -35,-109.3 -38.58,-19.86 -85.68,-5.81 -107.25,31.27 l -0.15,0.24 c -19.19,33.11 -38.62,66.24 -58.16,99.24 -19.58,32.99 -39.42,65.81 -59.32,98.48 -19.9,32.66 -40.04,65.12 -60.42,97.01 -10.18,15.94 -20.41,31.75 -30.67,47.21 -10.23,15.38 -20.64,30.67 -30.52,44.08 -2.43,3.28 -4.86,6.52 -7.04,9.23 l -1.58,1.96 c -0.53,0.64 -1.03,1.26 -1.46,1.72 -0.43,0.5 -0.93,1.1 -1.22,1.39 -0.32,0.33 -0.73,0.81 -0.82,0.83 l -0.23,0.19 c -0.02,0.01 0.12,-0.21 0.18,-0.29 l 0.13,-0.17 0.37,-0.44 c 0.37,-0.41 0.75,-0.82 1.15,-1.2 0.17,-0.16 0.06,-0.08 -0.01,-0.02 l -0.21,0.15 -0.41,0.32 -0.82,0.62 -1.63,1.27 -9.45,7.45 c -14.17,11.14 -29.53,22.95 -44.59,34.52 -30.37,23.25 -61,46.57 -91.73,69.75 l -92.46,69.4 -92.87,68.92 -0.15,0.11 c -49.44,36.7 -59.78,106.53 -23.08,155.97 36.69,49.44 106.51,59.78 155.97,23.09 2.41,-1.8 4.91,-3.83 7.13,-5.78" /><path
         id="path432"
         style="fill:#f4714c;fill-opacity:1;fill-rule:nonzero;stroke:none"
         d="m 4217.14,2893.65 c -1.38,0 -2.76,0.47 -3.89,1.43 -2.52,2.15 -2.82,5.94 -0.67,8.46 1.04,1.24 26.02,30.45 50.54,49.55 2.61,2.04 6.39,1.57 8.42,-1.04 2.04,-2.62 1.57,-6.39 -1.04,-8.43 -23.55,-18.33 -48.54,-47.57 -48.79,-47.86 -1.18,-1.39 -2.87,-2.11 -4.57,-2.11" /><path
         id="path434"
         style="fill:#f4714c;fill-opacity:1;fill-rule:nonzero;stroke:none"
         d="m 4217.16,2894.66 c -3.26,0 -5.94,2.62 -6,5.9 -0.35,20.72 4.41,54.04 4.61,55.45 0.47,3.28 3.52,5.55 6.79,5.08 3.28,-0.47 5.55,-3.51 5.09,-6.79 -0.05,-0.34 -4.82,-33.78 -4.49,-53.54 0.05,-3.31 -2.58,-6.04 -5.89,-6.1 -0.04,0 -0.07,0 -0.11,0" /><path
         id="path436"
         style="fill:#4466ba;fill-opacity:1;fill-rule:nonzero;stroke:none"
         d="m 3715.99,3223.87 213.17,-150.07 c 0,0 129.31,102.69 139.66,225.33 0,0 -184.22,157.08 -252.38,172.91 -43,9.99 -73.41,1.13 -92.75,-10.3 -88.19,-52.12 -91.48,-178.9 -7.7,-237.87" /><path
         id="path438"
         style="fill:#394ea9;fill-opacity:1;fill-rule:nonzero;stroke:none"
         d="m 3913.46,3077.92 c -0.54,0.13 -1.08,0.33 -1.59,0.62 -107.56,59.23 -229.38,159.36 -230.59,160.36 -2.61,2.15 -2.98,6.01 -0.83,8.61 2.15,2.61 6.01,2.98 8.61,0.83 1.21,-1 122.16,-100.41 228.71,-159.08 2.97,-1.63 4.05,-5.35 2.42,-8.32 -1.35,-2.45 -4.14,-3.61 -6.73,-3.02" /><path
         id="path440"
         style="fill:#394ea9;fill-opacity:1;fill-rule:nonzero;stroke:none"
         d="m 3683.83,3195.23 c -2.45,0.57 -4.4,2.61 -4.72,5.25 -0.39,3.36 2,6.4 5.36,6.8 l 46.76,5.56 c 3.36,0.4 6.4,-2 6.8,-5.35 0.4,-3.36 -2,-6.41 -5.35,-6.81 l -46.76,-5.55 c -0.72,-0.09 -1.43,-0.05 -2.09,0.1" /><path
         id="path442"
         style="fill:#f46935;fill-opacity:1;fill-rule:nonzero;stroke:none"
         d="M 4321.85,2725.88 4100.04,565.781 4369.31,538.129 4591.1,2698.23 4321.85,2725.88" /><path
         id="path444"
         style="fill:#e3481e;fill-opacity:1;fill-rule:nonzero;stroke:none"
         d="M 4526.8,2704.84 4305,544.742 l 17.95,-1.851 221.8,2160.099 -17.95,1.85" /><path
         id="path446"
         style="fill:#e3481e;fill-opacity:1;fill-rule:nonzero;stroke:none"
         d="m 4447.5,2712.98 -221.81,-2160.101 17.96,-1.84 221.8,2160.091 -17.95,1.85" /><path
         id="path448"
         style="fill:#e3481e;fill-opacity:1;fill-rule:nonzero;stroke:none"
         d="m 4368.22,2721.12 -221.79,-2160.089 17.94,-1.851 221.8,2160.09 -17.95,1.85" /><path
         id="path450"
         style="fill:#171118;fill-opacity:1;fill-rule:nonzero;stroke:none"
         d="m 4111.64,678.738 -11.6,-112.957 269.27,-27.652 11.6,112.961 -269.27,27.648" /><path
         id="path452"
         style="fill:#f46935;fill-opacity:1;fill-rule:nonzero;stroke:none"
         d="m 4369.31,538.129 -3.3,-32.137 c -7.64,-74.363 -74.11,-128.441 -148.46,-120.801 v 0 c -74.36,7.618 -128.45,74.09 -120.81,148.45 l 3.3,32.14 269.27,-27.652" /><path
         id="path454"
         style="fill:#f89c69;fill-opacity:1;fill-rule:nonzero;stroke:none"
         d="m 4321.85,2725.88 269.25,-27.65 -61.4,189 -12.77,39.32 -36.1,111.07 -54.23,-106.33 -21.12,-41.42 -83.63,-163.99" /><path
         id="path456"
         style="fill:#f4714c;fill-opacity:1;fill-rule:nonzero;stroke:none"
         d="m 4329.57,2735.03 c -0.92,0 -1.86,0.21 -2.72,0.66 -2.95,1.5 -4.13,5.12 -2.62,8.07 l 92.55,181.46 c 1.5,2.95 5.11,4.13 8.06,2.62 2.96,-1.5 4.13,-5.12 2.63,-8.07 l -92.56,-181.46 c -1.05,-2.08 -3.16,-3.28 -5.34,-3.28" /><path
         id="path458"
         style="fill:#e3481e;fill-opacity:1;fill-rule:nonzero;stroke:none"
         d="m 4426.6,2931.29 c 11.33,-4.95 25.26,-8.9 42.22,-10.64 20.24,-2.08 36,0.86 48.11,5.9 l -36.1,111.07 -54.23,-106.33" /><path
         id="path460"
         style="fill:#f89c69;fill-opacity:1;fill-rule:nonzero;stroke:none"
         d="m 4627.8,2544 c 0,0 -17.1,-125.6 -67.8,-127.8 -49.5,-2.1 -77.9,7.7 -82,23.4 -2.5,10.2 44.9,23 50.7,24.6 -6.9,-0.2 -71.6,-2.4 -75.2,26.1 -3.4,26.4 61.4,15.8 69.5,14.4 -8.3,2.1 -74.9,19.8 -73,37.9 2.3,22 78.2,22.8 88.9,22.8 -9.7,0.1 -80.2,2.2 -72.4,32.9 3.8,14.4 69.5,15.2 88.5,15.2 17.4,0.1 26.5,3.1 27.9,3.6 h 0.1 c 0.1,0.1 0.1,0.1 0.1,0.1 0.3,3.4 0.7,6.7 1,9.8 1.5,15.1 2.9,28.4 5.7,55.2 0,0 34,-18.5 36.4,-53.4 2.8,-42 1.6,-84.8 1.6,-84.8" /><path
         id="path462"
         style="fill:#f4714c;fill-opacity:1;fill-rule:nonzero;stroke:none"
         d="m 4610.4,2619.6 c -6.3,-2.1 -16.3,-2.6 -24.1,-2.6 -1.2,0 -2.3,0 -3.3,0.1 0.1,0.1 0.1,0.1 0.1,0.1 0.3,3.4 0.7,6.7 1,9.8 7.7,0 17.9,0.3 23.1,2.1 2.6,0.8 5.4,-0.6 6.3,-3.2 0.9,-2.6 -0.5,-5.5 -3.1,-6.3" /><path
         id="path464"
         style="fill:#4466ba;fill-opacity:1;fill-rule:nonzero;stroke:none"
         d="m 1147.28,587.73 -80.36,-78.468 -76.69,-74.891 c -6.503,-6.5 -14.175,-11.601 -22.531,-15.051 -8.347,-3.461 -17.355,-5.281 -26.57,-5.281 -61.852,0 -92.836,74.801 -49.086,118.531 l 59.773,59.801 62.014,62.051 133.45,-66.692" /><path
         id="path466"
         style="fill:#4466ba;fill-opacity:1;fill-rule:nonzero;stroke:none"
         d="m 1908.34,414.039 c -9.2,0 -18.24,1.82 -26.57,5.281 -8.34,3.45 -16.01,8.551 -22.53,15.051 l -76.69,74.891 -80.36,78.468 133.44,66.692 62.02,-62.051 59.79,-59.801 c 43.74,-43.73 12.76,-118.531 -49.1,-118.531" /><path
         id="path468"
         style="fill:#394ea9;fill-opacity:1;fill-rule:nonzero;stroke:none"
         d="m 1013.83,654.422 133.45,-66.692 -80.36,-78.468 c -41.16,23.867 -79.693,51.758 -115.104,83.109 l 62.014,62.051" /><path
         id="path470"
         style="fill:#394ea9;fill-opacity:1;fill-rule:nonzero;stroke:none"
         d="m 1897.65,592.371 c -35.41,-31.351 -73.94,-59.242 -115.1,-83.109 l -80.36,78.468 133.44,66.692 62.02,-62.051" /><path
         id="path472"
         style="fill:#394ea9;fill-opacity:1;fill-rule:nonzero;stroke:none"
         d="m 1502.05,1841.17 h -154.62 v 170.1 h 154.62 v -170.1" /><path
         id="path474"
         style="fill:#f46935;fill-opacity:1;fill-rule:nonzero;stroke:none"
         d="m 1525.76,1981.55 h -202.05 c -25.42,0 -46.02,20.61 -46.02,46.02 v 11.04 c 0,25.42 20.6,46.03 46.02,46.03 h 202.05 c 25.42,0 46.02,-20.61 46.02,-46.03 v -11.04 c 0,-25.41 -20.6,-46.02 -46.02,-46.02" /><path
         id="path476"
         style="fill:#394ea9;fill-opacity:1;fill-rule:nonzero;stroke:none"
         d="m 958.125,1656.98 -88.879,-88.87 -97.777,97.78 88.879,88.88 97.777,-97.79" /><path
         id="path478"
         style="fill:#f46935;fill-opacity:1;fill-rule:nonzero;stroke:none"
         d="M 891.063,1751.32 774.922,1635.18 c -14.609,-14.62 -38.297,-14.62 -52.906,-0.01 l -6.348,6.35 c -14.609,14.61 -14.613,38.29 0,52.9 l 116.145,116.15 c 14.609,14.61 38.292,14.61 52.906,0 l 6.344,-6.35 c 14.613,-14.61 14.613,-38.29 0,-52.9" /><path
         id="path480"
         style="fill:#4466ba;fill-opacity:1;fill-rule:nonzero;stroke:none"
         d="m 2138.46,1180.02 c 0,-394.18 -319.55,-713.719 -713.72,-713.719 -394.18,0 -713.724,319.539 -713.724,713.719 0,394.17 319.544,713.72 713.724,713.72 394.17,0 713.72,-319.55 713.72,-713.72" /><path
         id="path482"
         style="fill:#ffffff;fill-opacity:1;fill-rule:nonzero;stroke:none"
         d="m 2015.7,1183.54 c 0,-79.81 -15.61,-157.19 -46.42,-230.001 -29.75,-70.379 -72.39,-133.59 -126.67,-187.879 -54.28,-54.281 -117.5,-96.91 -187.87,-126.672 -72.81,-30.797 -150.2,-46.406 -230.01,-46.406 -30.76,0 -61.17,2.309 -91.08,6.938 -47.71,7.351 -94.18,20.539 -138.93,39.468 -8.34,3.524 -16.58,7.231 -24.7,11.133 -60.52,28.891 -115.3,67.68 -163.16,115.539 -7.762,7.77 -15.262,15.699 -22.544,23.801 -43.671,48.687 -78.613,103.75 -104.125,164.078 -15.296,36.152 -26.851,73.411 -34.593,111.571 -7.871,38.69 -11.828,78.25 -11.828,118.43 0,79.81 15.617,157.19 46.421,230.02 29.754,70.36 72.368,133.57 126.669,187.86 54.29,54.29 117.5,96.91 187.86,126.67 72.82,30.8 150.21,46.41 230.01,46.41 40.19,0 79.75,-3.95 118.44,-11.81 38.15,-7.76 75.41,-19.31 111.57,-34.6 60.32,-25.51 115.38,-60.45 164.07,-104.13 8.11,-7.28 16.04,-14.78 23.8,-22.54 47.86,-47.87 86.65,-102.65 115.54,-163.17 3.9,-8.12 7.62,-16.36 11.13,-24.69 18.94,-44.75 32.13,-91.25 39.48,-138.95 4.62,-29.91 6.94,-60.3 6.94,-91.07" /><path
         id="path484"
         style="fill:#171118;fill-opacity:1;fill-rule:nonzero;stroke:none"
         d="m 1424.74,1554.52 v 0 c -5.5,0 -9.95,4.45 -9.95,9.95 v 90.97 c 0,5.5 4.45,9.95 9.95,9.95 v 0 c 5.49,0 9.95,-4.45 9.95,-9.95 v -90.97 c 0,-5.5 -4.46,-9.95 -9.95,-9.95" /><path
         id="path486"
         style="fill:#171118;fill-opacity:1;fill-rule:nonzero;stroke:none"
         d="m 1424.74,701.691 v 0 c -5.5,0 -9.95,4.45 -9.95,9.95 v 90.968 c 0,5.5 4.45,9.95 9.95,9.95 v 0 c 5.49,0 9.95,-4.45 9.95,-9.95 v -90.968 c 0,-5.5 -4.46,-9.95 -9.95,-9.95" /><path
         id="path488"
         style="fill:#171118;fill-opacity:1;fill-rule:nonzero;stroke:none"
         d="m 1053.75,1183.54 v 0 c 0,-5.49 -4.45,-9.95 -9.94,-9.95 h -90.974 c -5.496,0 -9.949,4.46 -9.949,9.95 v 0 c 0,5.49 4.453,9.95 9.949,9.95 h 90.974 c 5.49,0 9.94,-4.46 9.94,-9.95" /><path
         id="path490"
         style="fill:#171118;fill-opacity:1;fill-rule:nonzero;stroke:none"
         d="m 1906.59,1183.54 v 0 c 0,-5.49 -4.46,-9.95 -9.95,-9.95 h -90.97 c -5.5,0 -9.95,4.46 -9.95,9.95 v 0 c 0,5.49 4.45,9.95 9.95,9.95 h 90.97 c 5.49,0 9.95,-4.46 9.95,-9.95" /><path
         id="path492"
         style="fill:#171118;fill-opacity:1;fill-rule:nonzero;stroke:none"
         d="m 1694.09,1438.83 -14.07,14.07 78.4,78.39 14.07,-14.07 -78.4,-78.39" /><path
         id="path494"
         style="fill:#171118;fill-opacity:1;fill-rule:nonzero;stroke:none"
         d="m 1084.02,842.82 h -0.01 c -3.88,3.891 -3.88,10.192 0,14.071 l 64.33,64.328 c 3.88,3.883 10.19,3.89 14.07,0 v 0 c 3.89,-3.887 3.89,-10.18 0,-14.071 l -64.32,-64.328 c -3.89,-3.879 -10.18,-3.879 -14.07,0" /><path
         id="path496"
         style="fill:#171118;fill-opacity:1;fill-rule:nonzero;stroke:none"
         d="m 1162.41,1445.86 v 0 c -3.88,-3.89 -10.19,-3.89 -14.07,0 l -64.33,64.33 c -3.88,3.88 -3.88,10.18 0.01,14.07 v 0 c 3.89,3.88 10.18,3.88 14.07,0 l 64.32,-64.33 c 3.89,-3.89 3.89,-10.18 0,-14.07" /><path
         id="path498"
         style="fill:#171118;fill-opacity:1;fill-rule:nonzero;stroke:none"
         d="m 1765.46,842.82 h -0.01 c -3.88,-3.879 -10.18,-3.879 -14.07,0 l -64.32,64.328 c -3.89,3.891 -3.89,10.184 0,14.071 v 0 c 3.88,3.883 10.19,3.883 14.07,0 l 64.33,-64.328 c 3.88,-3.879 3.88,-10.18 0,-14.071" /><path
         id="path500"
         style="fill:#f46935;fill-opacity:1;fill-rule:nonzero;stroke:none"
         d="m 1594.82,1109.94 -180.03,70.89 6.25,15.87 180.03,-70.89 c 4.38,-1.72 6.54,-6.67 4.81,-11.05 v 0 c -1.72,-4.39 -6.68,-6.55 -11.06,-4.82" /><path
         id="path502"
         style="fill:#171118;fill-opacity:1;fill-rule:nonzero;stroke:none"
         d="m 1433.26,1175.01 h -301.52 c -4.71,0 -8.53,3.82 -8.53,8.53 v 0 c 0,4.71 3.82,8.53 8.53,8.53 h 284.47 v 232.14 c 0,4.71 3.81,8.52 8.53,8.52 v 0 c 4.71,0 8.52,-3.81 8.52,-8.52 v -249.2" /></g></g></svg>