<?xml version="1.0" standalone="no"?>
<!DOCTYPE svg PUBLIC "-//W3C//DTD SVG 20010904//EN"
 "http://www.w3.org/TR/2001/REC-SVG-20010904/DTD/svg10.dtd">
<svg version="1.0" xmlns="http://www.w3.org/2000/svg"
 width="1600.000000pt" height="800.000000pt" viewBox="0 0 1600.000000 800.000000"
 preserveAspectRatio="xMidYMid meet">

<g transform="translate(0.000000,800.000000) scale(0.100000,-0.100000)"
fill="#000000" stroke="none">
<path d="M0 4000 l0 -4000 8000 0 8000 0 0 4000 0 4000 -8000 0 -8000 0 0
-4000z m7874 3851 c4 -5 0 -12 -6 -15 -12 -6 20 -1 54 7 7 2 10 2 6 0 -14 -8
-8 -23 6 -17 8 3 17 1 21 -5 4 -8 12 -8 27 0 11 6 29 9 39 6 10 -3 17 -1 13 4
-3 5 4 9 15 9 10 0 25 2 33 3 7 2 10 2 6 0 -32 -18 53 -30 96 -13 18 6 25 7
21 0 -7 -11 9 -13 63 -11 20 0 35 -5 38 -14 3 -7 12 -11 19 -9 7 3 30 1 51 -5
20 -6 42 -7 48 -3 19 12 55 9 61 -6 3 -8 12 -12 20 -8 8 3 16 2 19 -2 9 -14
86 -14 86 0 1 9 5 7 13 -4 9 -11 18 -14 28 -8 8 5 22 7 31 4 16 -5 122 6 256
25 28 4 52 5 52 1 0 -6 -62 -22 -145 -39 -22 -4 -50 -13 -62 -19 -12 -7 -34
-12 -49 -12 -25 0 -153 -38 -219 -66 -16 -7 -66 -24 -110 -38 -44 -15 -89 -31
-100 -36 -11 -5 -68 -28 -127 -51 -91 -36 -109 -47 -117 -71 -7 -18 -19 -29
-38 -33 -15 -4 -37 -11 -48 -16 -11 -4 -42 -17 -70 -28 -63 -24 -226 -105
-279 -138 -28 -18 -56 -26 -98 -28 -45 -2 -70 -10 -113 -36 -110 -67 -380
-319 -479 -448 -61 -79 -61 -80 -54 -86 4 -4 87 73 185 171 98 98 205 197 238
222 33 24 77 61 98 83 35 36 73 56 50 27 -16 -21 -41 -109 -48 -173 -8 -64
-27 -105 -50 -105 -17 0 -207 -155 -354 -288 -95 -87 -105 -93 -117 -77 -7 10
-11 22 -8 26 3 5 0 9 -5 9 -6 0 -11 -6 -11 -14 0 -22 -56 -64 -100 -76 -39
-10 -65 -37 -144 -142 -19 -26 -44 -64 -56 -85 -25 -47 -28 -51 -115 -183
-124 -186 -223 -358 -291 -504 -30 -66 -35 -87 -31 -125 7 -59 -4 -78 -52 -91
-31 -8 -44 -20 -73 -68 -31 -49 -103 -182 -156 -287 -8 -16 -41 -75 -72 -130
-109 -191 -190 -381 -188 -438 1 -27 -7 -45 -35 -78 -21 -23 -58 -87 -85 -140
l-47 -98 -44 -1 -44 0 37 -25 c20 -14 48 -25 62 -25 13 0 37 -8 52 -17 53 -36
147 -154 193 -244 28 -55 29 -60 14 -75 -9 -10 -13 -23 -9 -33 3 -9 9 -29 13
-46 6 -27 11 -30 49 -33 58 -4 184 14 192 29 9 14 1 89 -11 105 -16 20 -89 37
-104 24 -8 -6 -24 -10 -36 -8 -22 3 -22 4 -6 20 10 9 31 44 47 76 35 70 104
164 156 211 44 41 98 62 137 54 20 -4 33 0 47 15 23 25 118 55 180 57 58 3
151 22 164 35 7 7 3 10 -10 10 -11 0 -63 26 -115 59 -53 32 -113 67 -135 77
-21 10 -75 40 -119 67 -44 27 -109 65 -145 84 -84 46 -163 95 -172 108 -4 5
-4 13 0 16 6 6 170 37 317 60 33 5 124 22 203 39 269 56 319 52 407 -31 91
-86 112 -211 56 -334 -17 -36 -26 -65 -21 -65 6 0 27 17 47 37 35 33 42 36 90
34 66 -3 89 10 96 51 2 18 10 47 17 64 7 17 10 40 6 50 -7 18 -8 18 -26 -4
-16 -20 -22 -21 -39 -10 -18 11 -24 8 -55 -27 l-35 -40 3 85 c2 82 16 130 36
130 6 0 10 7 10 15 0 33 57 122 116 182 34 35 66 63 72 63 6 0 20 12 31 26 32
41 92 84 116 84 12 0 28 7 35 15 17 21 25 19 38 -10 17 -37 15 -63 -6 -74 -39
-21 -82 -179 -82 -301 0 -109 49 -382 82 -456 17 -40 48 -61 48 -33 0 6 20 -6
43 -28 24 -22 57 -49 73 -59 16 -11 42 -34 58 -52 27 -31 30 -32 40 -15 19 32
36 87 37 118 1 44 8 57 72 125 56 61 57 63 57 122 0 32 -5 68 -10 78 -6 11
-15 43 -20 72 -6 29 -20 66 -32 82 -16 23 -19 35 -12 55 16 46 38 31 50 -34 7
-33 17 -73 23 -90 6 -16 16 -59 23 -94 7 -36 20 -74 29 -85 16 -20 18 -20 62
29 28 30 49 64 53 85 5 23 29 59 71 105 34 38 63 74 63 80 0 17 -86 55 -124
55 -35 0 -66 23 -47 35 12 7 73 -2 111 -16 14 -5 57 -13 95 -18 66 -8 72 -7
95 15 14 12 37 27 53 33 19 8 27 17 27 35 0 33 14 40 76 39 86 -2 139 -42 224
-166 53 -78 74 -85 90 -27 6 22 10 46 9 53 -3 27 2 37 21 37 11 0 20 5 20 11
0 5 6 7 13 3 6 -4 3 2 -7 14 -15 17 -22 19 -33 10 -21 -17 -31 0 -38 67 -10
98 -17 135 -27 141 -5 3 -1 12 9 20 17 14 17 14 -1 12 -15 -2 -22 5 -29 35 -5
20 -14 37 -19 37 -6 0 -7 11 -3 27 4 16 3 25 -1 21 -4 -5 -14 1 -21 12 -11 16
-12 24 -3 35 8 10 9 19 1 32 -10 17 -10 17 -11 1 0 -24 -17 -23 -25 1 -3 11
-13 22 -21 25 -12 4 -14 14 -9 36 4 18 3 30 -4 30 -6 0 -8 -8 -5 -17 3 -10 -4
-6 -16 10 -23 28 -46 35 -52 15 -2 -6 -10 -8 -16 -4 -9 5 -8 14 2 35 8 15 18
65 23 112 9 88 -3 173 -33 230 -8 15 -14 35 -14 43 0 14 5 14 43 -1 55 -21 75
-39 86 -77 16 -51 107 -289 124 -321 8 -17 46 -58 84 -92 62 -55 71 -67 90
-129 22 -74 41 -171 73 -379 11 -71 22 -142 25 -157 2 -16 3 -28 2 -28 -1 0
-17 4 -35 10 -55 15 -88 3 -105 -39 -15 -35 -37 -241 -27 -241 5 0 27 70 51
165 12 48 35 85 52 85 7 0 31 -21 53 -47 21 -25 55 -63 74 -83 19 -20 57 -71
84 -113 47 -73 66 -92 66 -64 -1 18 -34 87 -63 131 -15 21 -24 42 -22 47 14
21 -55 551 -76 591 -5 10 -9 26 -9 35 0 25 -30 103 -52 135 -10 14 -42 40 -71
56 -63 36 -144 121 -155 166 -8 28 -6 32 22 44 17 8 61 13 98 13 37 -1 70 4
73 9 3 6 22 10 41 10 22 0 37 6 41 15 6 17 65 45 94 45 11 0 19 3 19 8 0 14
36 30 88 37 l52 7 0 -59 c0 -54 3 -60 32 -80 24 -17 36 -20 50 -12 10 5 18 14
18 18 0 5 11 8 25 7 34 -1 41 -33 21 -93 -9 -25 -16 -61 -16 -79 0 -18 -5 -45
-11 -61 -11 -30 -16 -614 -5 -632 4 -6 6 -66 6 -133 -1 -170 -2 -221 -1 -235
2 -23 16 -13 36 25 19 35 19 48 12 202 -4 91 -9 192 -10 225 l-2 60 33 -1 c17
-1 53 -13 80 -27 26 -13 97 -46 157 -72 142 -61 348 -164 357 -178 4 -6 4 -15
2 -19 -3 -4 2 -8 10 -8 8 0 18 10 21 22 10 29 -18 48 -170 120 -16 8 -39 19
-50 25 -71 38 -150 73 -166 73 -10 0 -21 5 -24 10 -3 6 -13 10 -20 10 -8 0
-43 17 -77 38 -64 38 -99 56 -130 66 -16 5 -18 19 -18 114 0 71 4 112 12 120
7 7 39 12 74 12 35 0 75 5 91 12 l28 12 -37 4 c-20 2 -60 -1 -89 -6 -81 -15
-83 -13 -75 87 12 163 50 341 71 341 8 0 38 -14 67 -31 29 -17 98 -55 153 -85
250 -132 240 -126 243 -165 4 -51 -29 -88 -86 -96 -66 -9 -60 -23 9 -23 l62 0
-6 -74 c-4 -40 -11 -86 -17 -100 -5 -15 -10 -53 -10 -85 0 -63 5 -72 100 -181
105 -121 128 -142 152 -138 23 3 22 1 103 278 15 52 38 127 50 165 13 39 40
124 60 190 62 205 66 215 80 215 41 0 43 -85 6 -195 -26 -76 -26 -97 0 -165
21 -57 34 -85 113 -253 25 -54 46 -100 46 -102 0 -3 14 -35 31 -72 34 -75 59
-149 79 -233 21 -91 41 -138 75 -177 28 -32 36 -36 52 -27 38 23 621 -118 674
-163 22 -18 43 -16 64 7 15 17 31 20 93 20 42 0 104 5 139 11 71 13 88 6 98
-39 7 -30 42 -78 51 -69 6 6 -7 50 -39 133 -23 60 -22 64 52 129 30 26 74 72
98 101 24 30 49 54 56 54 7 0 40 -14 74 -32 56 -28 63 -36 68 -68 4 -19 10
-55 16 -79 5 -23 16 -98 24 -165 19 -159 30 -199 55 -191 13 4 24 -3 39 -28
35 -57 25 -168 -26 -287 -3 -8 -7 -20 -8 -26 -6 -27 -219 -646 -320 -929 -102
-288 -134 -389 -139 -443 -5 -64 5 -72 90 -70 72 1 104 -4 104 -15 0 -4 8 -4
17 2 11 6 24 6 35 0 25 -13 27 -146 2 -156 -8 -3 -20 -1 -26 5 -8 8 -15 9 -25
1 -20 -18 -93 -18 -110 0 -12 12 -19 12 -35 2 -24 -15 -35 -6 -40 33 -2 16
-11 34 -20 39 -19 13 -33 -1 -99 -96 -50 -71 -116 -121 -185 -137 -66 -16
-108 -10 -259 35 -210 64 -246 76 -262 88 -46 36 -80 79 -91 113 -22 76 -50
91 -211 114 -161 23 -195 35 -241 79 -52 49 -64 49 -122 -8 -44 -43 -65 -55
-136 -77 l-84 -26 -29 21 c-40 30 -49 26 -46 -16 2 -32 -1 -38 -19 -41 -12 -2
-39 6 -60 17 -21 12 -47 21 -57 21 -10 0 -48 12 -83 26 -36 14 -68 24 -70 21
-3 -3 11 -37 32 -76 20 -39 34 -74 31 -77 -3 -4 -44 0 -89 7 -46 8 -92 13
-103 11 -18 -3 -64 14 -200 72 -116 49 -127 58 -182 146 -30 47 -63 96 -75
109 -22 25 -22 25 7 95 7 17 4 18 -31 12 -26 -5 -52 -2 -77 9 -20 8 -37 13
-37 9 0 -3 26 -38 59 -77 67 -83 211 -297 211 -315 0 -8 -9 -10 -22 -7 -34 7
-207 22 -253 22 -34 0 -137 32 -225 71 -33 15 -60 37 -60 50 0 31 45 100 113
172 42 45 77 85 77 89 0 4 -39 14 -87 24 -76 14 -90 14 -99 2 -9 -12 -24 -12
-105 1 -148 24 -203 55 -236 134 -33 78 -78 92 -129 39 l-29 -30 -4 -156 c-3
-145 -5 -158 -24 -174 -21 -17 -21 -17 18 -34 22 -9 63 -21 90 -25 28 -5 68
-13 90 -18 22 -6 67 -15 100 -22 73 -14 225 -66 240 -81 7 -8 -8 -10 -55 -5
-36 3 -137 8 -225 12 -148 5 -163 4 -199 -15 -37 -20 -41 -20 -59 -4 -16 15
-44 17 -222 16 -188 0 -206 -2 -231 -21 -26 -19 -30 -19 -53 -3 -21 13 -50 16
-178 13 -97 -2 -161 1 -174 8 -17 10 -92 19 -166 21 -13 1 -23 4 -23 8 0 3
-17 5 -37 5 -21 -1 -44 3 -50 8 -7 6 -19 8 -27 5 -7 -3 -23 1 -34 9 -20 14
-52 10 -52 -6 0 -9 -43 -16 -205 -30 -66 -6 -172 -17 -235 -25 -150 -19 -221
-19 -292 2 -52 16 -59 20 -64 50 -3 17 -3 36 0 41 8 14 -4 42 -18 42 -6 0 -27
-13 -46 -28 -82 -66 -320 -123 -432 -103 -44 7 -69 17 -83 33 -25 29 -141 66
-156 51 -6 -6 -14 -37 -18 -70 -10 -83 -61 -153 -176 -240 -49 -36 -149 -74
-190 -70 -29 2 -30 0 -27 -33 2 -19 8 -39 13 -45 15 -15 10 -94 -10 -143 -10
-26 -28 -74 -41 -107 -12 -33 -33 -78 -46 -101 -13 -22 -43 -79 -67 -125 -75
-144 -84 -153 -111 -101 -13 26 -53 148 -78 237 -6 22 -16 58 -23 80 -31 98
-45 149 -45 167 0 33 -32 92 -41 76 -21 -33 -113 117 -188 305 -16 39 -54 125
-85 190 -31 65 -56 122 -56 126 0 4 -14 29 -31 56 -21 32 -29 55 -25 71 5 18
-3 31 -43 64 -32 27 -48 47 -44 57 6 15 -14 89 -30 111 -6 7 -10 26 -9 42 0
16 -5 33 -11 38 -15 12 -165 71 -274 109 -89 30 -107 53 -55 71 67 24 152 67
156 79 8 20 -45 16 -99 -7 -64 -28 -121 -25 -223 9 -48 17 -127 44 -177 61
-49 17 -112 38 -140 47 -27 9 -68 24 -90 34 -22 10 -62 27 -90 37 -57 22 -70
42 -28 42 27 0 205 56 268 84 17 8 59 24 95 36 119 41 131 53 92 90 -42 38
-61 74 -76 142 -7 35 -15 68 -17 73 -16 50 53 150 152 216 119 80 197 127 263
158 64 30 67 33 52 50 -15 16 -13 19 37 39 154 63 408 138 537 158 69 11 113
23 129 35 33 27 21 49 -29 49 -48 0 -53 16 -7 25 17 4 51 13 75 21 83 27 104
21 208 -61 90 -71 192 -120 211 -102 4 4 -15 30 -42 57 -47 47 -48 49 -20 41
17 -4 39 -6 50 -5 11 2 30 5 43 6 12 1 22 6 22 11 0 4 6 5 13 2 6 -4 5 -1 -3
7 -10 9 -15 30 -14 63 1 28 -3 56 -8 62 -6 7 -12 34 -15 60 -3 27 -6 57 -7 68
-2 12 -11 21 -23 23 -19 3 -20 7 -12 35 5 18 12 45 15 62 3 16 10 35 16 42 8
10 4 15 -16 23 -27 10 -36 22 -13 17 8 -1 12 13 13 45 1 26 7 54 14 63 10 12
10 15 0 15 -9 0 -10 9 -5 33 10 46 8 67 -9 86 -11 12 -13 20 -5 28 8 8 8 17 0
31 -9 17 -7 23 10 36 21 14 38 74 31 108 -2 9 -16 21 -33 27 -30 10 -40 31
-15 31 9 0 13 7 11 20 -2 11 0 22 6 25 5 4 9 19 9 35 0 16 5 32 10 35 6 4 8
15 5 26 -4 11 -2 19 5 19 6 0 8 5 5 10 -3 6 1 10 10 10 9 0 13 4 10 10 -3 5 0
7 8 4 18 -7 27 33 15 66 -6 16 -4 30 7 46 9 13 14 24 12 24 -3 0 0 19 5 43 5
23 13 60 17 82 4 24 12 39 19 37 10 -2 10 3 2 18 -7 13 -7 20 -1 20 6 0 15 9
21 21 9 16 8 26 -5 45 -13 20 -13 24 -1 24 9 0 13 10 11 32 -1 18 4 42 11 54
8 11 11 24 7 27 -3 4 -1 7 6 7 7 0 9 4 6 10 -3 6 1 7 9 4 10 -4 16 -1 16 10 0
8 6 13 13 11 17 -7 41 11 33 24 -4 6 -13 8 -19 5 -8 -5 -8 -3 1 7 6 7 12 22
12 34 0 11 12 31 25 44 25 23 33 51 15 51 -5 0 -7 -7 -4 -15 4 -10 0 -15 -11
-15 -16 0 -16 2 0 27 13 19 15 28 6 31 -7 2 -4 11 10 23 19 16 21 23 11 44 -7
15 -8 25 -2 25 6 0 10 7 10 16 0 18 66 87 94 97 12 5 15 13 11 26 -4 13 1 27
14 40 10 10 22 28 26 40 5 17 3 20 -11 14 -14 -5 -15 -3 -5 15 8 15 19 19 46
17 19 -2 33 0 30 5 -3 5 -12 7 -20 3 -11 -4 -13 -1 -9 11 3 8 14 18 24 21 10
3 23 20 29 36 6 17 19 33 30 36 11 3 21 17 25 34 3 18 12 29 22 29 9 0 18 9
21 20 3 11 12 20 19 20 8 0 14 7 14 15 0 8 9 19 20 25 11 6 20 15 20 21 0 14
19 30 55 49 17 9 32 25 34 35 4 23 41 78 48 72 6 -7 53 38 53 51 0 14 28 23
35 11 9 -14 25 -1 25 21 0 13 5 17 15 14 17 -7 72 53 67 73 -2 7 1 13 5 12 18
-3 30 2 49 19 22 21 22 21 52 28 12 4 22 10 22 14 0 5 17 19 38 31 20 13 39
26 42 30 3 4 19 9 35 11 17 2 29 8 28 15 -2 7 9 21 24 30 15 10 36 26 46 36
10 10 22 15 28 12 12 -8 41 14 33 26 -3 5 5 9 18 9 13 0 29 9 36 20 7 11 21
20 32 20 10 0 24 8 29 18 6 9 11 12 11 5 0 -6 14 1 31 17 58 52 70 61 82 59 7
-1 25 3 40 9 16 7 41 12 56 12 16 0 34 6 40 14 7 9 26 13 49 11 40 -4 64 9 55
31 -4 10 4 14 30 14 19 0 40 7 47 15 7 9 19 14 26 11 8 -3 26 1 41 8 62 31 82
38 114 41 19 1 42 6 52 10 9 4 27 5 38 2 13 -3 28 2 40 14 11 11 24 17 30 13
6 -3 27 -7 47 -9 20 -1 51 -5 67 -7 17 -3 22 -3 13 -1 -10 2 -18 11 -18 20 0
13 3 13 16 2 12 -10 17 -10 23 -1 4 7 15 10 24 6 10 -3 17 -1 17 5 0 6 15 8
40 5 22 -3 40 -2 40 3 0 5 23 10 50 10 29 0 50 -5 50 -11 0 -8 2 -8 8 0 4 6
21 16 37 22 39 14 43 14 49 3z m3567 -82 c9 -24 19 -53 23 -64 4 -11 19 -51
33 -90 14 -38 43 -108 66 -155 22 -47 43 -94 47 -105 4 -11 13 -33 19 -48 13
-33 14 -47 4 -47 -7 0 -32 49 -99 195 -73 161 -94 209 -94 216 0 5 -12 33 -26
64 -26 54 -26 91 -1 83 6 -3 19 -24 28 -49z m-2081 1 c0 -5 -4 -10 -8 -10 -16
0 -187 -103 -227 -136 -146 -123 -177 -143 -223 -150 -47 -6 -148 -28 -272
-58 -36 -9 -96 -24 -135 -33 -38 -9 -92 -25 -120 -36 -67 -25 -112 -38 -157
-44 -30 -4 -42 0 -63 21 -15 15 -25 33 -23 42 10 49 501 203 788 248 101 16
136 30 228 90 38 24 84 51 103 60 39 17 109 21 109 6z m2452 -32 c8 -13 20
-43 27 -68 7 -25 17 -55 22 -68 5 -13 9 -35 8 -50 0 -26 -1 -26 -17 8 -9 19
-19 37 -23 40 -9 8 -49 126 -49 144 0 23 15 20 32 -6z m-679 -45 c8 -21 22
-60 30 -88 8 -27 34 -90 58 -140 23 -49 42 -96 42 -102 0 -7 4 -13 9 -13 5 0
13 -10 18 -22 6 -13 16 -32 22 -42 7 -11 29 -45 48 -75 34 -54 41 -67 70 -121
7 -14 17 -32 21 -40 5 -8 34 -62 65 -120 32 -58 79 -141 104 -185 26 -44 63
-109 82 -145 70 -130 107 -185 275 -404 48 -63 53 -74 53 -120 0 -61 18 -148
55 -271 15 -49 30 -103 35 -120 16 -63 93 -203 146 -267 56 -69 85 -83 102
-52 8 15 11 15 35 -1 60 -39 97 7 97 121 0 28 4 64 9 80 5 16 20 63 32 104 12
41 26 82 30 90 4 8 13 30 20 48 7 19 29 59 49 90 63 99 65 110 36 177 -14 31
-26 61 -26 66 0 5 -11 32 -24 61 -13 29 -34 78 -46 108 -25 62 -53 126 -81
184 -11 22 -19 47 -19 55 0 9 -7 25 -15 35 -8 11 -15 28 -15 38 0 10 -4 18
-10 18 -5 0 -10 8 -10 17 0 9 -6 24 -13 32 -18 21 -42 99 -34 108 4 3 10 -8
13 -25 4 -17 13 -37 20 -43 8 -6 14 -16 14 -22 0 -18 33 -87 42 -87 4 0 8 -6
8 -14 0 -8 26 -70 58 -138 52 -108 110 -243 131 -303 4 -11 22 -49 39 -85 18
-36 32 -70 32 -74 0 -5 -15 -29 -34 -55 -43 -58 -121 -201 -129 -232 -3 -13
-15 -60 -28 -104 -19 -67 -23 -107 -24 -245 -1 -97 -6 -165 -12 -167 -5 -2
-39 16 -74 40 -35 24 -94 60 -131 80 -92 51 -168 113 -168 137 0 11 7 20 15
20 8 0 15 3 15 8 0 7 -40 109 -71 177 -35 79 -90 295 -104 407 -5 36 -17 62
-51 105 -130 170 -298 448 -497 823 -22 41 -43 80 -47 85 -16 20 -106 181
-135 240 -16 33 -43 85 -61 116 -18 30 -42 80 -54 110 -11 30 -30 73 -40 96
-21 45 -24 65 -13 76 13 13 21 6 36 -30z m-431 -29 c21 -13 4 -24 -39 -24
-106 -1 -321 -96 -666 -295 l-48 -27 -24 22 c-36 33 -56 37 -445 75 -91 9
-200 19 -242 22 -56 4 -78 9 -78 19 0 7 6 17 14 21 7 4 42 34 76 66 35 32 74
60 87 63 65 17 466 -32 670 -81 128 -31 145 -31 213 1 78 37 243 103 325 130
65 22 129 25 157 8z m1438 -143 c5 -11 10 -37 10 -59 0 -22 6 -52 14 -67 16
-30 11 -68 -5 -43 -5 7 -9 22 -9 34 0 11 -3 24 -7 28 -8 7 -32 92 -33 114 0
19 18 14 30 -7z m-246 -27 c3 -9 6 -26 6 -39 0 -13 5 -27 10 -30 6 -3 10 -13
10 -22 0 -9 9 -36 20 -60 11 -24 29 -62 40 -86 11 -24 20 -48 20 -53 0 -5 11
-31 25 -59 13 -27 25 -57 25 -65 0 -8 11 -35 25 -59 25 -43 32 -71 18 -71 -5
0 -16 20 -26 43 -38 86 -45 103 -57 132 -14 35 -29 70 -64 146 -14 31 -26 63
-26 71 0 8 -3 18 -6 21 -10 10 -43 109 -44 130 0 21 16 22 24 1z m-1331 -109
c82 -26 172 -64 215 -91 19 -13 21 -18 11 -37 -20 -37 -91 -127 -100 -127 -5
0 -43 16 -85 35 -41 19 -83 35 -93 35 -10 0 -21 3 -25 7 -12 12 -97 32 -180
43 -43 5 -81 12 -84 14 -10 11 23 38 77 66 31 15 79 39 106 53 28 15 56 27 63
27 7 0 50 -11 95 -25z m1637 -103 c0 -21 -2 -24 -10 -12 -13 20 -13 53 0 45 6
-3 10 -18 10 -33z m-3310 13 c0 -8 -6 -29 -14 -47 -27 -63 -72 -288 -75 -376
-1 -7 -6 -10 -12 -6 -7 4 -9 23 -5 53 15 116 36 239 45 271 16 51 6 70 -35 70
-34 0 -50 20 -16 20 9 1 28 7 42 15 33 19 70 19 70 0z m1030 0 c0 -8 -4 -15
-10 -15 -5 0 -10 -5 -10 -11 0 -6 -11 -25 -24 -42 -13 -18 -38 -59 -56 -92
-18 -33 -36 -62 -40 -65 -4 -3 -15 -20 -24 -38 -10 -19 -20 -32 -23 -29 -3 3
12 36 33 74 20 37 53 97 72 133 47 90 82 126 82 85z m-1945 -32 c14 -21 25
-42 25 -48 0 -14 -25 -29 -155 -94 -61 -31 -124 -66 -142 -78 -17 -13 -38 -23
-46 -23 -9 0 -29 -13 -45 -30 -17 -16 -33 -30 -36 -30 -29 0 34 193 66 202 7
2 51 23 98 48 96 50 179 88 197 89 7 1 24 -16 38 -36z m712 -19 c-3 -3 -12 -4
-19 -1 -8 3 -5 6 6 6 11 1 17 -2 13 -5z m3538 -15 c8 -23 1 -34 -14 -24 -13 8
-15 45 -2 45 5 0 13 -9 16 -21z m-568 -11 c-3 -8 -6 -5 -6 6 -1 11 2 17 5 13
3 -3 4 -12 1 -19z m-3062 2 c-28 -12 -47 -12 -40 0 3 6 18 10 33 9 24 0 25 -1
7 -9z m3095 -46 c0 -8 -4 -12 -10 -9 -5 3 -10 13 -10 21 0 8 5 12 10 9 6 -3
10 -13 10 -21z m554 1 c3 -8 1 -15 -4 -15 -6 0 -10 7 -10 15 0 8 2 15 4 15 2
0 6 -7 10 -15z m-3827 -1 c-3 -3 -12 -4 -19 -1 -8 3 -5 6 6 6 11 1 17 -2 13
-5z m-349 -42 c22 -29 23 -32 6 -32 -11 0 -32 12 -48 26 -23 21 -26 28 -15 35
20 12 29 8 57 -29z m2718 -14 c-5 -25 0 -40 20 -70 27 -39 42 -45 73 -29 14 8
25 3 49 -19 28 -26 32 -35 32 -83 0 -76 22 -122 93 -194 34 -35 56 -63 49 -63
-7 0 -12 5 -12 10 0 6 -5 10 -12 10 -11 0 -127 84 -177 129 -13 11 -77 58
-143 103 -65 46 -118 87 -118 93 0 6 13 18 29 28 16 9 48 40 71 67 23 28 44
50 47 50 3 0 3 -14 -1 -32z m934 6 c0 -8 -4 -14 -10 -14 -5 0 -10 9 -10 21 0
11 5 17 10 14 6 -3 10 -13 10 -21z m553 -42 c-5 -12 -7 -12 -15 2 -11 20 1 44
12 25 5 -6 6 -19 3 -27z m-503 -54 c0 -9 5 -20 10 -23 6 -3 10 -16 9 -28 0
-15 -8 -6 -25 30 -13 28 -29 55 -34 58 -6 3 -10 14 -10 23 0 23 49 -36 50 -60z
m530 -18 c0 -5 -2 -10 -4 -10 -3 0 -8 5 -11 10 -3 6 -1 10 4 10 6 0 11 -4 11
-10z m-2588 -52 c-7 -7 -12 -8 -12 -2 0 14 12 26 19 19 2 -3 -1 -11 -7 -17z
m2605 -20 c-3 -8 -6 -5 -6 6 -1 11 2 17 5 13 3 -3 4 -12 1 -19z m-497 -14 c0
-8 -4 -12 -10 -9 -5 3 -10 13 -10 21 0 8 5 12 10 9 6 -3 10 -13 10 -21z m300
-17 c0 -18 -2 -19 -10 -7 -13 20 -13 43 0 35 6 -3 10 -16 10 -28z m240 -47 c0
-9 5 -21 11 -27 6 -6 8 -16 4 -23 -8 -13 -45 56 -45 85 1 20 1 20 15 1 8 -11
15 -27 15 -36z m-523 18 c-3 -8 -6 -5 -6 6 -1 11 2 17 5 13 3 -3 4 -12 1 -19z
m-1404 -6 c50 -27 325 -211 332 -222 13 -20 -12 -9 -63 30 -29 22 -55 40 -58
40 -3 0 -33 20 -67 44 -34 24 -93 60 -132 81 -38 20 -72 39 -74 41 -12 12 33
2 62 -14z m1711 -8 c4 -9 4 -19 2 -21 -8 -8 -26 8 -26 23 0 19 16 18 24 -2z
m-3361 -27 c3 -8 1 -20 -4 -28 -6 -10 -9 -7 -9 14 0 29 5 35 13 14z m3087 -7
c0 -5 -2 -10 -4 -10 -3 0 -8 5 -11 10 -3 6 -1 10 4 10 6 0 11 -4 11 -10z m300
-33 c0 -18 -2 -19 -10 -7 -13 20 -13 43 0 35 6 -3 10 -16 10 -28z m-2396 -6
c34 -17 71 -40 82 -53 24 -26 74 -146 74 -176 0 -29 -31 -51 -86 -62 -81 -16
-116 -28 -141 -52 -30 -28 -29 -41 7 -71 17 -14 30 -30 30 -36 0 -16 -41 -24
-125 -24 -92 1 -168 27 -250 85 -28 20 -75 48 -105 64 -46 23 -86 48 -229 141
-11 7 26 33 55 39 19 3 37 10 40 15 3 5 12 9 21 9 8 0 54 16 102 35 47 19 115
44 151 55 36 10 90 28 120 39 86 31 178 28 254 -8z m2122 -13 c4 -13 9 -25 13
-28 8 -6 41 -66 41 -74 0 -3 -5 -6 -11 -6 -5 0 -22 26 -37 58 -14 31 -28 60
-30 65 -2 4 1 7 6 7 6 0 14 -10 18 -22z m-2903 -4 c54 -7 130 -56 121 -77 -3
-8 -22 -19 -44 -26 -52 -15 -83 -42 -75 -63 8 -20 84 -85 133 -113 57 -33 61
-48 26 -97 -56 -80 -146 -121 -261 -119 -69 0 -113 13 -214 60 -25 11 -49 21
-53 21 -11 0 -229 93 -253 108 -39 24 -28 46 40 81 34 18 94 50 132 71 39 21
89 47 113 59 24 11 57 30 73 42 43 30 159 70 189 64 14 -2 46 -7 73 -11z
m3248 -128 c17 -36 29 -71 27 -78 -5 -13 -68 106 -68 129 0 26 11 12 41 -51z
m-235 -78 c26 -46 53 -90 59 -98 7 -8 27 -42 44 -75 18 -33 46 -77 62 -97 16
-20 29 -39 29 -43 0 -3 18 -31 40 -63 l39 -58 0 -185 c0 -181 -8 -241 -24
-182 -5 15 -10 93 -11 173 -1 80 -2 156 -3 171 -1 14 -25 63 -55 110 -30 47
-62 101 -73 120 -10 19 -31 54 -47 77 -15 24 -39 65 -53 90 -14 26 -29 49 -32
52 -17 14 -40 90 -27 90 2 0 26 -37 52 -82z m-1147 26 c28 -14 32 -21 28 -43
-18 -92 -40 -211 -44 -236 -4 -27 6 -43 82 -130 48 -55 97 -109 110 -120 12
-11 39 -41 60 -65 20 -25 86 -96 146 -159 131 -137 141 -166 43 -125 -22 9
-50 21 -64 26 -22 8 -23 10 -7 19 9 6 17 18 17 27 0 26 -70 109 -222 267 -76
78 -154 163 -174 189 l-37 48 22 97 c26 116 27 178 4 203 -20 22 -6 23 36 2z
m-327 -57 c70 -47 69 -46 102 -140 26 -73 27 -81 15 -130 -31 -122 -123 -187
-267 -187 -58 0 -72 6 -237 97 -60 33 -153 82 -206 107 -120 57 -219 121 -219
141 0 8 12 17 28 21 15 3 34 8 42 11 8 3 35 9 60 13 25 4 86 17 135 29 50 12
110 27 135 33 25 6 74 19 110 29 47 14 90 18 155 16 85 -3 93 -5 147 -40z
m-2282 6 c0 -13 3 -14 11 -6 19 19 39 3 39 -31 0 -28 8 -36 73 -78 40 -27 77
-48 81 -48 4 0 17 -9 28 -20 17 -16 19 -23 10 -32 -7 -7 -12 -22 -12 -34 0
-33 -82 -101 -131 -109 -71 -12 -219 21 -204 45 4 6 -9 10 -29 10 -35 0 -36 1
-36 38 0 60 -10 82 -35 82 -40 0 -54 11 -61 46 -11 58 33 133 79 134 9 0 17 5
17 10 0 6 35 10 85 10 73 0 85 -2 85 -17z m4069 -60 c23 -52 62 -124 119 -218
21 -34 42 -70 49 -80 61 -102 81 -165 52 -165 -5 0 -9 -6 -9 -13 0 -13 -19
-59 -41 -99 -5 -10 -9 -28 -9 -40 -1 -13 -7 -34 -15 -48 -8 -14 -15 -38 -15
-55 0 -16 -5 -37 -10 -45 -7 -11 -10 -2 -10 32 0 26 5 50 10 53 6 3 10 18 10
33 0 15 7 36 15 46 8 11 15 27 15 36 0 9 8 32 17 51 30 60 23 95 -50 234 -17
33 -45 83 -62 110 -37 58 -105 192 -105 206 0 24 20 5 39 -38z m-1019 -79 l31
-36 -20 -22 c-35 -37 -45 -80 -27 -115 32 -62 85 -77 145 -40 18 11 37 17 40
12 4 -4 20 -25 35 -46 35 -48 27 -59 -59 -82 -94 -25 -161 -8 -221 57 -71 76
-72 211 -2 285 29 31 41 29 78 -13z m-4576 -91 c-10 -157 -14 -168 -105 -263
-44 -47 -98 -111 -120 -143 -21 -32 -68 -100 -103 -150 -71 -103 -193 -310
-217 -371 -27 -66 -42 -59 -34 15 6 51 23 96 84 219 42 85 79 157 82 160 4 3
21 32 40 65 18 33 55 94 82 135 27 41 61 97 76 123 14 26 31 56 36 66 22 39
168 231 176 231 4 0 6 -39 3 -87z m4666 -38 c0 -8 -4 -15 -9 -15 -13 0 -22 16
-14 24 11 11 23 6 23 -9z m-3517 -102 c3 -10 6 -56 7 -103 1 -46 6 -92 11
-101 12 -22 12 -59 0 -59 -13 0 -19 20 -32 116 -13 94 -26 114 -71 114 -41 0
-31 21 18 36 55 17 62 16 67 -3z m-1163 -129 c0 -8 -4 -12 -10 -9 -5 3 -10 10
-10 16 0 5 5 9 10 9 6 0 10 -7 10 -16z m17 -96 c-3 -7 -5 -2 -5 12 0 14 2 19
5 13 2 -7 2 -19 0 -25z m33 -94 c0 -8 -4 -12 -10 -9 -5 3 -10 13 -10 21 0 8 5
12 10 9 6 -3 10 -13 10 -21z m1230 -64 c13 -9 13 -10 0 -9 -8 0 -24 4 -35 9
l-20 9 20 0 c11 0 27 -4 35 -9z m110 -20 c0 -5 8 -10 18 -10 22 0 72 -43 72
-63 0 -8 5 -17 11 -19 31 -10 57 -188 28 -188 -5 0 -9 -17 -10 -37 0 -21 -3
-32 -6 -25 -7 17 -23 15 -23 -3 0 -8 -4 -15 -10 -15 -5 0 -10 -7 -10 -15 0
-16 -46 -65 -61 -65 -6 0 -17 -6 -24 -14 -13 -13 -151 -53 -168 -48 -4 1 -32
3 -62 3 -30 1 -54 4 -53 8 2 19 -4 22 -18 10 -10 -8 -18 -9 -22 -2 -4 5 -22
13 -40 16 -43 9 -71 35 -51 48 8 5 9 9 4 9 -19 0 -45 57 -45 98 0 25 7 47 18
58 9 10 17 25 17 33 1 43 44 103 116 164 21 18 71 28 88 18 15 -10 51 -3 51
10 0 5 -9 8 -19 6 -11 -1 -19 3 -18 8 2 12 34 12 61 0 15 -6 17 -5 11 5 -6 10
-2 12 19 8 14 -3 29 -1 32 3 7 12 94 11 94 -1z m1700 2 c0 -4 -20 -19 -45 -35
-33 -19 -59 -27 -93 -27 l-46 0 37 19 c20 10 48 22 62 25 14 4 25 11 25 16 0
6 14 10 30 10 17 0 30 -3 30 -8z m1280 -43 c0 -11 -27 -12 -34 0 -3 4 -3 11 0
14 8 8 34 -3 34 -14z m-1160 -25 c31 -28 40 -43 39 -68 -1 -63 -55 -350 -67
-354 -15 -5 -173 72 -300 145 -51 29 -95 53 -98 53 -15 0 -64 43 -64 56 0 20
50 122 66 135 10 8 26 7 60 -5 43 -14 52 -14 107 0 34 8 79 25 101 36 42 22
81 36 103 37 7 1 31 -15 53 -35z m-6433 -21 c-3 -21 -19 -83 -37 -138 -41
-129 -69 -285 -60 -333 17 -93 119 -406 162 -500 21 -46 38 -86 38 -88 0 -7
58 -144 70 -166 12 -21 13 -48 2 -48 -20 0 -53 35 -70 73 -11 24 -34 92 -51
153 -18 60 -67 199 -109 309 -75 196 -77 202 -77 290 0 90 54 413 78 463 6 14
19 22 35 22 22 0 24 -3 19 -37z m7684 17 c20 -11 27 -60 8 -60 -6 0 -24 9 -40
21 -24 17 -27 24 -18 35 14 17 24 17 50 4z m1128 -42 c1 -10 -3 -18 -9 -18 -5
0 -10 17 -9 38 0 30 2 33 9 17 5 -11 9 -28 9 -37z m-8429 23 c0 -5 -9 -31 -21
-58 -49 -112 -106 -276 -114 -329 -7 -41 23 -149 64 -235 12 -23 21 -48 21
-55 0 -6 23 -65 50 -130 28 -65 50 -123 50 -128 0 -16 82 -181 92 -184 4 -2 8
-10 8 -18 0 -8 13 -40 29 -72 35 -71 48 -132 28 -132 -23 0 -31 16 -90 182
-31 87 -65 175 -77 197 -11 22 -20 47 -20 55 0 8 -29 72 -64 143 -133 268
-139 312 -75 583 26 110 48 168 68 180 21 12 51 13 51 1z m7277 -74 c294 -202
625 -355 774 -358 90 -2 78 -15 -56 -59 -88 -28 -138 -36 -355 -55 -134 -12
-193 -13 -254 -5 -44 5 -102 10 -129 10 -56 0 -167 28 -167 41 0 12 33 11 66
-1 21 -8 29 -8 35 2 6 9 0 15 -19 18 -22 4 -28 11 -30 38 -4 35 -29 54 -92 67
-37 8 -86 30 -105 48 -9 9 -9 16 -2 29 8 12 7 24 -1 43 -17 38 -6 48 45 42 40
-4 46 -2 55 19 10 21 7 29 -18 57 -58 62 -58 64 -29 83 29 19 87 20 132 3 25
-9 25 -9 18 27 -8 47 -6 46 132 -49z m166 66 c15 -9 6 -24 -32 -49 -22 -14
-45 -23 -50 -19 -12 7 -15 68 -4 78 6 7 69 -1 86 -10z m187 -13 c11 -11 20
-27 20 -35 0 -9 11 -21 25 -27 14 -6 25 -18 24 -27 0 -19 -72 -79 -105 -87
-47 -12 -51 -3 -42 87 5 46 11 90 13 97 7 19 43 14 65 -8z m-8390 1 c0 -5 -7
-28 -15 -52 -16 -44 -37 -128 -56 -224 -5 -27 -14 -71 -20 -96 -14 -62 -13
-197 1 -234 6 -16 15 -48 20 -70 20 -89 73 -256 111 -350 23 -55 52 -125 64
-155 12 -31 26 -75 30 -99 7 -41 6 -43 -16 -39 -25 3 -31 19 -148 388 -16 52
-41 123 -56 157 -30 72 -68 220 -60 233 3 4 9 46 14 92 5 45 17 126 25 178 9
52 21 127 28 165 13 81 30 115 58 115 11 0 20 -4 20 -9z m7280 -58 c-7 -26
-17 -52 -21 -57 -5 -6 -9 -21 -9 -34 0 -25 -9 -57 -72 -252 -38 -120 -58 -163
-58 -128 0 23 75 313 105 404 26 80 52 130 62 120 3 -3 0 -27 -7 -53z m-6190
32 c0 -9 -8 -32 -19 -53 -24 -49 -56 -160 -72 -249 -13 -76 -12 -79 37 -231 8
-23 14 -48 14 -54 0 -14 103 -257 143 -337 31 -62 42 -81 131 -221 63 -100 72
-118 58 -132 -21 -21 -51 21 -140 202 -47 96 -96 191 -107 210 -19 31 -49 97
-121 271 -13 31 -33 104 -44 163 l-21 107 21 72 c12 40 29 109 39 154 10 45
24 89 31 98 16 20 50 19 50 0z m7191 -56 c-2 -35 -5 -66 -8 -69 -9 -10 -93 43
-93 59 0 18 78 81 95 77 6 -2 9 -29 6 -67z m-4305 29 c39 -17 103 -77 137
-129 9 -14 19 -56 23 -95 12 -130 -32 -207 -156 -273 -57 -31 -73 -35 -140
-34 -68 0 -83 4 -157 41 -46 23 -85 42 -88 42 -6 0 -157 67 -261 115 -83 39
-184 102 -184 115 0 13 30 28 107 51 38 12 73 25 78 29 6 4 26 11 45 15 19 4
87 25 150 47 304 104 360 113 446 76z m5239 -45 c3 -21 10 -46 16 -55 5 -10 9
-29 9 -42 0 -14 5 -28 10 -31 6 -3 10 -16 10 -27 0 -32 -11 -15 -38 60 -29 81
-38 132 -24 132 6 0 14 -17 17 -37z m-602 -34 c76 -26 79 -27 70 -43 -15 -25
-124 -116 -138 -116 -11 0 -15 13 -15 53 0 54 10 127 17 127 2 0 32 -9 66 -21z
m-109 -58 c-3 -75 -18 -86 -71 -54 -24 14 -43 31 -43 38 0 18 81 76 100 72 11
-2 15 -16 14 -56z m324 -21 c28 -13 52 -27 52 -33 0 -18 -47 -71 -79 -90 -31
-18 -31 -18 -40 6 -14 36 -24 115 -17 133 3 9 12 14 19 11 6 -3 36 -15 65 -27z
m-112 -11 c12 -19 -17 -129 -34 -129 -27 0 -81 23 -86 37 -6 14 81 102 101
103 6 0 15 -5 19 -11z m202 -70 c1 -8 -8 -31 -20 -50 -18 -25 -32 -35 -56 -37
-18 -2 -32 0 -32 4 0 13 85 102 95 100 6 -2 11 -9 13 -17z m-5976 -162 c-2
-30 3 -78 12 -107 20 -68 20 -77 -2 -84 -11 -4 -63 -81 -118 -173 -91 -153
-102 -167 -141 -184 -45 -19 -54 -41 -32 -78 18 -27 -23 -95 -70 -115 -52 -22
-77 -24 -73 -6 5 22 122 252 137 270 8 8 66 119 129 245 145 289 143 285 153
285 4 0 6 -24 5 -53z m4169 -150 c-8 -8 -11 -4 -11 14 0 33 14 47 18 19 2 -12
-1 -27 -7 -33z m-21 -67 c0 -16 -4 -30 -10 -30 -11 0 -14 43 -3 53 11 12 13 8
13 -23z m1863 -62 c45 -29 108 -95 154 -163 18 -27 153 -313 198 -420 36 -85
76 -233 64 -240 -4 -3 -20 5 -36 18 -52 44 -150 107 -229 148 -206 107 -239
126 -276 159 l-39 35 -7 105 c-4 58 -4 165 -1 239 6 113 10 137 25 148 26 19
91 6 147 -29z m-1890 -23 c-7 -21 -13 -19 -13 6 0 11 4 18 10 14 5 -3 7 -12 3
-20z m-13 -62 c-1 -10 -7 -29 -15 -43 l-14 -25 -1 36 c0 20 3 39 7 42 12 13
23 7 23 -10z m-2680 -33 c0 -5 -6 -10 -14 -10 -8 0 -18 5 -21 10 -3 6 3 10 14
10 12 0 21 -4 21 -10z m100 -10 c12 -8 10 -14 -15 -40 -36 -38 -42 -38 -47 1
-4 24 0 33 16 39 27 11 28 11 46 0z m2549 -47 c0 -5 -4 -17 -9 -28 -8 -18 -9
-17 -9 8 -1 15 4 27 9 27 6 0 10 -3 9 -7z m-29 -118 c0 -14 -4 -25 -10 -25
-11 0 -14 33 -3 43 11 11 13 8 13 -18z m-20 -77 c0 -7 -4 -19 -9 -27 -11 -17
-23 1 -15 23 7 19 24 21 24 4z m-6532 -171 c6 -6 14 -26 18 -42 9 -36 47 -103
120 -208 54 -79 65 -107 41 -107 -7 0 -37 -11 -65 -25 -29 -14 -56 -25 -62
-25 -11 0 -98 -47 -120 -65 -8 -6 -33 -20 -55 -30 l-39 -18 -39 44 c-22 24
-73 89 -115 144 -41 55 -88 117 -105 137 -16 20 -27 41 -23 46 3 5 27 17 53
26 26 10 57 21 68 26 11 5 54 22 95 39 41 16 93 39 115 50 46 23 98 27 113 8z
m2085 -149 c-13 -29 -27 -60 -32 -68 -10 -19 -115 -61 -120 -48 -2 5 6 23 18
39 11 15 21 31 21 34 0 3 11 23 24 44 18 29 35 41 63 48 21 5 41 8 44 7 4 -2
-5 -27 -18 -56z m-2419 -475 c76 -11 151 -79 191 -170 18 -42 18 -44 -4 -113
-19 -60 -28 -74 -59 -94 -20 -13 -46 -33 -56 -45 -11 -11 -29 -21 -42 -21 -13
0 -34 -5 -48 -11 -20 -9 -35 -8 -78 9 -29 12 -114 40 -188 62 -139 43 -149 47
-213 75 -35 15 -71 28 -200 72 -72 24 -59 41 58 80 55 18 114 37 130 44 28 10
105 34 205 65 25 7 81 25 125 39 49 15 92 23 110 19 17 -3 48 -8 69 -11z
m-474 -43 c0 -11 -4 -20 -10 -20 -5 0 -10 9 -10 20 0 11 5 20 10 20 6 0 10 -9
10 -20z m813 -912 c12 -7 24 -15 27 -18 8 -9 99 -64 165 -100 33 -19 71 -42
83 -51 27 -20 167 -89 182 -89 6 0 10 -4 10 -10 0 -15 -27 -12 -44 5 -8 8 -24
15 -35 15 -12 0 -21 5 -21 10 0 6 -5 10 -12 10 -34 0 -324 173 -371 222 -21
21 -16 23 16 6z m2019 -850 c25 -20 99 -134 146 -227 42 -80 43 -86 37 -150
-6 -62 -21 -149 -47 -266 -11 -48 -79 -189 -122 -250 -12 -16 -26 -39 -31 -50
-18 -35 -42 -30 -55 12 -22 67 -119 300 -146 350 -15 26 -49 87 -77 136 -42
74 -49 93 -44 123 7 42 130 218 179 254 105 79 131 90 160 68z m570 -40 c25
-22 157 -268 158 -296 0 -7 4 -20 10 -30 81 -141 125 -555 56 -515 -8 5 -31
31 -52 59 -65 86 -246 268 -327 328 -108 80 -113 89 -86 162 38 101 98 207
147 257 48 49 67 56 94 35z m2040 5 c9 -20 -11 -442 -22 -477 -7 -24 -34 -61
-69 -96 -84 -84 -151 -105 -336 -105 -123 0 -147 3 -198 24 -74 29 -141 92
-156 146 -15 52 -56 449 -48 468 4 12 34 16 134 22 70 4 141 7 158 8 l30 2 3
-85 c7 -217 19 -332 39 -359 27 -36 100 -42 129 -10 17 19 19 34 16 168 -1 80
-5 178 -8 218 l-6 72 68 4 c141 7 263 7 266 0z m550 -13 c156 -11 228 -33 282
-83 66 -63 51 -169 -32 -221 -55 -35 -58 -43 -17 -56 19 -6 49 -25 65 -42 66
-66 23 -192 -83 -239 -50 -23 -59 -24 -247 -20 -272 7 -333 7 -348 1 -16 -6
-17 93 -6 458 l7 212 121 0 c67 0 183 -5 258 -10z m573 -51 c88 -11 160 -21
161 -22 0 -1 16 -44 34 -96 32 -89 34 -92 49 -73 125 156 111 144 155 137 96
-15 321 -57 325 -61 2 -2 -13 -11 -34 -20 -56 -23 -329 -247 -351 -288 -6 -12
-22 -77 -35 -144 -17 -91 -29 -126 -41 -133 -11 -6 -53 -4 -119 7 -56 9 -115
13 -131 10 -34 -7 -34 -12 -7 160 l21 133 -42 78 c-40 73 -142 242 -184 306
l-18 27 28 0 c16 0 101 -9 189 -21z m-2168 -44 c61 -30 89 -62 104 -117 19
-73 -17 -157 -84 -193 -20 -11 -39 -25 -41 -32 -3 -7 35 -52 86 -100 51 -49
105 -101 120 -118 l29 -30 -33 -2 c-70 -6 -254 -24 -278 -28 -21 -4 -37 9
-104 84 -44 50 -83 88 -87 86 -3 -3 -1 -33 7 -67 17 -80 17 -117 2 -123 -11
-4 -103 -21 -252 -47 -17 -3 -23 15 -53 152 -19 85 -49 226 -68 312 -19 87
-35 164 -35 172 0 17 38 25 245 55 77 11 154 22 170 25 17 2 73 3 125 0 76 -3
105 -9 147 -29z m1175 -721 c55 -18 66 -30 46 -47 -8 -7 -25 -29 -37 -49 -25
-43 -33 -45 -86 -22 -46 19 -94 15 -109 -9 -15 -25 9 -41 87 -57 117 -23 162
-64 154 -142 -10 -107 -101 -177 -241 -185 -48 -3 -104 -1 -136 7 -30 7 -66
14 -78 15 -13 2 -26 6 -29 9 -8 7 48 146 59 146 5 0 27 -9 48 -20 54 -27 120
-35 143 -18 18 13 18 15 0 36 -12 15 -41 26 -91 37 -111 23 -142 52 -142 136
0 85 69 157 173 179 57 12 182 4 239 -16z m385 -8 c2 -1 -2 -29 -7 -62 -5 -32
-14 -141 -21 -242 -7 -105 -17 -186 -23 -191 -6 -5 -54 -11 -106 -12 -78 -3
-95 -1 -95 11 1 69 17 416 22 459 l6 53 111 -7 c61 -4 112 -8 113 -9z m-964
-20 c43 -17 85 -68 93 -110 8 -46 -24 -118 -65 -142 -17 -10 -31 -24 -31 -31
0 -7 31 -50 70 -96 38 -45 70 -88 70 -94 0 -10 -27 -13 -100 -14 -55 -1 -106
-2 -112 -3 -7 -1 -34 28 -61 64 -27 36 -53 67 -58 68 -6 3 -7 -21 -3 -62 7
-64 6 -66 -20 -76 -15 -5 -50 -10 -77 -10 -28 0 -59 -5 -71 -11 -11 -6 -22 -9
-24 -6 -3 3 -12 60 -20 128 -7 68 -21 176 -29 239 -20 153 -21 148 18 155 141
25 362 26 420 1z m1482 -18 c123 -31 215 -133 215 -237 0 -65 -36 -145 -87
-195 -60 -60 -134 -88 -233 -90 -193 -3 -330 104 -330 257 0 206 196 326 435
265z m-2030 -54 c8 -68 7 -69 -85 -78 -81 -8 -106 -23 -95 -55 7 -23 9 -23 95
-17 l87 7 6 -52 c4 -29 5 -54 3 -56 -2 -2 -35 -9 -72 -15 -79 -12 -99 -26 -89
-58 7 -21 11 -22 74 -16 36 4 80 9 97 12 l32 6 4 -54 c3 -30 0 -58 -6 -65 -6
-7 -82 -22 -169 -33 -87 -11 -168 -25 -179 -31 -11 -6 -24 -7 -28 -2 -6 7
-100 473 -100 499 0 6 67 20 158 32 86 12 168 23 182 25 76 12 77 12 85 -49z
m-455 -9 c0 -3 -7 -16 -14 -28 -15 -22 -58 -207 -92 -391 -10 -54 -24 -104
-31 -111 -6 -7 -43 -20 -80 -28 -37 -9 -76 -18 -85 -22 -13 -5 -36 18 -99 97
-126 159 -209 259 -248 300 -22 24 -31 41 -26 47 6 5 59 20 118 32 93 20 110
21 122 8 7 -8 48 -67 89 -133 l76 -119 0 46 c0 64 21 250 29 260 4 4 52 16
107 26 111 21 134 23 134 16z m2960 -15 c36 -6 74 -13 86 -15 16 -4 30 -28 59
-102 53 -136 75 -187 79 -182 2 2 16 54 31 114 16 61 32 114 36 119 7 8 189
-27 211 -40 5 -3 3 -13 -5 -22 -8 -10 -36 -89 -61 -177 -70 -239 -86 -283
-101 -289 -7 -2 -31 0 -52 6 -21 6 -60 13 -87 17 l-49 6 -50 135 c-28 74 -52
137 -54 140 -9 10 -24 -29 -44 -118 -24 -105 -35 -116 -95 -102 -21 5 -58 10
-81 10 -24 0 -43 4 -43 8 0 5 23 120 50 257 28 137 50 251 50 253 0 2 12 1 28
-2 15 -3 56 -10 92 -16z"/>
<path d="M8457 5380 c-3 -11 -1 -20 4 -20 5 0 9 9 9 20 0 11 -2 20 -4 20 -2 0
-6 -9 -9 -20z"/>
<path d="M8600 5145 c0 -14 -4 -25 -10 -25 -5 0 -10 -4 -10 -10 0 -20 25 -9
38 17 16 35 15 43 -3 43 -9 0 -15 -9 -15 -25z"/>
<path d="M9570 5070 c-19 -12 66 -12 95 0 15 6 7 9 -30 9 -27 0 -57 -4 -65 -9z"/>
<path d="M8610 5050 c0 -5 5 -10 10 -10 6 0 10 5 10 10 0 6 -4 10 -10 10 -5 0
-10 -4 -10 -10z"/>
<path d="M8652 4920 c0 -14 2 -19 5 -12 2 6 2 18 0 25 -3 6 -5 1 -5 -13z"/>
<path d="M8676 4905 c4 -8 8 -15 10 -15 2 0 4 7 4 15 0 8 -4 15 -10 15 -5 0
-7 -7 -4 -15z"/>
<path d="M8655 4870 c3 -5 8 -10 11 -10 2 0 4 5 4 10 0 6 -5 10 -11 10 -5 0
-7 -4 -4 -10z"/>
<path d="M8650 4830 c0 -5 5 -10 10 -10 6 0 10 5 10 10 0 6 -4 10 -10 10 -5 0
-10 -4 -10 -10z"/>
<path d="M8296 4752 c-63 -33 -93 -63 -373 -375 l-304 -338 50 -55 c28 -31 51
-59 51 -63 0 -13 -111 -62 -123 -54 -7 4 -119 99 -249 210 -131 112 -241 203
-246 203 -20 0 -129 -65 -149 -89 l-23 -26 0 54 c0 47 -2 52 -17 46 -19 -7
-538 -168 -613 -190 -25 -7 -70 -20 -100 -29 -30 -8 -92 -34 -138 -56 l-84
-41 7 -177 c3 -97 8 -191 11 -208 l5 -32 46 14 c25 8 57 14 70 14 21 0 23 -4
23 -45 l0 -45 -87 0 c-53 0 -120 -8 -168 -20 -79 -19 -194 -68 -227 -97 -23
-20 -26 -8 -18 77 16 159 -23 289 -126 420 -80 102 -216 195 -355 243 -87 30
-274 57 -392 57 -335 -2 -713 -117 -1062 -324 -153 -91 -263 -189 -241 -215 7
-9 39 -59 71 -111 32 -52 68 -111 80 -130 13 -19 69 -111 125 -205 57 -93 104
-171 106 -173 1 -2 35 11 74 28 40 16 74 29 75 28 2 -2 90 -192 195 -423 106
-231 207 -451 225 -490 123 -268 205 -453 205 -464 0 -18 -4 -19 330 85 224
70 301 99 358 133 39 24 72 48 72 55 0 6 -23 94 -50 196 -28 102 -55 200 -60
218 -12 45 -1 40 39 -19 73 -107 208 -194 339 -220 39 -7 103 -10 165 -6 130
7 229 41 351 120 48 32 90 57 92 55 1 -2 6 -50 10 -106 l7 -103 41 7 c23 4
154 23 291 43 230 34 255 40 315 72 l65 34 3 173 c1 100 6 172 12 172 11 0 83
-33 295 -135 88 -43 248 -119 355 -170 107 -51 240 -114 294 -140 l99 -48 73
38 74 39 0 235 0 236 86 22 c47 12 122 40 166 62 45 22 83 39 85 37 2 -1 -7
-60 -20 -130 -16 -87 -20 -129 -13 -131 6 -2 54 -9 106 -15 52 -6 118 -15 145
-20 28 -5 125 -21 217 -35 l167 -26 60 33 c69 38 67 39 113 -54 13 -26 28 -48
34 -48 6 0 33 12 58 26 26 15 49 24 52 22 2 -3 10 -44 16 -91 11 -81 13 -87
37 -91 14 -3 132 -24 261 -46 129 -21 281 -48 338 -58 l103 -19 67 35 c37 19
71 38 75 42 5 4 2 43 -7 85 -9 42 -14 80 -11 85 2 4 26 10 53 13 27 3 74 14
105 25 l57 19 -1 -31 c0 -17 -6 -71 -13 -121 -7 -49 -12 -92 -10 -94 1 -1 38
-7 81 -12 43 -5 150 -19 238 -32 l160 -22 3 -97 3 -97 42 -11 c45 -12 382
-114 432 -132 27 -9 40 -6 101 25 39 19 75 41 81 49 5 7 19 42 30 78 11 36 57
171 103 300 45 129 95 273 110 320 66 195 359 1041 390 1125 29 81 30 89 0 93
-24 3 -201 43 -518 118 l-143 34 -45 -25 c-25 -14 -49 -25 -54 -25 -5 0 -12
16 -16 35 -3 19 -9 37 -13 40 -4 2 -158 36 -342 74 -184 39 -364 78 -400 86
l-65 15 -70 -38 -69 -38 3 -195 4 -196 -63 -7 c-95 -9 -186 -35 -264 -73 -38
-19 -75 -39 -82 -45 -10 -8 -15 -4 -23 17 -5 14 -10 33 -10 40 0 15 -95 600
-106 648 l-6 27 -266 0 -267 0 -84 -45 -84 -46 -207 1 -208 1 -70 -35 c-74
-37 -76 -41 -87 -121 -13 -103 -9 -100 -79 -51 -110 78 -225 123 -343 133 -40
3 -73 10 -73 14 0 4 106 63 236 130 l236 121 -25 27 c-14 14 -91 122 -171 239
-81 116 -148 212 -149 211 -1 0 -33 -16 -71 -37z m138 -292 c47 -61 86 -113
86 -116 0 -6 -501 -247 -505 -242 -37 53 -41 42 58 157 127 147 271 311 273
311 1 0 41 -50 88 -110z m1460 -407 c4 -16 44 -263 67 -421 5 -34 16 -101 24
-149 21 -118 20 -122 -26 -183 -23 -30 -57 -86 -75 -125 -108 -225 -66 -476
105 -638 37 -35 89 -74 114 -86 54 -26 52 -24 61 -74 l7 -38 -43 5 c-239 31
-354 49 -359 54 -7 7 -25 114 -69 402 -31 207 -41 260 -51 260 -5 0 -9 -6 -9
-12 -1 -23 -125 -321 -135 -325 -6 -2 -24 27 -42 65 -144 302 -186 386 -189
377 -4 -12 -70 -420 -80 -488 l-6 -48 -47 7 c-132 19 -323 53 -328 58 -3 3 4
70 17 148 l24 143 84 87 84 87 -33 29 c-97 84 -90 73 -79 117 5 22 18 94 30
160 61 353 90 509 98 517 5 5 91 7 193 6 l184 -3 26 -135 c15 -74 34 -179 44
-232 10 -54 21 -98 24 -98 4 0 28 118 55 263 27 144 51 268 53 275 4 9 41 12
138 12 119 0 134 -2 139 -17z m-3124 -34 c0 -52 20 -372 26 -407 5 -33 10 -28
180 200 96 128 181 233 188 233 12 0 81 -61 280 -247 28 -26 54 -48 59 -48 16
0 5 -21 -29 -57 -20 -21 -128 -131 -240 -245 -112 -113 -204 -210 -204 -215 0
-5 21 -16 48 -25 26 -9 128 -47 227 -86 178 -69 180 -70 212 -118 93 -141 293
-260 470 -280 l53 -7 0 -158 c0 -88 -2 -159 -4 -159 -7 0 -111 48 -256 118
-80 38 -206 99 -280 135 -74 35 -211 102 -305 147 -244 118 -334 160 -341 160
-4 0 -5 -134 -3 -297 l4 -297 -120 -18 c-157 -22 -182 -22 -189 0 -2 9 -7 64
-11 122 -6 102 -6 107 23 165 49 100 66 170 66 280 1 146 -36 254 -123 360
-23 27 -41 56 -41 63 0 7 -4 54 -9 105 -5 51 -15 156 -22 235 -7 78 -14 142
-17 142 -2 0 -31 -7 -64 -16 -33 -8 -62 -14 -63 -12 -2 2 -5 30 -6 62 -3 67
-7 62 91 90 30 9 123 35 205 60 189 55 195 55 195 15z m-1810 -34 c122 -18
207 -49 298 -109 289 -191 308 -500 52 -819 -74 -92 -169 -177 -257 -230 -60
-37 -62 -42 -33 -142 40 -139 170 -623 170 -632 0 -8 -131 -54 -308 -109 -16
-5 6 -51 -514 1071 -121 261 -166 354 -173 363 -1 1 -35 -13 -76 -33 -40 -19
-78 -35 -84 -35 -5 0 -63 87 -127 192 -93 151 -115 195 -105 204 21 20 178
100 277 142 168 71 361 123 535 145 76 10 254 6 345 -8z m3385 -90 c93 -19
202 -75 267 -134 l53 -48 -39 -44 c-22 -24 -132 -138 -245 -254 -190 -194
-203 -210 -178 -213 78 -9 205 41 285 113 l52 47 48 -38 c99 -82 203 -176 200
-184 -8 -21 -131 -116 -196 -151 -137 -76 -334 -129 -476 -129 -215 1 -420
111 -500 268 -141 279 -11 589 302 722 37 15 92 33 122 39 30 6 64 13 75 15
47 9 165 5 230 -9z m2629 -29 c188 -38 384 -76 389 -76 7 0 95 -390 172 -758
4 -18 9 -31 12 -28 3 3 38 135 78 293 90 358 104 403 118 403 15 0 288 -57
345 -72 33 -8 42 -14 37 -27 -8 -18 -292 -846 -511 -1485 -24 -71 -46 -131
-49 -134 -6 -6 -145 28 -230 56 l-50 17 -6 220 c-4 121 -8 292 -9 380 -3 186
-11 348 -16 342 -4 -3 -71 -359 -94 -494 -5 -29 -16 -91 -26 -138 l-17 -85
-31 5 c-17 2 -73 11 -124 20 -50 8 -103 15 -116 15 -14 0 -27 3 -29 8 -3 4 0
54 5 112 l10 105 63 65 c114 118 174 237 196 392 10 71 9 97 -4 162 -20 98
-62 186 -119 252 l-44 51 7 84 c5 46 11 103 14 126 l6 42 -61 17 c-54 15 -61
20 -56 38 3 12 6 42 6 69 0 26 3 47 6 47 4 0 61 -11 128 -24z m-309 -411 c207
-54 330 -245 295 -454 -16 -95 -74 -211 -144 -287 -256 -281 -678 -263 -819
33 -30 63 -32 75 -32 173 1 95 4 112 32 177 41 95 92 163 172 230 148 122 334
170 496 128z m-3246 -121 c0 -47 3 -89 6 -94 12 -20 -16 -18 -72 4 -104 41
-103 34 -23 109 39 37 74 67 79 67 5 0 10 -39 10 -86z m-1268 16 c179 -34 309
-166 340 -345 28 -163 -53 -364 -202 -498 -120 -109 -269 -163 -429 -155 -192
10 -330 108 -390 280 -28 81 -27 211 3 299 95 278 406 470 678 419z"/>
<path d="M4890 3549 c-61 -9 -130 -34 -130 -49 0 -5 6 -29 14 -52 8 -24 44
-137 81 -253 36 -115 68 -216 71 -223 5 -17 42 4 122 68 109 87 154 170 153
279 0 100 -42 169 -125 206 -61 27 -112 34 -186 24z m34 -123 c-4 -11 0 -13
16 -9 14 4 26 -1 35 -13 14 -18 14 -18 15 4 0 16 -6 22 -22 23 -16 1 -18 3 -6
6 15 4 49 -10 86 -35 14 -10 5 -45 -9 -36 -5 3 -7 9 -5 13 3 3 -4 7 -13 7 -15
0 -16 -4 -8 -17 10 -17 30 -19 43 -6 16 16 23 5 13 -20 -6 -16 -6 -29 -1 -32
6 -3 7 -27 2 -54 -5 -35 -16 -58 -38 -80 -20 -19 -35 -28 -40 -22 -16 18 -85
253 -79 269 4 9 9 16 11 16 3 0 3 -6 0 -14z"/>
<path d="M5046 3243 c-6 -14 -5 -15 5 -6 7 7 10 15 7 18 -3 3 -9 -2 -12 -12z"/>
<path d="M8021 3673 c-26 -9 -67 -37 -97 -67 -87 -85 -106 -195 -50 -303 13
-27 38 -61 55 -78 l32 -29 22 25 c29 34 195 215 277 302 36 38 66 73 68 77 5
13 -60 58 -107 75 -55 19 -143 18 -200 -2z m95 -88 c-3 -8 -1 -15 4 -15 6 0
10 5 10 10 0 6 7 10 16 10 9 0 12 -5 8 -12 -5 -9 -2 -8 9 1 38 30 27 -1 -15
-46 -25 -26 -74 -79 -108 -118 -34 -38 -66 -71 -70 -73 -18 -7 -32 43 -28 95
5 62 31 103 74 118 16 5 35 16 43 23 7 7 20 11 27 8 7 -3 16 -1 19 4 10 16 18
12 11 -5z"/>
<path d="M10411 3359 c-161 -47 -228 -214 -137 -347 86 -124 285 -146 399 -43
22 20 48 54 58 76 22 48 24 140 4 175 l-14 25 -1 -29 c0 -16 -11 -44 -24 -61
-49 -64 -135 -82 -210 -45 -113 56 -111 181 4 237 l45 22 -45 0 c-25 -1 -60
-5 -79 -10z"/>
<path d="M5904 3216 c-94 -43 -153 -142 -139 -230 23 -134 131 -213 277 -204
146 10 240 99 240 227 0 61 -22 133 -29 96 -10 -48 -29 -79 -66 -106 -73 -53
-184 -33 -234 41 -44 64 -17 145 60 180 l42 20 -50 0 c-32 0 -68 -9 -101 -24z"/>
<path d="M8680 4709 c0 -5 5 -7 10 -4 6 3 10 8 10 11 0 2 -4 4 -10 4 -5 0 -10
-5 -10 -11z"/>
<path d="M8706 4652 c-2 -4 2 -18 11 -32 8 -14 12 -18 9 -9 -2 9 0 21 5 26 7
7 5 12 -5 16 -8 3 -17 3 -20 -1z"/>
<path d="M9905 4400 c-18 -8 -17 -9 8 -9 15 -1 27 4 27 9 0 12 -8 12 -35 0z"/>
<path d="M9775 4370 c-8 -13 55 -13 75 0 11 7 4 10 -27 10 -23 0 -45 -4 -48
-10z"/>
<path d="M9680 4350 c-12 -8 -10 -10 10 -10 14 0 32 5 40 10 12 8 10 10 -10
10 -14 0 -32 -5 -40 -10z"/>
<path d="M9590 4330 l-35 -7 43 -2 c27 0 41 3 37 9 -3 6 -7 9 -8 9 -1 -1 -18
-5 -37 -9z"/>
<path d="M8689 4235 c-9 -25 -19 -35 -34 -35 -37 0 -35 -10 12 -68 52 -64 70
-77 58 -41 -5 13 -7 59 -6 102 3 83 -9 100 -30 42z"/>
<path d="M8180 6533 c0 -5 5 -15 10 -23 7 -11 12 -12 21 -3 6 6 8 16 5 22 -8
12 -36 15 -36 4z"/>
<path d="M8145 6520 c-3 -5 -1 -10 4 -10 6 0 11 5 11 10 0 6 -2 10 -4 10 -3 0
-8 -4 -11 -10z"/>
<path d="M8078 6483 c6 -2 18 -2 25 0 6 3 1 5 -13 5 -14 0 -19 -2 -12 -5z"/>
<path d="M8065 6380 c3 -5 8 -10 11 -10 2 0 4 5 4 10 0 6 -5 10 -11 10 -5 0
-7 -4 -4 -10z"/>
<path d="M8230 6300 c8 -5 22 -9 30 -9 10 0 8 3 -5 9 -27 12 -43 12 -25 0z"/>
<path d="M8330 6240 c8 -5 22 -10 30 -10 13 0 13 1 0 10 -8 5 -22 10 -30 10
-13 0 -13 -1 0 -10z"/>
<path d="M8160 5640 c0 -11 5 -20 10 -20 6 0 10 9 10 20 0 11 -4 20 -10 20 -5
0 -10 -9 -10 -20z"/>
<path d="M7720 5609 c0 -5 5 -7 10 -4 6 3 10 8 10 11 0 2 -4 4 -10 4 -5 0 -10
-5 -10 -11z"/>
<path d="M8173 5584 c-3 -8 -1 -20 6 -27 8 -8 11 -4 11 16 0 30 -7 35 -17 11z"/>
<path d="M8135 5580 c-3 -5 1 -10 10 -10 9 0 13 5 10 10 -3 6 -8 10 -10 10 -2
0 -7 -4 -10 -10z"/>
<path d="M8110 5536 c0 -23 16 -27 17 -5 1 10 -2 19 -8 19 -5 0 -9 -6 -9 -14z"/>
<path d="M8205 5530 c-3 -5 -1 -10 4 -10 6 0 11 5 11 10 0 6 -2 10 -4 10 -3 0
-8 -4 -11 -10z"/>
<path d="M7810 5520 l-35 -6 33 -8 c21 -5 38 -4 44 2 14 14 -2 19 -42 12z"/>
<path d="M8170 5510 c0 -5 5 -10 10 -10 6 0 10 5 10 10 0 6 -4 10 -10 10 -5 0
-10 -4 -10 -10z"/>
<path d="M7650 5476 c0 -9 5 -16 10 -16 6 0 10 4 10 9 0 6 -4 13 -10 16 -5 3
-10 -1 -10 -9z"/>
<path d="M8093 5443 c9 -2 23 -2 30 0 6 3 -1 5 -18 5 -16 0 -22 -2 -12 -5z"/>
<path d="M8642 1708 l3 -53 38 -3 c41 -4 87 19 87 42 0 7 -9 25 -21 40 -17 21
-29 26 -65 26 l-45 0 3 -52z"/>
<path d="M8627 1513 c-9 -8 -9 -76 -1 -97 10 -25 108 -22 134 4 27 27 25 36
-9 71 -24 23 -38 29 -74 29 -24 0 -47 -3 -50 -7z"/>
<path d="M6807 1669 c-19 -11 -19 -13 4 -103 l10 -39 46 7 c84 11 108 63 54
117 -31 31 -79 38 -114 18z"/>
<path d="M7513 944 c-3 -8 -1 -34 4 -57 8 -40 10 -42 43 -39 41 3 60 18 60 46
0 38 -28 66 -66 66 -22 0 -37 -6 -41 -16z"/>
<path d="M9045 889 c-47 -23 -63 -106 -29 -157 20 -31 75 -53 113 -46 49 10
76 48 76 106 0 43 -4 53 -33 79 -34 31 -86 38 -127 18z"/>
</g>
</svg>
