<?xml version="1.0" encoding="UTF-8" standalone="no"?>
<svg
   xmlns:dc="http://purl.org/dc/elements/1.1/"
   xmlns:cc="http://creativecommons.org/ns#"
   xmlns:rdf="http://www.w3.org/1999/02/22-rdf-syntax-ns#"
   xmlns:svg="http://www.w3.org/2000/svg"
   xmlns="http://www.w3.org/2000/svg"
   viewBox="0 0 601.33331 601.33331"
   height="601.33331"
   width="601.33331"
   xml:space="preserve"
   id="svg2"
   version="1.1"><metadata
     id="metadata8"><rdf:RDF><cc:Work
         rdf:about=""><dc:format>image/svg+xml</dc:format><dc:type
           rdf:resource="http://purl.org/dc/dcmitype/StillImage" /></cc:Work></rdf:RDF></metadata><defs
     id="defs6" /><g
     transform="matrix(1.3333333,0,0,-1.3333333,0,601.33333)"
     id="g10"><g
       transform="scale(0.1)"
       id="g12"><path
         id="path14"
         style="fill:#8c6f6f;fill-opacity:1;fill-rule:nonzero;stroke:none"
         d="m 1352.32,687.891 66.54,0.007 -7.68,526.102 H 1360 l -7.68,-526.109" /><path
         id="path16"
         style="fill:#6d5050;fill-opacity:1;fill-rule:nonzero;stroke:none"
         d="M 1414.19,1008.13 1411.18,1214 H 1360 l -3,-205.87 h 57.19" /><path
         id="path18"
         style="fill:#6d5050;fill-opacity:1;fill-rule:nonzero;stroke:none"
         d="m 1466.68,1401.14 h -162.19 l 18.72,-241.22 h 124.76 l 18.71,241.22" /><path
         id="path20"
         style="fill:#8c6f6f;fill-opacity:1;fill-rule:nonzero;stroke:none"
         d="m 1795.38,604.719 c -11.04,63.711 -190.29,114.371 -409.79,114.371 -219.51,0 -398.758,-50.66 -409.797,-114.371 h 819.587" /><path
         id="path22"
         style="fill:#6d5050;fill-opacity:1;fill-rule:nonzero;stroke:none"
         d="m 1795.93,1461.44 c 0,66.61 -189.95,68.62 -416.58,68.62 -226.62,0 -404.1,-2.01 -404.1,-68.62 0,-66.61 183.71,-120.61 410.34,-120.61 226.62,0 410.34,54 410.34,120.61" /><path
         id="path24"
         style="fill:#ff974a;fill-opacity:1;fill-rule:nonzero;stroke:none"
         d="m 998.605,3331.47 c -149.929,39.63 -395.593,39.86 -538.8,5.71 -42.18,-10.05 -69.496,-50.99 -62.5,-93.79 L 623.602,1859.22 c 6.523,-39.92 41.011,-69.23 81.464,-69.23 h 497.644 c 50.9,0 89.68,45.63 81.46,95.86 l -225.46,1379.06 c -5.23,32.03 -28.73,58.27 -60.105,66.56" /><path
         id="path26"
         style="fill:#ff974a;fill-opacity:1;fill-rule:nonzero;stroke:none"
         d="m 1079.01,3331.47 c -149.932,39.63 -395.596,39.86 -538.803,5.71 -42.18,-10.05 -69.496,-50.99 -62.5,-93.79 L 704.004,1859.22 c 6.527,-39.92 41.016,-69.23 81.465,-69.23 h 497.641 c 50.91,0 89.68,45.63 81.47,95.86 l -225.46,1379.06 c -5.24,32.03 -28.74,58.27 -60.11,66.56" /><path
         id="path28"
         style="fill:#ffba5f;fill-opacity:1;fill-rule:nonzero;stroke:none"
         d="m 890.484,3359.01 c -124.031,7.77 -258.269,0.11 -350.277,-21.83 -42.18,-10.05 -69.496,-50.99 -62.5,-93.79 l 109.246,-668.22 c 34.899,360.21 150.781,653.89 303.531,783.84" /><path
         id="path30"
         style="fill:#603c4f;fill-opacity:1;fill-rule:nonzero;stroke:none"
         d="m 2292.6,1964.66 c -499.44,44.36 -1002.28,40.74 -1400.53,13.86 -22.363,-193.21 82.2,-350.73 168.38,-443.61 h 1181.86 l 50.29,429.75" /><path
         id="path32"
         style="fill:#4f2e41;fill-opacity:1;fill-rule:nonzero;stroke:none"
         d="m 1142.3,1661.06 c 193.38,326.47 756.12,329.15 756.12,329.15 L 1789,2126.85 1019.61,1991.69 948.91,1864.85 1142.3,1661.06" /><path
         id="path34"
         style="fill:#4f2e41;fill-opacity:1;fill-rule:nonzero;stroke:none"
         d="m 2177.47,1973.95 c 15.06,-13.56 23.25,-27.82 23.25,-42.56 0,-88.81 -291.71,-160.81 -651.55,-160.81 -359.84,0 -651.553,72 -651.553,160.81 0,17.26 11.145,33.87 31.543,49.46 -12.355,-0.78 -24.922,-1.51 -37.09,-2.33 -22.363,-193.21 82.2,-350.73 168.38,-443.61 h 1181.86 l 50.29,429.75 c -38.38,3.41 -76.76,6.44 -115.13,9.29" /><path
         id="path36"
         style="fill:#ff974a;fill-opacity:1;fill-rule:nonzero;stroke:none"
         d="M 1452.32,1559.17 H 915.453 c -29.758,0 -53.879,-24.12 -53.879,-53.88 v -2.45 c 0,-29.75 24.121,-53.88 53.879,-53.88 h 536.867 c 29.75,0 53.88,24.13 53.88,53.88 v 2.45 c 0,29.76 -24.13,53.88 -53.88,53.88" /><path
         id="path38"
         style="fill:#ffba5f;fill-opacity:1;fill-rule:nonzero;stroke:none"
         d="M 1221.04,1559.17 H 923.539 c -26.949,0 -48.793,-21.84 -48.793,-48.79 v -2.22 c 0,-26.95 21.844,-48.8 48.793,-48.8 h 297.501 c 26.95,0 48.79,21.85 48.79,48.8 v 2.22 c 0,26.95 -21.84,48.79 -48.79,48.79" /><path
         id="path40"
         style="fill:#8c6f6f;fill-opacity:1;fill-rule:nonzero;stroke:none"
         d="m 1867.05,538.191 c -12.15,34.68 -44.84,54.789 -73.02,44.918 -28.18,-9.879 -41.18,-46 -29.03,-80.679 12.16,-34.68 44.85,-54.789 73.03,-44.918 28.18,9.867 41.18,45.988 29.02,80.679" /><path
         id="path42"
         style="fill:#8c6f6f;fill-opacity:1;fill-rule:nonzero;stroke:none"
         d="m 1417.9,538.191 c -12.15,34.68 -44.85,54.789 -73.03,44.918 -28.18,-9.879 -41.17,-46 -29.02,-80.679 12.15,-34.68 44.85,-54.789 73.03,-44.918 28.18,9.867 41.17,45.988 29.02,80.679" /><path
         id="path44"
         style="fill:#8c6f6f;fill-opacity:1;fill-rule:nonzero;stroke:none"
         d="m 1008.25,538.191 c -12.148,34.68 -44.844,54.789 -73.023,44.918 -28.18,-9.879 -41.176,-46 -29.024,-80.679 12.152,-34.68 44.848,-54.789 73.027,-44.918 28.18,9.867 41.17,45.988 29.02,80.679" /><path
         id="path46"
         style="fill:#d64795;fill-opacity:1;fill-rule:nonzero;stroke:none"
         d="m 2165.33,2506.81 c -185.68,150.67 -347.22,624.4 -465.75,724.22 0,0 -115.78,-379.39 -27.03,-788.38 39.64,-182.68 314.34,-332.35 375.39,-323.87 61.04,8.48 197.77,322.82 117.39,388.03" /><path
         id="path48"
         style="fill:#c6388d;fill-opacity:1;fill-rule:nonzero;stroke:none"
         d="m 2079.83,2339.14 c -182.32,-30.73 -375.62,214.26 -431.74,547.2 -1.26,7.47 -2.34,14.89 -3.44,22.31 -10.48,-134.01 -8.67,-297.45 27.9,-466 39.64,-182.68 314.34,-332.35 375.39,-323.87 42.53,5.91 126.47,165.13 146.33,283.25 -33.04,-33.6 -71.48,-55.65 -114.44,-62.89" /><path
         id="path50"
         style="fill:#e2daba;fill-opacity:1;fill-rule:nonzero;stroke:none"
         d="m 2315.19,2300.06 c 26.21,132.34 -54.98,233.97 -180,223.69 -122.85,-10.1 -236.97,-124.43 -256.33,-252.28 -18.84,-124.41 59.07,-218.23 175.28,-212.47 118.17,5.86 235.57,112.4 261.05,241.06" /><path
         id="path52"
         style="fill:#edb984;fill-opacity:1;fill-rule:nonzero;stroke:none"
         d="m 2876.16,2311.89 c -26.17,16.47 -161.03,28.46 -242.96,28.76 l -3.82,-191.95 c 124.17,-55.97 271.88,-19.7 276.74,7.96 4.86,27.7 -4.17,139 -29.96,155.23" /><path
         id="path54"
         style="fill:#edb984;fill-opacity:1;fill-rule:nonzero;stroke:none"
         d="m 2834.07,2451.19 c -11.73,-1.7 -63.13,-73.95 -179.84,-112.96 l 102.78,-59.36 c 30.93,11.05 116.77,109.92 118.85,132.43 2.32,25.11 -24.74,42.35 -41.79,39.89" /><path
         id="path56"
         style="fill:#edb984;fill-opacity:1;fill-rule:nonzero;stroke:none"
         d="m 2992.84,2355.87 c -10.03,0.24 -93.42,-15.64 -180.75,-43.66 l 53.46,-56.39 c 0,0 135.04,41.71 145.2,58.36 10.12,16.61 -3.32,41.33 -17.91,41.69" /><path
         id="path58"
         style="fill:#edb984;fill-opacity:1;fill-rule:nonzero;stroke:none"
         d="m 3036.04,2261.64 c -8.79,6.85 -102.74,-5.2 -193.76,-18.65 l 46.85,-61.2 c 0,0 140.41,19.5 152.5,33.69 12.04,14.14 3.17,39.35 -5.59,46.16" /><path
         id="path60"
         style="fill:#edb984;fill-opacity:1;fill-rule:nonzero;stroke:none"
         d="m 2739.72,2120.79 c 120.59,-38.01 277.08,6.74 283.97,18.04 6.88,11.28 15.61,44.89 -2.29,44.72 -18.06,-0.15 -107.47,-20.58 -128.36,-12.94 -21.14,7.72 -149.37,71.84 -151.85,69.16 -2.48,-2.68 -1.47,-118.98 -1.47,-118.98" /><path
         id="path62"
         style="fill:#edb984;fill-opacity:1;fill-rule:nonzero;stroke:none"
         d="m 2705.33,2126.85 c 0,0 -624.74,-46.57 -707.46,0.98 -82.72,47.54 -1.75,383.9 157.1,379.56 158.86,-4.34 589.17,-212.8 589.17,-212.8 l -38.81,-167.74" /><path
         id="path64"
         style="fill:#e79b69;fill-opacity:1;fill-rule:nonzero;stroke:none"
         d="m 2011.1,2396.92 c -66.11,-100.11 -55.49,-244.8 -13.23,-269.09 82.72,-47.55 707.46,-0.98 707.46,-0.98 0,0 -598.14,302.09 -694.23,270.07" /><path
         id="path66"
         style="fill:#603c4f;fill-opacity:1;fill-rule:nonzero;stroke:none"
         d="m 1920.11,1685.1 c -27.78,150.83 -131.11,219.95 -343.21,236.58 -212.11,16.64 -257.68,-237.46 -224.58,-372.91 26.98,-110.39 420.04,-719.469 611.35,-981.481 0,0 14.67,801.731 -43.56,1117.811" /><path
         id="path68"
         style="fill:#4f2e41;fill-opacity:1;fill-rule:nonzero;stroke:none"
         d="m 1920.11,1685.1 c -12.08,65.58 -40.84,124.59 -86.89,171.76 -44.86,-53.69 -168.94,-92.36 -315.35,-92.36 -58.6,0 -113.59,6.23 -161.45,17.09 -20.39,-82.31 -29,-175.55 -14.5,-234.9 26.98,-110.39 430.44,-717.389 621.75,-979.401 0,0 14.67,801.731 -43.56,1117.811" /><path
         id="path70"
         style="fill:#603c4f;fill-opacity:1;fill-rule:nonzero;stroke:none"
         d="m 2610.48,1685.1 c -27.78,150.83 -143.59,267.08 -355.69,283.72 -212.1,16.64 -220.26,-276.28 -187.15,-411.73 26.98,-110.4 395.09,-727.789 586.39,-989.801 0,0 14.68,801.731 -43.55,1117.811" /><path
         id="path72"
         style="fill:#4f2e41;fill-opacity:1;fill-rule:nonzero;stroke:none"
         d="m 2610.48,1685.1 c -24.06,130.64 -114.3,235.21 -275.8,271.71 -55,-44.11 -265.19,-124.77 -273.28,-127.31 -26.47,-89.2 -17.98,-207.26 -1.04,-276.56 26.98,-110.4 402.37,-723.639 593.67,-985.651 0,0 14.68,801.731 -43.55,1117.811" /><path
         id="path74"
         style="fill:#d64795;fill-opacity:1;fill-rule:nonzero;stroke:none"
         d="m 894.844,1784.44 c 377.066,249.53 1003.576,205.77 1003.576,205.77 0,0 -196.76,534.51 -138.54,747.99 58.23,213.49 8.49,419.6 -60.3,492.83 -85.95,91.49 -325.13,205.76 -447.08,189.22 C 1088.92,3398.07 865.32,3234.28 781.043,3044.65 647.961,2745.21 894.844,1784.44 894.844,1784.44" /><path
         id="path76"
         style="fill:#c6388d;fill-opacity:1;fill-rule:nonzero;stroke:none"
         d="m 1200.52,2819.3 c -58.73,234.6 -203.09,390.24 -305.207,376.03 -59.442,-63.07 -109.446,-132.57 -139.094,-199.28 -133.082,-299.43 138.625,-1211.61 138.625,-1211.61 105.986,70.14 375.256,146.53 501.196,177.81 -54.12,283.13 -128.93,591.05 -195.52,857.05" /><path
         id="path78"
         style="fill:#635356;fill-opacity:1;fill-rule:nonzero;stroke:none"
         d="M 3566.72,3813.96 H 2417.99 c -53.33,0 -97.93,-57.5 -102.98,-132.8 l -76.38,-1137.23 c -5.79,-86.13 41.97,-160.61 102.98,-160.61 h 1148.73 c 53.34,0 97.93,57.5 102.99,132.79 l 76.38,1137.23 c 5.79,86.13 -41.97,160.62 -102.99,160.62" /><path
         id="path80"
         style="fill:#6d5d60;fill-opacity:1;fill-rule:nonzero;stroke:none"
         d="m 3668.84,3640.38 0.87,12.96 c 5.79,86.13 -41.97,160.62 -102.99,160.62 H 2417.99 c -53.33,0 -97.93,-57.5 -102.98,-132.8 l -23.27,-346.45 1377.1,305.67" /><path
         id="path82"
         style="fill:#6d5d60;fill-opacity:1;fill-rule:nonzero;stroke:none"
         d="m 3256.06,2383.32 h 234.29 c 37.55,0 70.7,28.57 88.83,71.72 l -323.12,-71.72" /><path
         id="path84"
         style="fill:#564649;fill-opacity:1;fill-rule:nonzero;stroke:none"
         d="M 3673.01,3813.96 H 2524.28 c -53.33,0 -97.93,-57.5 -102.98,-132.8 l -76.38,-1137.23 c -5.79,-86.13 41.97,-160.61 102.98,-160.61 h 1148.73 c 53.34,0 97.93,57.5 102.99,132.79 L 3776,3653.34 c 5.78,86.13 -41.98,160.62 -102.99,160.62" /><path
         id="path86"
         style="fill:#514144;fill-opacity:1;fill-rule:nonzero;stroke:none"
         d="m 2821.03,3567.4 c 326.09,158.65 677.08,172.96 953.61,65.74 l 1.36,20.2 c 5.78,86.13 -41.98,160.62 -102.99,160.62 H 2524.28 c -53.33,0 -97.93,-57.5 -102.98,-132.8 l -29.85,-444.38 c 111.25,131.61 256.55,246.43 429.58,330.62" /><path
         id="path88"
         style="fill:#4c3b3f;fill-opacity:1;fill-rule:nonzero;stroke:none"
         d="m 3286.18,2829.7 h -341.02 l -35.36,-446.38 h 341.03 l 35.35,446.38" /><path
         id="path90"
         style="fill:#564649;fill-opacity:1;fill-rule:nonzero;stroke:none"
         d="m 3178.74,2189.24 h -423.51 v -83.18 h 423.51 v 83.18" /><path
         id="path92"
         style="fill:#564649;fill-opacity:1;fill-rule:nonzero;stroke:none"
         d="m 3270.72,2861.58 h -329.73 l 90.77,-763.84 h 399.51 l -160.55,763.84" /><path
         id="path94"
         style="fill:#635356;fill-opacity:1;fill-rule:nonzero;stroke:none"
         d="m 3314.39,2861.58 h -329.73 l 90.77,-763.84 h 399.51 l -160.55,763.84" /><path
         id="path96"
         style="fill:#f2ecd1;fill-opacity:1;fill-rule:nonzero;stroke:none"
         d="m 1098.63,2076.95 h -49.91 V 455 h 49.91 v 1621.95" /><path
         id="path98"
         style="fill:#f2ecd1;fill-opacity:1;fill-rule:nonzero;stroke:none"
         d="m 1668.39,2076.95 h -49.91 V 455 h 49.91 v 1621.95" /><path
         id="path100"
         style="fill:#e2d9b5;fill-opacity:1;fill-rule:nonzero;stroke:none"
         d="m 3448.38,2076.95 h -49.91 V 455 h 49.91 v 1621.95" /><path
         id="path102"
         style="fill:#e2d9b5;fill-opacity:1;fill-rule:nonzero;stroke:none"
         d="M 4051.41,2076.95 H 4001.5 V 455 h 49.91 v 1621.95" /><path
         id="path104"
         style="fill:#d64795;fill-opacity:1;fill-rule:nonzero;stroke:none"
         d="m 1133.29,2987.73 c 2.77,130.31 -38.82,293.9 -160.813,263.4 -121.993,-30.5 -313.704,-299.47 -247.161,-623.86 66.539,-324.39 285.974,-482.39 402.424,-507.35 l 237.66,386.48 c -251.24,94.68 -234.89,351.03 -232.11,481.33" /><path
         id="path106"
         style="fill:#c6388d;fill-opacity:1;fill-rule:nonzero;stroke:none"
         d="m 794.363,2785.01 c -19.383,86.11 -26.836,170.19 -23.902,247.88 -49.945,-109.53 -76.809,-251.27 -45.145,-405.62 66.539,-324.39 285.974,-482.39 402.424,-507.35 l 98.82,160.7 c -174.82,-15.32 -364.165,202.15 -432.197,504.39" /><path
         id="path108"
         style="fill:#e2daba;fill-opacity:1;fill-rule:nonzero;stroke:none"
         d="m 1423.12,2316.7 c 26.21,132.34 -54.98,233.97 -180,223.69 -122.85,-10.1 -236.97,-124.43 -256.331,-252.29 -18.836,-124.41 59.071,-218.22 175.281,-212.46 118.17,5.86 235.57,112.39 261.05,241.06" /><path
         id="path110"
         style="fill:#edb984;fill-opacity:1;fill-rule:nonzero;stroke:none"
         d="m 1994.45,2311.89 c -26.17,16.47 -161.02,28.46 -242.95,28.76 l -3.83,-191.95 c 124.18,-55.97 271.89,-19.7 276.74,7.96 4.86,27.7 -4.17,139 -29.96,155.23" /><path
         id="path112"
         style="fill:#edb984;fill-opacity:1;fill-rule:nonzero;stroke:none"
         d="m 1952.36,2451.19 c -11.73,-1.7 -63.12,-73.95 -179.84,-112.96 l 102.78,-59.36 c 30.94,11.05 116.77,109.92 118.86,132.43 2.32,25.11 -24.75,42.35 -41.8,39.89" /><path
         id="path114"
         style="fill:#edb984;fill-opacity:1;fill-rule:nonzero;stroke:none"
         d="m 2111.14,2355.87 c -10.04,0.24 -93.42,-15.64 -180.75,-43.66 l 53.46,-56.39 c 0,0 135.04,41.71 145.19,58.36 10.13,16.61 -3.31,41.33 -17.9,41.69" /><path
         id="path116"
         style="fill:#edb984;fill-opacity:1;fill-rule:nonzero;stroke:none"
         d="m 2154.34,2261.64 c -8.8,6.85 -102.74,-5.2 -193.76,-18.65 l 46.85,-61.2 c 0,0 140.4,19.5 152.49,33.69 12.04,14.14 3.17,39.35 -5.58,46.16" /><path
         id="path118"
         style="fill:#edb984;fill-opacity:1;fill-rule:nonzero;stroke:none"
         d="m 1858.01,2120.79 c 120.59,-38.01 277.08,6.74 283.98,18.04 6.88,11.28 15.6,44.89 -2.3,44.72 -18.06,-0.15 -107.46,-20.58 -128.36,-12.94 -21.13,7.72 -149.37,71.84 -151.85,69.16 -2.47,-2.68 -1.47,-118.98 -1.47,-118.98" /><path
         id="path120"
         style="fill:#edb984;fill-opacity:1;fill-rule:nonzero;stroke:none"
         d="m 1818.11,2126.85 c 0,0 -624.74,-46.57 -707.46,0.98 -82.72,47.54 -47.17,339.12 106.5,379.56 210.72,55.45 639.77,-212.8 639.77,-212.8 l -38.81,-167.74" /><path
         id="path122"
         style="fill:#e79b69;fill-opacity:1;fill-rule:nonzero;stroke:none"
         d="m 1532.55,2210.58 c -201.76,44.35 -361.34,136.75 -408.5,227.14 -70.96,-101.3 -75.44,-274.23 -13.4,-309.89 82.72,-47.55 707.46,-0.98 707.46,-0.98 0,0 -175.51,59.53 -285.56,83.73" /><path
         id="path124"
         style="fill:#f2ecd1;fill-opacity:1;fill-rule:nonzero;stroke:none"
         d="M 4113.79,2126.85 H 728.492 v -79.01 H 4113.79 v 79.01" /><path
         id="path126"
         style="fill:#e2d9b5;fill-opacity:1;fill-rule:nonzero;stroke:none"
         d="M 4113.79,2126.85 H 1726.61 v -79.01 h 2387.18 v 79.01" /><path
         id="path128"
         style="fill:#d1c79f;fill-opacity:1;fill-rule:nonzero;stroke:none"
         d="m 2774.37,455 h -113.33 c 0,0 -75.65,130.379 -26.35,146.551 49.29,16.16 68.39,-103.449 68.39,-103.449 L 2774.37,455" /><path
         id="path130"
         style="fill:#d1c79f;fill-opacity:1;fill-rule:nonzero;stroke:none"
         d="m 2089.55,455 h -113.33 c 0,0 -75.65,130.379 -26.36,146.551 49.29,16.16 68.39,-103.449 68.39,-103.449 L 2089.55,455" /><path
         id="path132"
         style="fill:#c6388d;fill-opacity:1;fill-rule:nonzero;stroke:none"
         d="m 1200.52,3139.53 c 162.66,36.85 272.4,128.93 296.14,223.31 -87.89,39.76 -181.48,65.91 -244.16,57.41 -122.39,-16.59 -278.352,-112.48 -384.453,-239.14 -6.727,-7.08 -13.399,-14.69 -20.008,-22.68 82.809,-19.43 239.181,-44.56 352.481,-18.9" /><path
         id="path134"
         style="fill:#893044;fill-opacity:1;fill-rule:nonzero;stroke:none"
         d="M 1535.64,4034.28 C 1382.8,4096.77 1119.47,3998 1119.47,3998 c 0,0 -99.57,-221.72 30.64,-451.21 l 308.9,50.1 c 120.82,177.37 76.63,437.39 76.63,437.39" /><path
         id="path136"
         style="fill:#e5ddba;fill-opacity:1;fill-rule:nonzero;stroke:none"
         d="m 1227.38,3237.61 c 117.37,-2.19 215.48,56.49 241.44,137.23 -80.12,34.29 -163.14,60.91 -219.75,54.37 -67.27,-7.79 -147.36,-51.76 -226.07,-108.07 44.82,-48.97 119.6,-81.95 204.38,-83.53" /><path
         id="path138"
         style="fill:#d27558;fill-opacity:1;fill-rule:nonzero;stroke:none"
         d="m 1085.34,3362.7 90.23,361.15 252.59,-11.01 -6.6,-321.73 c -18.3,-133.05 -277.18,-123.69 -336.22,-28.41" /><path
         id="path140"
         style="fill:#edb984;fill-opacity:1;fill-rule:nonzero;stroke:none"
         d="m 1235.23,3915.6 c -62.42,-92.3 -31.06,-463.52 9.83,-503.66 40.9,-40.15 217.99,-31.62 238.15,-10.59 20.16,21.03 75.65,447.34 31.01,498.95 -44.64,51.62 -249.25,59.27 -278.99,15.3" /><path
         id="path142"
         style="fill:#5a4949;fill-opacity:1;fill-rule:nonzero;stroke:none"
         d="m 1399.44,3729.18 c 0.42,18.23 -9.53,32.69 -22.27,32.32 -12.79,-0.36 -23.58,-15.53 -24.07,-33.9 -0.49,-18.42 9.57,-32.99 22.43,-32.48 12.8,0.5 23.49,15.77 23.91,34.06" /><path
         id="path144"
         style="fill:#5a4949;fill-opacity:1;fill-rule:nonzero;stroke:none"
         d="m 1546.61,3727.94 c -1.71,18.31 -12.5,31.91 -24.11,30.4 -11.67,-1.51 -19.81,-17.66 -18.14,-36.11 1.68,-18.49 12.57,-32.18 24.28,-30.53 11.66,1.63 19.69,17.88 17.97,36.24" /><path
         id="path146"
         style="fill:#893044;fill-opacity:1;fill-rule:nonzero;stroke:none"
         d="m 1418.07,3851.61 -77.75,-5.53 c -9.74,-0.69 -16.56,-10.74 -15.2,-22.44 l 2.7,-23.25 c 1.36,-11.73 10.39,-20.57 20.13,-19.74 l 77.78,6.63 c 9.38,0.79 15.85,10.72 14.48,22.17 l -2.71,22.68 c -1.37,11.43 -10.05,20.14 -19.43,19.48" /><path
         id="path148"
         style="fill:#893044;fill-opacity:1;fill-rule:nonzero;stroke:none"
         d="m 1545.79,3841.56 -59.49,7.38 c -7.39,0.92 -13.6,-6.9 -13.87,-17.48 l -0.54,-21.04 c -0.27,-10.65 5.55,-19.98 12.98,-20.83 l 59.81,-6.86 c 7.27,-0.84 13.3,7.02 13.49,17.52 l 0.37,20.78 c 0.19,10.45 -5.52,19.63 -12.75,20.53" /><path
         id="path150"
         style="fill:#d27558;fill-opacity:1;fill-rule:nonzero;stroke:none"
         d="m 1463.07,3542.31 c -34.93,-10.08 -74.04,17.47 -91.7,65.95 l -17.62,-5.63 c 16.41,-52.49 57.68,-82.68 94.12,-72.17 9.81,2.83 18.25,8.63 25.41,16.27 -3.27,-1.75 -6.61,-3.38 -10.21,-4.42" /><path
         id="path152"
         style="fill:#d27558;fill-opacity:1;fill-rule:nonzero;stroke:none"
         d="m 1407.64,3506.47 c 1.01,7.01 -7.89,14.08 -19.87,15.79 -11.98,1.71 -22.51,-2.59 -23.51,-9.6 -1,-7.01 7.9,-14.08 19.88,-15.79 11.98,-1.71 22.5,2.59 23.5,9.6" /><path
         id="path154"
         style="fill:#893044;fill-opacity:1;fill-rule:nonzero;stroke:none"
         d="m 1189.8,3610.75 85.86,-1.17 c 0,0 42.71,364.9 -22.33,380.94 -65.05,16.05 -97.3,-207.32 -97.3,-207.32 l 33.77,-172.45" /><path
         id="path156"
         style="fill:#f2ecd1;fill-opacity:1;fill-rule:nonzero;stroke:none"
         d="m 1460.97,3767.52 h -149.25 l -3.38,-117.06 h 149.25 l 3.38,117.06" /><path
         id="path158"
         style="fill:#f2ecd1;fill-opacity:1;fill-rule:nonzero;stroke:none"
         d="m 1587.68,3767.52 h -105.61 l -2.39,-117.06 h 105.61 l 2.39,117.06" /><path
         id="path160"
         style="fill:#f2ecd1;fill-opacity:1;fill-rule:nonzero;stroke:none"
         d="m 1504.29,3767.52 h -63.77 v -37.43 h 63.77 v 37.43" /><path
         id="path162"
         style="fill:#f2ecd1;fill-opacity:1;fill-rule:nonzero;stroke:none"
         d="m 1314.02,3767.52 -176.23,-47.14 v -16.63 l 176.23,26.34 v 37.43" /><path
         id="path164"
         style="fill:#f2ecd1;fill-opacity:1;fill-rule:nonzero;stroke:none"
         d="m 1137.79,3720.38 -20.45,-24.95 10.75,-22.18 23.91,41.24 -14.21,5.89" /><path
         id="path166"
         style="fill:#edb984;fill-opacity:1;fill-rule:nonzero;stroke:none"
         d="m 1214.99,3569.81 c -84.57,54.3 -93.2,139.61 -49.32,166.85 43.88,27.25 68.2,-68.93 74.45,-109.56 6.24,-40.64 -25.13,-57.29 -25.13,-57.29" /><path
         id="path168"
         style="fill:#d27558;fill-opacity:1;fill-rule:nonzero;stroke:none"
         d="m 1203.61,3601.81 c -54.11,34.74 -59.63,89.32 -31.55,106.76 28.07,17.43 43.63,-44.11 47.63,-70.11 4,-26 -16.08,-36.65 -16.08,-36.65" /><path
         id="path170"
         style="fill:#edb984;fill-opacity:1;fill-rule:nonzero;stroke:none"
         d="m 1214.07,3593.76 c -27.65,17.74 -30.42,45.59 -16.04,54.47 14.38,8.88 22.28,-22.52 24.3,-35.78 2.02,-13.26 -8.26,-18.69 -8.26,-18.69" /><path
         id="path172"
         style="fill:#47373a;fill-opacity:1;fill-rule:nonzero;stroke:none"
         d="m 2374.03,2518.98 76.38,1137.23 c 5.06,75.29 49.65,132.8 102.98,132.8 h 1148.74 c 13.56,0 26.41,-3.86 38.21,-10.54 -18.03,22 -41.46,35.49 -67.33,35.49 H 2524.28 c -53.33,0 -97.93,-57.5 -102.98,-132.8 l -76.38,-1137.23 c -4.5,-66.98 23.45,-126.75 64.76,-150.08 -24.49,29.87 -38.98,75.52 -35.65,125.13" /><path
         id="path174"
         style="fill:#edb984;fill-opacity:1;fill-rule:nonzero;stroke:none"
         d="m 1445.2,3748.8 h -114.41 l -2.59,-88.28 h 114.41 l 2.59,88.28" /><path
         id="path176"
         style="fill:#edb984;fill-opacity:1;fill-rule:nonzero;stroke:none"
         d="m 1576.9,3748.8 h -79.31 l -1.79,-88.28 h 79.3 l 1.8,88.28" /><path
         id="path178"
         style="fill:#5a4949;fill-opacity:1;fill-rule:nonzero;stroke:none"
         d="m 1407.76,3708.33 c 0.39,16.98 -8.87,30.43 -20.73,30.09 -11.9,-0.34 -21.95,-14.45 -22.4,-31.55 -0.46,-17.15 8.91,-30.7 20.88,-30.23 11.91,0.46 21.85,14.67 22.25,31.69" /><path
         id="path180"
         style="fill:#5a4949;fill-opacity:1;fill-rule:nonzero;stroke:none"
         d="m 1552.21,3703.55 c 0.89,14.62 -5.92,26.64 -15.25,26.88 -9.36,0.24 -17.75,-11.47 -18.7,-26.19 -0.95,-14.76 5.94,-26.87 15.35,-27.01 9.38,-0.14 17.69,11.66 18.6,26.32" /><path
         id="path182"
         style="fill:#d27558;fill-opacity:1;fill-rule:nonzero;stroke:none"
         d="m 1470.21,3709.41 c 0,0 -2.97,-4.3 -6.99,-11.13 18.33,-36.95 38.86,-99.15 -21.47,-84.27 0.34,-1.58 0.28,-3.25 0.77,-4.79 102.55,-40.43 43.5,76.76 27.69,100.19" /></g></g></svg>